<?xml version="1.0" standalone="no"?>
<!DOCTYPE svg PUBLIC "-//W3C//DTD SVG 1.1//EN" "http://www.w3.org/Graphics/SVG/1.1/DTD/svg11.dtd" >
<svg xmlns="http://www.w3.org/2000/svg" xmlns:xlink="http://www.w3.org/1999/xlink" version="1.1">
<metadata>
Created by FontForge 20150824 at Fri Feb 19 02:35:35 2016
 By Everything Fonts
Copyright (c) 2011-2013 by Cyreal (www.cyreal.org a@cyreal.org). All rights reserved.
</metadata>
<defs>
<font id="Lora-Bold" horiz-adv-x="1432" >
  <font-face 
    font-family="Lora"
    font-weight="700"
    font-stretch="normal"
    units-per-em="2048"
    panose-1="2 0 8 3 0 0 0 2 0 4"
    ascent="1638"
    descent="-410"
    x-height="1024"
    cap-height="1434"
    bbox="-180 -555 2221 2012"
    underline-thickness="102"
    underline-position="-205"
    unicode-range="U+000D-25FC"
  />
<missing-glyph horiz-adv-x="748" 
d="M68 0v1365h544v-1365h-544zM136 68h408v1229h-408v-1229z" />
    <glyph glyph-name=".notdef" horiz-adv-x="748" 
d="M68 0v1365h544v-1365h-544zM136 68h408v1229h-408v-1229z" />
    <glyph glyph-name="glyph1" horiz-adv-x="2048" 
 />
    <glyph glyph-name="glyph1" horiz-adv-x="2048" 
 />
    <glyph glyph-name="uni000D" unicode="&#xd;" horiz-adv-x="0" 
 />
    <glyph glyph-name="space" unicode=" " horiz-adv-x="539" 
 />
    <glyph glyph-name="exclam" unicode="!" horiz-adv-x="528" 
d="M115 126q0 33 12 62.5t32.5 51.5t47.5 34.5t57 12.5q32 0 59 -12.5t47 -34.5t31 -51.5t11 -62.5t-12.5 -62t-33.5 -50.5t-48 -34t-56 -12.5q-30 0 -56.5 12.5t-47 34t-32 50.5t-11.5 62zM117 1281q-3 33 5 66t26.5 59.5t47.5 43.5t68 17q41 0 70 -17t47 -43.5t25 -59.5
t4 -66l-77 -844h-139z" />
    <glyph glyph-name="quotedbl" unicode="&#x22;" horiz-adv-x="667" 
d="M88 1467h198l-17 -461h-164zM381 1467h198l-17 -461h-164z" />
    <glyph glyph-name="numbersign" unicode="#" horiz-adv-x="1784" 
d="M75 315l43 182h335l102 404h-345l43 182h341l91 384h205l-88 -384h355l91 384h205l-88 -384h343v-2l-41 -180h-340l-97 -404h342l-42 -182h-337l-80 -348h-218l83 348h-349l-80 -348h-217l83 348h-340zM666 497h350l102 404h-354z" />
    <glyph glyph-name="dollar" unicode="$" horiz-adv-x="1205" 
d="M103 1076q0 60 18 126t64 123t125.5 96t202.5 45v248h192l-2 -268q91 -24 165 -77h2l-7 84h158v-479h-134q-28 172 -105 258.5t-220 86.5q-44 0 -79.5 -13t-60.5 -36.5t-39 -56t-14 -70.5q0 -48 15.5 -84t52 -67.5t96 -63t147.5 -71.5q51 -23 103 -48.5t100.5 -56.5
t91.5 -67.5t74.5 -82t50 -100.5t18.5 -122q0 -80 -26 -148.5t-75.5 -121.5t-122.5 -88t-167 -48l-1 -289h-187l-2 289q-66 10 -132 33.5t-127 60.5h-2l7 -87h-158v479h134q28 -174 121 -259.5t238 -85.5q55 0 97 15.5t71 43t44 65t15 81.5q0 52 -25 88.5t-66 64.5
t-95.5 50.5t-112.5 46.5q-89 36 -169 82t-141 106.5t-97 138.5t-36 179z" />
    <glyph glyph-name="percent" unicode="%" horiz-adv-x="1852" 
d="M84 1059q0 71 26 144t75.5 131.5t121.5 95.5t165 37t164.5 -34.5t120 -90t73.5 -125.5t25 -140q0 -81 -29.5 -155.5t-81.5 -131.5t-121.5 -91t-150.5 -34q-95 0 -167 33t-121.5 88t-74.5 126t-25 147zM262 90l1167 1377l149 -135l-1183 -1366zM335 1089q0 -38 6 -83.5
t21 -84.5t42 -65.5t69 -26.5q37 0 62.5 20.5t40.5 52.5t21.5 70.5t6.5 74.5q0 40 -6.5 86t-22 85t-41.5 65t-65 26t-65 -23.5t-41.5 -57t-21.5 -71.5t-6 -68zM999 361q0 71 26 144t75.5 131.5t123 95.5t163.5 37q93 0 164.5 -34.5t120 -90t73.5 -125.5t25 -140
q0 -81 -29.5 -155.5t-81.5 -131.5t-121.5 -91t-150.5 -34q-95 0 -167 33t-121.5 88t-74.5 126t-25 147zM1250 391q0 -38 6 -83.5t21 -84.5t42 -65.5t69 -26.5q37 0 62.5 20.5t40.5 52.5t21.5 70.5t6.5 74.5q0 40 -6.5 86t-22 85t-41.5 65t-65 26t-65 -23.5t-41.5 -57
t-21.5 -71.5t-6 -68z" />
    <glyph glyph-name="ampersand" unicode="&#x26;" horiz-adv-x="1372" 
d="M48 349q0 69 24 130t66.5 112t101 91t127.5 66q-55 60 -88.5 111t-51.5 96.5t-23.5 88t-5.5 85.5q1 77 29.5 139.5t79.5 106.5t122.5 68t159.5 24q81 0 147 -26t112.5 -70.5t72 -103t25.5 -122.5q0 -63 -24.5 -121t-66 -109t-94.5 -93.5t-110 -75.5q6 -7 36.5 -38.5
t76.5 -77.5t102.5 -101t114.5 -109h2q6 24 8.5 50t2.5 52q0 42 -7 71t-20.5 47.5t-34 27t-47.5 10.5v131h344v-154q-20 1 -50 3.5t-62 4.5v-2q22 -48 22 -125q0 -119 -40 -221l32 -27q39 -33 75.5 -61.5t68.5 -48.5t59 -31.5t48 -11.5v-135h-218q-19 0 -74 30t-128 87
q-81 -72 -188 -111t-239 -39q-89 0 -176.5 22t-156.5 68.5t-111.5 118.5t-42.5 173zM325 400q0 -141 73 -214t203 -73q76 0 140.5 25.5t115.5 70.5l-103 93q-59 53 -106 97.5t-86 84t-72 75.5t-64 72q-29 -24 -48.5 -55t-31 -62.5t-16.5 -61.5t-5 -52zM443 1139q0 -31 9 -68
t24.5 -75t37 -74.5t46.5 -66.5q39 30 67.5 68.5t48 79.5t29 80.5t9.5 71.5q0 75 -35.5 121t-99.5 46q-58 0 -97 -46.5t-39 -136.5z" />
    <glyph glyph-name="quotesingle" unicode="'" horiz-adv-x="386" 
d="M87 1467h212l-18 -461h-175z" />
    <glyph glyph-name="parenleft" unicode="(" horiz-adv-x="607" 
d="M50 489q0 113 20 223.5t54 213.5t80 197t97 175t105 146.5t105 111.5l75 -71q-53 -70 -93 -158t-68.5 -183.5t-47.5 -192.5t-30 -184.5t-15.5 -159.5t-4.5 -118t4.5 -116.5t15.5 -155.5t30 -179t47.5 -186.5t68.5 -179t93 -156.5l-74 -71q-51 47 -105 110.5t-105 141.5
t-97 169t-80.5 191.5t-54.5 209t-20 222.5z" />
    <glyph glyph-name="parenright" unicode=")" horiz-adv-x="607" 
d="M21 -484q53 70 93 158t68.5 183.5t47.5 192.5t30 184.5t15.5 159.5t4.5 118t-4.5 116.5t-15.5 155.5t-30 179t-47.5 186.5t-68.5 179t-93 156.5l74 71q51 -47 105 -110.5t105 -141.5t97 -169t80.5 -191.5t54.5 -209t20 -222.5q0 -113 -20 -223.5t-54 -213.5t-80 -197
t-97 -175t-105 -146.5t-105 -111.5z" />
    <glyph glyph-name="asterisk" unicode="*" horiz-adv-x="1092" 
d="M88 1103q0 30 9.5 50.5t24.5 32.5t33 17.5t35 5.5q27 0 56.5 -7.5t66 -25t81.5 -46t103 -70.5q-30 91 -43.5 154.5t-13.5 105.5q0 27 4 53t16 47t33 34t54 13t53.5 -13t32.5 -34t16 -47t4 -53q0 -43 -13.5 -106t-43.5 -154q59 43 104 71.5t81 45.5t64.5 24t54.5 7
q16 0 34.5 -5.5t34 -17.5t25.5 -32.5t10 -50.5q0 -23 -9.5 -40.5t-25 -31t-36 -23.5t-41.5 -16q-44 -14 -107 -20t-159 -6q78 -57 126 -99.5t73 -76.5q18 -25 31 -52.5t13 -53.5q0 -16 -8 -33t-22 -31.5t-33 -24t-40 -9.5q-35 0 -63.5 23.5t-49.5 53.5q-26 36 -52 95
t-54 150q-30 -92 -56 -150t-52 -93q-23 -31 -50.5 -55t-62.5 -24q-21 0 -39.5 9.5t-32.5 23.5t-22 31.5t-8 33.5q0 29 12.5 58.5t41 63.5t74.5 73t114 87q-98 0 -160.5 6.5t-104.5 20.5q-22 7 -42.5 16.5t-36 23t-25 31t-9.5 40.5z" />
    <glyph glyph-name="plus" unicode="+" horiz-adv-x="1078" 
d="M82 553v195l353 -2v366h202v-366l359 -2v-188l-359 -1v-387h-202v386z" />
    <glyph glyph-name="comma" unicode="," horiz-adv-x="512" 
d="M90 127q0 31 11 59t31 49t48 33.5t63 12.5q46 0 80 -16.5t56.5 -46t34 -69t11.5 -84.5q0 -100 -45.5 -214.5t-142.5 -232.5l-79 57q16 21 36.5 57t38.5 80t30 92.5t12 93.5q-15 -5 -24 -6t-20 -1q-27 0 -52.5 8t-45 24.5t-31.5 42t-12 61.5z" />
    <glyph glyph-name="hyphen" unicode="-" horiz-adv-x="964" 
d="M105 532v221h754v-214z" />
    <glyph glyph-name="period" unicode="." horiz-adv-x="478" 
d="M90 126q0 33 12 62.5t32.5 51.5t47.5 34.5t57 12.5q32 0 59 -12.5t47 -34.5t31 -51.5t11 -62.5t-10.5 -62t-29 -50.5t-45.5 -34t-60 -12.5q-34 0 -62 12.5t-48 34t-31 50.5t-11 62z" />
    <glyph glyph-name="slash" unicode="/" 
d="M52 -450l1143 1997l186 -120l-1170 -1982z" />
    <glyph glyph-name="zero" unicode="0" horiz-adv-x="1302" 
d="M89 711q0 86 16 175.5t47.5 173.5t79 158t111 129.5t143 87.5t174.5 32q99 0 178.5 -31.5t141 -86t105.5 -127.5t72.5 -155.5t42 -171.5t13.5 -174t-15 -174t-46 -172.5t-77.5 -158t-108.5 -130t-141 -87.5t-174 -32q-104 0 -186.5 31.5t-144.5 85.5t-106 126.5
t-72 155.5t-40.5 171.5t-12.5 173.5zM400 753q0 -71 3 -146.5t13 -146.5t28 -134.5t47 -111t71.5 -75t100.5 -27.5q73 0 119.5 46t73 123.5t36.5 180t10 215.5q0 83 -3.5 163t-13.5 151.5t-27 132.5t-44.5 105t-66.5 68.5t-92 24.5q-74 0 -123 -46t-78 -124t-41.5 -181.5
t-12.5 -217.5z" />
    <glyph glyph-name="one" unicode="1" horiz-adv-x="831" 
d="M13 1124l468 343h124v-1131q0 -28 -0.5 -55t-1.5 -51.5t-2.5 -44.5t-3.5 -33l154 6v-158h-588v135q34 2 61.5 6.5t46 22t28.5 52.5t10 97v821l-224 -133z" />
    <glyph glyph-name="two" unicode="2" horiz-adv-x="1091" 
d="M80 0q0 106 28 189.5t73 152t102.5 126t116.5 112.5q74 69 126 131t85 120t48 113t15 111q0 49 -9 96.5t-31.5 85t-60.5 61t-96 23.5q-55 0 -99 -25.5t-66 -60.5q22 -23 31 -53.5t9 -52.5q0 -19 -7.5 -42t-24 -42.5t-43.5 -33t-65 -13.5q-32 1 -56 13t-40.5 32t-25 47
t-8.5 57q0 31 13 67t38.5 71.5t63.5 68t87.5 58t110.5 40.5t133 15q82 0 164.5 -20t148 -66t106.5 -119.5t41 -181.5q0 -52 -18.5 -107.5t-68 -124t-137.5 -154.5t-227 -199q-57 -46 -98 -88.5t-69 -79.5t-43.5 -66.5t-19.5 -49.5l401 -11h16q31 0 57 5.5t44 20.5t28 40.5
t10 66.5h130l-16 -333h-897z" />
    <glyph glyph-name="three" unicode="3" horiz-adv-x="1146" 
d="M72 269q0 31 10.5 59t29 49.5t45 34t59.5 12.5q36 0 60.5 -13t39.5 -32.5t21.5 -42.5t6.5 -44q0 -19 -7.5 -45.5t-24.5 -48.5q10 -19 29 -34t44 -25.5t53.5 -16t57.5 -5.5q64 0 112.5 20.5t81 57t49 86t16.5 107.5q0 54 -14 107t-49 95.5t-93.5 69t-146.5 26.5
q-7 0 -21 -0.5t-30 -1.5t-31 -2t-24 -2v147q11 -2 19 -2h16q152 -3 231.5 67t79.5 200q0 50 -10.5 92.5t-33.5 73t-59 47.5t-87 17q-28 0 -53.5 -7.5t-46.5 -19.5t-37 -27t-25 -31q19 -23 26 -52t7 -49q0 -19 -7.5 -41.5t-24 -42.5t-43 -33.5t-64.5 -13.5q-32 1 -56 13
t-40.5 32t-25 47t-8.5 57q0 45 26.5 100t80.5 102t134.5 79t188.5 32q95 0 178.5 -19t145 -62.5t97 -113t35.5 -169.5q0 -40 -16.5 -88.5t-53 -94t-95 -83t-143.5 -55.5v-2q98 -17 170 -54t119 -87.5t70 -111.5t23 -126q0 -105 -40.5 -186t-113.5 -136t-173.5 -83.5
t-220.5 -28.5q-116 0 -200 27t-138 70.5t-80 97t-26 107.5z" />
    <glyph glyph-name="four" unicode="4" horiz-adv-x="1121" 
d="M25 370v193l703 904h124v-911h200v-186h-200v-34q0 -28 -0.5 -55t-1.5 -51.5t-2.5 -44.5t-3.5 -33l154 6v-158h-585v135q34 2 61.5 6.5t46 22t28.5 52.5t10 97v57h-534zM215 561h344v450z" />
    <glyph glyph-name="five" unicode="5" horiz-adv-x="1106" 
d="M90 247q0 31 10 59t28.5 50t44.5 35t59 13q37 0 61.5 -13t39.5 -32.5t21.5 -42.5t6.5 -44q0 -17 -5.5 -40.5t-17.5 -43.5q7 -17 25 -31t41 -24t48 -15.5t46 -5.5q61 0 104 26t70 67t39.5 93t12.5 105q0 31 -2 69t-10 77.5t-24 77t-43 66.5t-67.5 47t-98.5 18
q-45 0 -109.5 -16.5t-136.5 -58.5l-88 67l-7 684h530q35 0 63.5 4.5t49 19t31.5 40.5t11 69h130l-16 -333l-643 -11v-365q23 10 53.5 19t63.5 15.5t67 10.5t65 4q127 0 220.5 -37.5t155 -101t91.5 -147t30 -174.5q0 -119 -45 -209t-119 -150t-168.5 -90.5t-194.5 -30.5
q-101 0 -179.5 25.5t-132.5 65.5t-82.5 90t-28.5 99z" />
    <glyph glyph-name="six" unicode="6" horiz-adv-x="1178" 
d="M94 660q0 59 9.5 141.5t33 172.5t64 178t103 158t149 113.5t202.5 43.5q97 0 167.5 -25.5t116.5 -65.5t68 -89t22 -95q0 -27 -8.5 -53.5t-25 -47t-41 -33t-55.5 -12.5q-38 0 -64 12.5t-42 32t-22.5 42t-6.5 43.5q0 17 6 43t23 46q-17 23 -49 40.5t-79 17.5q-52 0 -92 -23
t-70 -62.5t-50.5 -92t-33.5 -111t-19.5 -119.5t-8.5 -117q18 21 48.5 41.5t69 37t80.5 26.5t82 10q109 0 188 -35t130.5 -98t76 -150t24.5 -190q0 -97 -37.5 -183t-104.5 -150.5t-159.5 -102t-201.5 -37.5q-137 0 -231 48.5t-152.5 139t-84 218.5t-25.5 287zM392 615
q0 -48 4 -104t13.5 -112t25 -108t38.5 -92t54 -64t71 -24q54 0 89 23.5t55.5 62.5t29 89t8.5 103q0 31 -2 69.5t-8 78.5t-18 78.5t-32.5 68.5t-51 48t-72.5 18q-32 0 -63 -10.5t-58 -29t-48.5 -43t-34.5 -52.5z" />
    <glyph glyph-name="seven" unicode="7" horiz-adv-x="960" 
d="M30 1085l16 349h872v-186q-69 -142 -119 -274.5t-90.5 -267.5t-76.5 -278t-76 -306q-7 -29 -19.5 -56.5t-30.5 -49.5t-42 -35.5t-54 -13.5q-33 0 -55 10.5t-35.5 28t-19.5 39t-6 44.5q0 22 5.5 50t22.5 77t47.5 125.5t80.5 195.5t123 288t173 401l-431 5h-11
q-33 0 -59.5 -7.5t-45 -24.5t-29 -45t-10.5 -69h-130z" />
    <glyph glyph-name="eight" unicode="8" horiz-adv-x="1172" 
d="M115 323q0 59 23 114.5t61 105t86.5 90t99.5 69.5v2q-68 43 -115 90.5t-76.5 96t-42.5 96t-13 89.5q0 100 43 173.5t110.5 122t149.5 72t161 23.5t155.5 -23t135.5 -67t95.5 -109t36.5 -149q0 -53 -22 -102.5t-57 -92.5t-78.5 -78.5t-86.5 -60.5v-2q157 -97 231 -205
t74 -226q0 -100 -42 -172.5t-112 -120t-161.5 -70t-191.5 -22.5q-48 0 -101.5 8t-105 25t-98 44.5t-82 67t-56.5 92t-21 119.5zM364 329q0 -47 17 -87t47 -69t70.5 -45.5t88.5 -16.5t86 15.5t64.5 42.5t40.5 63t14 77q0 38 -13 78.5t-44 81.5t-82 81.5t-127 78.5
q-44 -34 -74.5 -74.5t-50 -81.5t-28.5 -78.5t-9 -65.5zM423 1133q0 -40 18 -79.5t48.5 -75t71.5 -64.5t87 -47q35 26 63.5 58t49 66t31.5 67.5t11 62.5q0 49 -14.5 87t-39.5 63.5t-58.5 38.5t-72.5 13q-45 0 -81 -15.5t-61.5 -41.5t-39 -60.5t-13.5 -72.5z" />
    <glyph glyph-name="nine" unicode="9" horiz-adv-x="1179" 
d="M88 998q0 103 36 189t101 148t155.5 97t200.5 35q137 0 232.5 -52t155.5 -144.5t87 -219.5t27 -277q0 -76 -8.5 -165.5t-30.5 -179t-61.5 -173t-102 -148t-150.5 -103t-208 -38.5q-101 0 -172 23t-116 60.5t-65.5 86t-20.5 99.5q0 27 9.5 54.5t26.5 49t42 35t57 13.5
q38 0 63 -12.5t40 -32t21 -42t6 -43.5q0 -9 -1.5 -20.5t-5.5 -23.5t-9.5 -23.5t-12.5 -19.5q16 -23 48.5 -40.5t78.5 -17.5q73 0 125.5 39.5t86 105.5t49.5 152t16 178v24t-1 24q-18 -21 -48.5 -41.5t-67 -37t-78 -26.5t-81.5 -10q-108 0 -188 35.5t-132.5 99.5t-78 151
t-25.5 191zM398 1045q0 -31 2 -69.5t8.5 -78.5t19 -78.5t33.5 -68.5t51 -48t73 -18q33 0 63.5 10.5t56.5 29t46.5 43t34.5 52.5q0 99 -9.5 190t-33 160.5t-63.5 111.5t-100 42q-47 0 -81 -23.5t-56.5 -62.5t-33.5 -89t-11 -103z" />
    <glyph glyph-name="colon" unicode=":" horiz-adv-x="507" 
d="M105 126q0 33 12 62.5t32.5 51.5t47.5 34.5t57 12.5q32 0 59 -12.5t47 -34.5t31 -51.5t11 -62.5t-10.5 -62t-29 -50.5t-45.5 -34t-60 -12.5q-34 0 -62 12.5t-48 34t-31 50.5t-11 62zM105 951q0 33 12 62.5t32.5 51.5t47.5 34.5t57 12.5q32 0 59 -12.5t47 -34.5t31 -51.5
t11 -62.5t-10.5 -62t-29 -50.5t-45.5 -34t-60 -12.5q-34 0 -62 12.5t-48 34t-31 50.5t-11 62z" />
    <glyph glyph-name="semicolon" unicode=";" horiz-adv-x="546" 
d="M103 127q0 31 11 59t31 49t48 33.5t63 12.5q46 0 80 -16.5t56.5 -46t34 -69t11.5 -84.5q0 -100 -45.5 -214.5t-142.5 -232.5l-79 57q16 21 36.5 57t38.5 80t30 92.5t12 93.5q-15 -5 -24 -6t-20 -1q-27 0 -52.5 8t-45 24.5t-31.5 42t-12 61.5zM134 951q0 33 12 62.5
t32.5 51.5t47.5 34.5t57 12.5q32 0 59 -12.5t47 -34.5t31 -51.5t11 -62.5t-10.5 -62t-29 -50.5t-45.5 -34t-60 -12.5q-34 0 -62 12.5t-48 34t-31 50.5t-11 62z" />
    <glyph glyph-name="less" unicode="&#x3c;" horiz-adv-x="1128" 
d="M79 547v186l922 409v-216l-637 -280v-2l637 -280v-218z" />
    <glyph glyph-name="equal" unicode="=" horiz-adv-x="1181" 
d="M130 349v197l922 -4v-189zM130 730v196l922 -3v-190z" />
    <glyph glyph-name="greater" unicode="&#x3e;" horiz-adv-x="1128" 
d="M127 146v216l637 280v2l-637 280v218l922 -401v-186z" />
    <glyph glyph-name="question" unicode="?" horiz-adv-x="1031" 
d="M75 1163q0 55 32.5 109t89.5 97.5t135 70.5t170 27q121 0 204.5 -28t134.5 -74t73.5 -104.5t22.5 -119.5q0 -72 -31.5 -133t-79 -113.5t-102.5 -97t-102.5 -83.5t-79 -73.5t-31.5 -67.5q0 -26 19.5 -43t61.5 -17q14 0 29.5 1.5t33.5 6.5l32 -105q-26 -14 -53.5 -22.5
t-54 -13.5t-51 -7t-43.5 -2q-33 0 -65 7.5t-57 24.5t-40.5 44t-15.5 66q0 25 6.5 48t25 51t51 64.5t84.5 87.5q36 36 66 71t51.5 74.5t34 85.5t12.5 105q0 48 -8 89t-28 71t-53.5 47t-85.5 17q-25 0 -49 -6t-44.5 -15.5t-36.5 -21t-26 -23.5q21 -21 29.5 -51t8.5 -51
q0 -20 -7.5 -44t-23.5 -45t-41.5 -35.5t-60.5 -14.5t-61 11t-43 30.5t-25 46.5t-8 58zM358 126q0 33 12 62.5t32.5 51.5t47.5 34.5t57 12.5q32 0 59 -12.5t47 -34.5t31 -51.5t11 -62.5t-12.5 -62t-33.5 -50.5t-48 -34t-56 -12.5q-30 0 -56.5 12.5t-47 34t-32 50.5t-11.5 62z
" />
    <glyph glyph-name="at" unicode="@" horiz-adv-x="1624" 
d="M97 525q0 87 22 178.5t65.5 178t107.5 163.5t148.5 134.5t189 91t227.5 33.5q110 0 203 -26.5t167.5 -73t131 -109.5t94 -137t56.5 -155.5t19 -164.5q0 -84 -17.5 -153t-47.5 -124t-70 -95.5t-84 -67.5t-90 -40t-89 -13q-36 0 -73 9t-67 33.5t-48.5 68t-18.5 113.5
q0 10 0.5 20t1.5 21q-28 -69 -60 -117.5t-66 -79t-69 -44t-68 -13.5q-43 0 -82.5 17t-69.5 53t-48 92t-18 135q0 100 30.5 196.5t90 173t147.5 123.5t203 47q45 0 110.5 -10.5t134.5 -32.5q-6 -46 -13 -100t-14.5 -110t-14.5 -112t-12.5 -105.5t-8.5 -90.5t-3 -67
q0 -23 3.5 -44.5t12.5 -38.5t23.5 -27.5t35.5 -10.5q40 0 71.5 19.5t54.5 51.5t39 73.5t26 85t14 86.5t4 79q0 140 -41 247.5t-112.5 181t-169 111t-210.5 37.5q-88 0 -165.5 -26t-142.5 -72t-117 -110t-88 -139t-55 -159.5t-19 -172.5q0 -155 49 -274.5t133 -200.5
t196.5 -123t238.5 -42q62 0 129 13.5t132 40t125 67t109 94.5l46 -55q-121 -135 -271.5 -197.5t-319.5 -62.5q-121 0 -222 27.5t-181.5 76t-141.5 116.5t-101.5 148.5t-61 172t-20.5 187.5zM648 446q0 -72 18.5 -110.5t50.5 -38.5q26 0 52.5 27.5t51 73.5t46 105.5t38 125
t27.5 131.5t14 124q-26 8 -59 8q-39 0 -71.5 -19t-58.5 -51.5t-46.5 -76t-34.5 -93t-21 -102.5t-7 -104z" />
    <glyph glyph-name="A" unicode="A" horiz-adv-x="1368" 
d="M8 0v141q43 0 72.5 19.5t51.5 51.5t39 74.5t34 88.5l400 1095h142l437 -1116q6 -15 14.5 -40t17.5 -53.5t16 -57t10 -51.5l118 6v-158h-552v135q55 0 77 21.5t22 58.5q0 21 -6 46.5t-16 54.5l-41 112l-445 -8l-33 -96l-12.5 -35t-17 -44.5t-19 -46t-16.5 -40.5l146 6
v-164h-439zM451 573h341l-93 257q-27 75 -48 148.5t-31 130.5h-2q-8 -35 -25 -104t-50 -166z" />
    <glyph glyph-name="B" unicode="B" horiz-adv-x="1354" 
d="M102 0v135q34 2 61.5 6.5t46 22t28.5 52.5t10 97v785q0 28 0.5 55t1.5 51.5t2.5 44.5t3.5 33l-154 -6v158l568 4q119 0 215.5 -21.5t165 -65t105.5 -109.5t37 -156q0 -52 -17 -96t-52.5 -85t-91 -74.5t-132.5 -54.5v-2q102 -16 176.5 -51.5t123.5 -84t73 -108t24 -123.5
q0 -100 -37.5 -176t-104 -127.5t-157.5 -77.5t-199 -26h-697zM536 145q54 0 103 0.5t97 2.5q62 3 107 23.5t74 55.5t43 82.5t14 104.5q0 70 -22.5 117.5t-60 76.5t-85 41t-96.5 12q-97 0 -166 -2v-333q0 -28 -0.5 -54.5t-1.5 -50.5t-2.5 -43.5t-3.5 -32.5zM544 804l107 3
q65 1 109 23t71 59.5t38.5 86.5t11.5 106q0 62 -19.5 103t-50 65t-69.5 34t-78 10q-25 -1 -47 -6t-38 -22.5t-25.5 -51t-9.5 -92.5v-318z" />
    <glyph glyph-name="C" unicode="C" horiz-adv-x="1410" 
d="M72 696q0 93 20 186.5t59.5 179t99.5 159.5t139.5 129t179 86t218.5 31q40 0 84.5 -6.5t90.5 -19.5t91 -31.5t86 -43.5h2l-7 87h158v-479h-134q-28 171 -113 257.5t-231 86.5q-107 0 -186.5 -49t-131.5 -130t-77.5 -185.5t-25.5 -215.5q0 -133 28.5 -244t83 -191.5
t134.5 -125t184 -44.5q64 0 129 17t126 49.5t115.5 79.5t97.5 106l98 -90q-75 -104 -157 -168t-163 -99.5t-157 -48t-139 -12.5q-159 0 -288.5 56.5t-221.5 155t-142 231.5t-50 286z" />
    <glyph glyph-name="D" unicode="D" horiz-adv-x="1555" 
d="M102 0v135q34 2 61.5 7t46 22t28.5 52t10 97v785q0 28 0.5 55t1.5 51.5t2.5 44.5t3.5 33l-154 -6v158l597 2q135 0 245.5 -28t197.5 -78t151 -118t106 -146.5t62.5 -164t20.5 -170.5q0 -83 -19 -169.5t-59.5 -168t-103.5 -153t-151 -125t-202.5 -84.5t-257.5 -31h-587z
M536 152q15 1 40.5 1t54 -1t56 -1.5t45.5 -0.5q112 0 192.5 45.5t132.5 121t77 172.5t25 199q0 157 -32.5 271t-93 188.5t-146.5 111.5t-192 40h-12q-31 0 -55 -4q-28 -5 -46.5 -23t-28 -53t-9.5 -94v-789q0 -28 -0.5 -55t-1.5 -51.5t-2.5 -44.5t-3.5 -33z" />
    <glyph glyph-name="E" unicode="E" horiz-adv-x="1278" 
d="M102 0v135q34 2 61.5 7t46 22t28.5 52t10 97v785q0 28 0.5 55t1.5 51.5t2.5 44.5t3.5 33l-154 -6v158h1025l12 -397h-135q0 83 -23.5 135t-59.5 81t-80 39q-40 9 -78 9h-8l-74 -2q-32 -1 -57.5 -6.5t-43 -23.5t-27 -53t-9.5 -95v-307h241l-9 177h158v-498h-135
q0 64 -16 101t-43 55q-28 17 -64 21q-28 3 -60 3h-18l-54 -1v-336q0 -28 -0.5 -54.5t-1.5 -50.5t-2.5 -43.5t-3.5 -32.5l275 1q45 0 90 15t80 49.5t57 91t22 139.5h135l-12 -451h-1081z" />
    <glyph glyph-name="F" unicode="F" horiz-adv-x="1169" 
d="M102 0v135q34 2 61.5 7t46 22t28.5 52t10 97v785q0 28 0.5 55t1.5 51.5t2.5 44.5t3.5 33l-154 -6v158h1025l12 -397h-135q0 83 -23.5 135t-59.5 81t-80 39q-40 9 -78 9h-8l-74 -2q-32 -1 -57.5 -6.5t-43 -23.5t-27 -53t-9.5 -95v-357h212l-9 177h158v-498h-135
q0 64 -16 101t-43 55q-27 17 -63 21q-28 3 -61 3h-18l-25 -1v-286q0 -28 -0.5 -55t-1.5 -51.5t-2.5 -44.5t-3.5 -33l182 6v-158h-616z" />
    <glyph glyph-name="G" unicode="G" horiz-adv-x="1545" 
d="M73 696q0 93 19.5 186.5t59 179t98.5 159.5t138.5 129t178.5 86t218 31q40 0 90.5 -6.5t103 -19.5t103 -31.5t91.5 -43.5h2l-7 87h158v-479h-134q-14 86 -48 150.5t-84 107.5t-113 64.5t-135 21.5q-107 0 -186 -49t-130.5 -130t-76.5 -185.5t-25 -215.5
q0 -133 27.5 -244.5t81.5 -192.5t133.5 -126t184.5 -45q30 0 68 3.5t78 10t77.5 17t66.5 24.5v190q0 28 0.5 55t1.5 51.5t2.5 44.5t3.5 33l-154 -6v158h544v-135q-35 -2 -60.5 -8t-42 -24.5t-25 -53t-8.5 -92.5v-329h-50q-59 0 -117.5 -16t-123.5 -35t-141 -35t-170 -16
q-167 0 -297 56.5t-219 155t-135.5 231.5t-46.5 286z" />
    <glyph glyph-name="H" unicode="H" horiz-adv-x="1652" 
d="M102 0v135q34 2 61.5 6.5t46 22t28.5 52.5t10 97v785q0 28 0.5 55t1.5 51.5t2.5 44.5t3.5 33l-154 -6v158h588v-135q-35 -2 -62 -7t-45.5 -22t-28.5 -52t-10 -97v-321h564v298q0 28 0.5 55t1.5 51.5t2.5 44.5t3.5 33l-154 -6v158h588v-135q-35 -2 -62 -7t-45.5 -22
t-28.5 -52t-10 -97v-785q0 -28 -0.5 -55t-1.5 -51.5t-2.5 -44.5t-3.5 -33l154 6v-158h-588v135q34 2 61.5 6.5t46 22t28.5 52.5t10 97v332l-564 -7v-302q0 -28 -0.5 -55t-1.5 -51.5t-2.5 -44.5t-3.5 -33l154 6v-158h-588z" />
    <glyph glyph-name="I" unicode="I" horiz-adv-x="792" 
d="M102 0v135q34 2 61.5 6.5t46 22t28.5 52.5t10 97v785q0 28 0.5 55t1.5 51.5t2.5 44.5t3.5 33l-154 -6v158h588v-135q-35 -2 -62 -7t-45.5 -22t-28.5 -52t-10 -97v-785q0 -28 -0.5 -55t-1.5 -51.5t-2.5 -44.5t-3.5 -33l154 6v-158h-588z" />
    <glyph glyph-name="J" unicode="J" horiz-adv-x="924" 
d="M2 186q0 34 9.5 65t29 54.5t47.5 37.5t66 14q36 0 61.5 -12t42.5 -31.5t25 -44.5t8 -50q0 -17 -5 -35.5t-13 -35.5q4 -10 12.5 -16.5t17.5 -10.5t18 -5.5t14 -1.5q44 0 67.5 38t23.5 125v821q0 28 0.5 55t1.5 51.5t2.5 44.5t3.5 33l-154 -6v158h588v-135q-35 -2 -62 -7
t-45.5 -22t-28.5 -52t-10 -97v-600q0 -148 -28 -253t-82 -172t-134 -98t-183 -31q-60 0 -113.5 16.5t-93.5 45.5t-63 69t-23 88z" />
    <glyph glyph-name="K" unicode="K" horiz-adv-x="1459" 
d="M102 0v135q34 2 61.5 6.5t46 22t28.5 52.5t10 97v785q0 28 0.5 55t1.5 51.5t2.5 44.5t3.5 33l-154 -6v158h588v-135q-35 -2 -62 -7t-45.5 -22t-28.5 -52t-10 -97v-312h149l156 268q18 31 37 63t38 60t35.5 49.5t30.5 32.5v2l-130 -8v158h501v-135q-35 -2 -72.5 -9.5
t-78 -29t-82.5 -62.5t-84 -109l-196 -314v-3q42 -25 73 -54.5t55 -63.5l211 -297q31 -44 64 -83.5t67 -69.5t68.5 -48.5t69.5 -20.5v-135h-316q-13 1 -38 22.5t-54 52.5t-58 67t-50 66l-202 295q-14 19 -29 40t-31 40.5t-31 36t-29 26.5l-74 -1v-309q0 -28 -0.5 -55
t-1.5 -51.5t-2.5 -44.5t-3.5 -33l154 6v-158h-588z" />
    <glyph glyph-name="L" unicode="L" horiz-adv-x="1238" 
d="M102 0v135q34 2 61.5 6.5t46 22t28.5 52.5t10 97v785q0 28 0.5 55t1.5 51.5t2.5 44.5t3.5 33l-154 -6v158h588v-135q-35 -2 -62 -7t-45.5 -22t-28.5 -52t-10 -97v-785q0 -28 -0.5 -54.5t-1.5 -50.5t-2.5 -43.5t-3.5 -32.5l275 1q121 0 190 83.5t69 251.5h136l-12 -491
h-1092z" />
    <glyph glyph-name="M" unicode="M" horiz-adv-x="1990" 
d="M96 0v135q34 2 61 7t45.5 22t28.5 52t11 97l12 785q0 28 1 55t2 51.5t2.5 44.5t3.5 33l-155 -6v158h453l310 -793q14 -36 30.5 -81t32.5 -90t29.5 -85.5t21.5 -66.5h2q26 71 48.5 137.5t48.5 132.5l316 846h473v-135q-35 -2 -62.5 -7t-47 -22t-29.5 -52q-8 -29 -7 -76
v-21l31 -785q1 -28 0.5 -55t-1.5 -51.5t-3 -44.5t-4 -33l154 6v-158h-569v135q34 2 62 7t47.5 22t29.5 52q8 29 7 76v21l-17 434q-1 18 -3 58.5t-4.5 90.5t-5 104.5t-4.5 101.5h-2l-419 -1122h-191l-275 674q-12 28 -30.5 76.5t-38.5 109.5t-39.5 131.5t-35.5 144.5h-2
q3 -115 5 -216q1 -67 1 -131v-63l-3 -370q0 -28 -0.5 -55t-2 -51.5t-3 -44.5t-3.5 -33l155 6v-158h-467z" />
    <glyph glyph-name="N" unicode="N" horiz-adv-x="1583" 
d="M99 1276v158h321l626 -790q52 -66 85.5 -113.5t57.5 -82.5h2v650q0 28 0.5 55t1.5 51.5t2.5 44.5t3.5 33l-154 -6v158h466v-135q-35 -2 -62 -7t-45.5 -22t-28.5 -52t-10 -97v-1141h-174l-655 837q-52 67 -112 153h-2l3 -634q0 -28 -0.5 -55t-1.5 -51.5t-2.5 -44.5
t-3.5 -33l154 6v-158h-467v135q34 2 61.5 6.5t46 22t28.5 52.5t10 97l-5 785q0 28 0.5 55t1.5 51.5t2.5 44.5t3.5 33z" />
    <glyph glyph-name="O" unicode="O" horiz-adv-x="1574" 
d="M72 717q0 86 19.5 175t59 172t99 156.5t139.5 128.5t180.5 86.5t221.5 31.5q124 0 225.5 -32t180.5 -87t136.5 -128.5t95.5 -156.5t56 -172t18 -174t-19.5 -173.5t-59 -171.5t-99 -157t-139.5 -129t-180 -87t-221 -32q-130 0 -233 31t-182.5 84.5t-136 126t-92 156
t-52.5 173.5t-17 179zM394 741q0 -65 9 -136t29 -140.5t52 -132.5t77.5 -110.5t106.5 -76t138 -28.5q71 0 126 24.5t96.5 66.5t70.5 98t47 118.5t26 129t8 128.5q0 138 -24 254.5t-74 201t-126 132t-180 47.5q-73 0 -129.5 -24.5t-99 -67.5t-71.5 -99.5t-47.5 -120.5
t-26.5 -131.5t-8 -132.5z" />
    <glyph glyph-name="P" unicode="P" horiz-adv-x="1308" 
d="M102 0v135q34 2 61.5 6.5t46 22t28.5 52.5t10 97v785q0 28 0.5 55t1.5 51.5t2.5 44.5t3.5 33l-154 -6v158l583 4h10q127 0 231 -25q108 -26 185.5 -80.5t119.5 -139.5t42 -204q1 -86 -34 -167.5t-106.5 -147.5t-180.5 -108t-259 -47q-24 -1 -43.5 -1.5t-37 -0.5h-34
t-34.5 1v-181q0 -56 -2 -107.5t-6 -77.5l174 6v-158h-608zM544 671q22 -2 45 -4t47 -2q84 0 145 21.5t100 63.5t57.5 103t18.5 139q0 68 -13 117t-35 82.5t-50.5 54t-59 31t-61 14t-56.5 3.5q-33 0 -58.5 -5t-43 -22t-27 -49t-9.5 -86v-461z" />
    <glyph glyph-name="Q" unicode="Q" horiz-adv-x="1576" 
d="M73 717q0 86 19.5 175t59 172t99 156.5t139.5 128.5t180.5 86.5t221.5 31.5q124 0 225.5 -32t180.5 -87t136.5 -128.5t95.5 -156.5t56 -172t18 -174q0 -102 -29 -208.5t-86.5 -202t-144.5 -173t-202 -120.5v-2q44 0 80.5 -4t70.5 -16t68.5 -35t75.5 -60
q70 -66 112.5 -106.5t70 -62t50 -29t56.5 -7.5v-137h-88q-71 0 -118.5 3t-85 14t-72 33.5t-77.5 60.5q-65 57 -115 111.5t-96.5 97t-95.5 68t-112 25.5q-126 0 -226.5 31t-177.5 85t-131.5 127t-89.5 156t-51.5 173t-16.5 178zM395 741q0 -65 9 -136t29 -140.5t52 -132.5
t77.5 -110.5t106.5 -76t138 -28.5q71 0 126 24.5t96.5 66.5t70.5 98t47 118.5t26 129t8 128.5q0 138 -24 254.5t-74 201t-126 132t-180 47.5q-73 0 -129.5 -24.5t-99 -67.5t-71.5 -99.5t-47.5 -120.5t-26.5 -131.5t-8 -132.5z" />
    <glyph glyph-name="R" unicode="R" horiz-adv-x="1404" 
d="M102 0v135q34 2 61.5 6.5t46 22t28.5 52.5t10 97v785q0 28 0.5 55t1.5 51.5t2.5 44.5t3.5 33l-154 -6v158l583 4q133 0 240.5 -22t184.5 -72.5t118 -131.5t41 -199v-6q0 -65 -21 -125q-22 -64 -66.5 -117t-112 -95t-159.5 -68v-2q38 -15 76 -51t65 -77l96 -145
q34 -51 61 -87t52.5 -59t53 -34t62.5 -12v-135h-337q-36 26 -73 76t-78 117l-150 245q-26 42 -47 70t-39 50q-17 -1 -30 -1h-26h-24.5t-27.5 1v-221q0 -56 -2 -107.5t-6 -77.5l174 6v-158h-608zM544 712q24 -3 49 -5t51 -2q85 0 145 18.5t98 57t56 96.5t18 136
q0 66 -15 112.5t-39 77.5t-54.5 49t-61.5 27.5t-59.5 12t-49.5 2.5q-33 0 -58.5 -5t-43 -22t-27 -49t-9.5 -86v-420z" />
    <glyph glyph-name="S" unicode="S" horiz-adv-x="1225" 
d="M89 1076q0 42 10.5 87.5t33 89t59.5 82.5t90.5 68.5t124 46.5t161.5 17q40 0 86 -6.5t92 -18.5t88.5 -30.5t76.5 -42.5h2l-7 84h158v-479h-134q-28 175 -119.5 260t-235.5 85q-44 0 -83.5 -13t-70 -36.5t-48.5 -56t-18 -70.5q0 -48 20 -86t61 -71t103 -64t147 -65
q51 -21 106 -46t107 -55.5t98.5 -68t81 -83.5t55 -101.5t20.5 -122.5q0 -91 -37.5 -167t-106.5 -130.5t-166 -85t-216 -30.5q-40 0 -85 6.5t-91 19t-91.5 31.5t-86.5 44h-2l7 -87h-158v479h134q14 -86 48 -150.5t83.5 -108t112.5 -65t135 -21.5q55 0 100.5 15t78 41.5
t50.5 61.5t18 75q0 54 -29.5 93t-77 68.5t-106 53t-116.5 46.5q-99 40 -184 86t-147 106t-97 137t-35 178z" />
    <glyph glyph-name="T" unicode="T" horiz-adv-x="1331" 
d="M32 970l12 464h1241l12 -464h-135q0 164 -67 246q-66 82 -183 81h-3l-98 -1v-960q0 -28 -0.5 -55t-1.5 -51.5t-2.5 -44.5t-3.5 -33l164 6v-158h-598v135q34 1 61.5 6.5t46 22.5t28.5 52t10 97v981h-95q-117 0 -184.5 -79t-68.5 -245h-135z" />
    <glyph glyph-name="U" unicode="U" horiz-adv-x="1556" 
d="M53 1276v158h589v-135q-35 -2 -62 -7t-45.5 -22t-28.5 -52t-10 -97v-563q0 -134 29.5 -218.5t77.5 -132.5t109.5 -66t125.5 -18q80 0 143.5 27t107.5 81.5t67 137t23 192.5v537q0 28 0.5 55t1.5 51.5t2.5 44.5t3.5 33l-154 -6v158h474v-135q-35 -2 -62 -7t-45.5 -22
t-28.5 -52t-10 -97v-513q0 -177 -43.5 -299t-120 -198t-181 -110t-227.5 -34q-116 0 -204.5 22.5t-154 64t-110 99.5t-71.5 128.5t-38.5 151.5t-11.5 169v496q0 28 0.5 55t1.5 51.5t2.5 44.5t3.5 33z" />
    <glyph glyph-name="V" unicode="V" horiz-adv-x="1449" 
d="M17 1276v158h603v-135h-11q-55 0 -89.5 -20t-34.5 -67q0 -30 16 -71l189 -464q18 -42 32.5 -78.5t27.5 -70.5t26.5 -68.5t29.5 -73.5h2q23 61 48 136t51 145l155 429q6 17 15 42t20 52t23.5 51.5t25.5 40.5v2l-157 -8v158h461v-135q-34 -2 -64 -14t-56.5 -38t-50.5 -67
t-46 -100l-409 -1092h-168l-472 1099q-11 25 -21.5 52.5t-18.5 54t-13 49.5t-5 39z" />
    <glyph glyph-name="W" unicode="W" horiz-adv-x="2080" 
d="M27 1276v158h603v-135h-12q-56 0 -87.5 -19.5t-31.5 -69.5q-1 -14 2 -30t8 -35l123 -468q9 -35 17.5 -66t17 -64.5t17 -72t17.5 -87.5h2q5 18 14 52.5t20.5 76t24 86.5t24 85.5t20.5 72t14 46.5l190 628h185l232 -755q22 -72 39.5 -144.5t34.5 -150.5h2q18 69 38 138.5
t40 144.5l114 429q14 49 34 100.5t50 85.5v2l-157 -8v158h461v-135q-34 -2 -65 -14t-58.5 -37.5t-51 -66.5t-42.5 -101l-335 -1092h-181l-243 733q-27 81 -43.5 156.5t-30.5 145.5h-2q-11 -70 -25.5 -134t-35.5 -133l-233 -768h-178l-365 1103q-11 25 -21.5 52t-18.5 52.5
t-13 47.5t-5 39z" />
    <glyph glyph-name="X" unicode="X" 
d="M28 1276v158h624v-135q-66 0 -96.5 -15t-30.5 -45q0 -17 10.5 -37t27.5 -43l180 -232h2l156 216q21 29 37.5 50t30.5 36.5t26.5 28t25.5 24.5v2l-153 -8v158h466v-135q-36 -5 -70.5 -21t-70 -44t-72 -69.5t-77.5 -97.5l-197 -269l386 -491q35 -45 62.5 -83t44.5 -72l83 6
v-158h-612v135q63 0 88.5 13.5t25.5 36.5q0 18 -13 41t-33 49l-208 264h-2l-179 -248q-21 -29 -37 -50t-28.5 -37t-24 -28t-23.5 -24v-2l146 8v-158h-451v135q58 13 118 65.5t136 153.5l238 318l-330 417q-35 45 -61.5 96.5t-41.5 96.5z" />
    <glyph glyph-name="Y" unicode="Y" horiz-adv-x="1365" 
d="M7 1276v158h603v-135q-6 0 -11.5 0.5t-11.5 0.5q-57 0 -90 -20.5t-33 -60.5q1 -17 6 -36.5t19 -41.5l157 -257l21 -36t29.5 -52.5t30 -57.5t22.5 -51h3q10 23 34 72.5t62 127.5l106 209q8 16 21 41t28 52t30 52t29 41v2l-157 -8v158h452v-135q-36 -6 -65.5 -20
t-56.5 -39.5t-53.5 -64.5t-56.5 -95l-267 -512v-232q0 -28 -0.5 -55t-1.5 -51.5t-2.5 -44.5t-3.5 -33l164 6v-158h-598v135q34 1 61.5 6.5t46 22.5t28.5 52t10 97v179l-378 595q-15 24 -29 51t-25 53.5t-17.5 50t-6.5 40.5z" />
    <glyph glyph-name="Z" unicode="Z" horiz-adv-x="1237" 
d="M82 0v154l613 934q38 58 71.5 105.5t71.5 95.5v2l-351 9q-57 0 -104.5 -15.5t-82 -51.5t-53.5 -94t-19 -142h-135l12 437h1042v-154l-590 -892q-44 -66 -87 -127t-89 -115v-2l374 -8q57 0 104.5 16t82 51.5t53.5 93t19 141.5h135l-12 -438h-1055z" />
    <glyph glyph-name="bracketleft" unicode="[" horiz-adv-x="791" 
d="M127 -522l2 2068h655v-145l-390 -6l-9 -1766l403 -6v-145h-661z" />
    <glyph glyph-name="backslash" unicode="\" 
d="M51 1427l1170 -1982l159 105l-1143 1997z" />
    <glyph glyph-name="bracketright" unicode="]" horiz-adv-x="791" 
d="M3 1401v145h661l-2 -2068h-655v145l390 6l9 1766z" />
    <glyph glyph-name="asciicircum" unicode="^" horiz-adv-x="1686" 
d="M123 904l631 563h182l627 -573h-281l-445 422h-2l-444 -412h-268z" />
    <glyph glyph-name="underscore" unicode="_" horiz-adv-x="1704" 
d="M221 -102l1259 -9v-206h-1259v215z" />
    <glyph glyph-name="grave" unicode="`" horiz-adv-x="578" 
d="M91 1492q0 20 8 40t22 35.5t34 25t43 9.5q35 0 68 -20.5t54 -54.5l168 -286l-94 -83l-249 216q-24 23 -39 54.5t-15 63.5z" />
    <glyph glyph-name="a" unicode="a" horiz-adv-x="1074" 
d="M61 240q0 65 23 117t63.5 93t95.5 71t118.5 50t132.5 31t138 14v107q0 41 -7 75.5t-24 59.5t-45 39q-26 13 -64 13h-6q-42 -2 -78 -17t-62 -42q16 -17 20.5 -39t4.5 -37q0 -22 -8 -44.5t-25 -41t-43 -30.5t-62 -12q-30 1 -54 12.5t-40 30t-24.5 43.5t-8.5 54
q0 60 33.5 110t92 85.5t137.5 55t169 19.5t160.5 -23t119 -71t74 -122t25.5 -176q0 -52 -0.5 -91.5t-0.5 -76t-0.5 -76.5t-0.5 -92q0 -15 -0.5 -36t-1 -45t-2 -49.5t-3.5 -48.5l132 6v-156h-387q-4 29 -5.5 48.5t-2.5 45.5h-2q-70 -70 -146 -98.5t-157 -28.5
q-66 0 -118 20.5t-87.5 57.5t-54.5 86.5t-19 108.5zM353 274q1 -29 11 -49t25.5 -33t36 -19t42.5 -6q48 0 89 20t73 55l1 229q-58 -6 -109 -21t-88.5 -39.5t-59 -58.5t-21.5 -78z" />
    <glyph glyph-name="b" unicode="b" horiz-adv-x="1173" 
d="M-8 1330v155q71 0 125.5 6t93 15t62 19.5t34.5 20.5h111v-599q69 62 140.5 86t135.5 24q92 0 168 -36.5t130.5 -104t84.5 -163.5t30 -215q0 -124 -34 -228.5t-98.5 -180.5t-156.5 -119t-208 -43q-28 0 -64 4.5t-76 18t-80.5 38t-76.5 63.5h-2l-59 -91h-124v1157
q0 37 1.5 85t6.5 94zM418 307q0 -54 14 -90.5t36.5 -58.5t50.5 -31.5t56 -9.5q67 0 111.5 33t71.5 87.5t38 124.5t11 145q0 72 -13 138t-40 116.5t-69.5 80.5t-101.5 30q-51 -2 -94.5 -25.5t-70.5 -61.5v-478z" />
    <glyph glyph-name="c" unicode="c" horiz-adv-x="1060" 
d="M63 490q0 115 39 218.5t109 180.5t168 122.5t217 45.5q97 0 171 -24t123.5 -63t74.5 -89.5t25 -104.5q0 -31 -9.5 -59t-28 -49t-45.5 -33t-61 -12q-38 0 -63 13t-41 32.5t-22.5 43t-6.5 44.5q0 18 6 43.5t19 45.5q-11 20 -28.5 33t-37 21t-39 11t-34.5 3q-52 0 -95 -23.5
t-74.5 -70t-49 -114.5t-17.5 -157q0 -78 14.5 -150t47.5 -127t87 -88t133 -33q41 0 82.5 11.5t79.5 32t72.5 49.5t61.5 64l94 -91q-56 -77 -115 -125.5t-119 -76t-119 -37.5t-115 -10q-104 0 -195.5 35t-160 102t-108.5 164t-40 222z" />
    <glyph glyph-name="d" unicode="d" horiz-adv-x="1221" 
d="M66 486q0 124 36.5 228.5t103 180.5t160 119t207.5 43q57 0 100.5 -11.5t81.5 -25.5v136q0 15 0.5 36t1.5 45t2.5 49.5t3.5 48.5l-144 -6v156q71 0 125.5 6t93 15t62 19.5t34.5 20.5h111v-1217q0 -15 -0.5 -36t-1.5 -45t-2.5 -49.5t-3.5 -48.5l133 6v-156h-389l-11 95h-2
q-68 -71 -140.5 -99.5t-148.5 -28.5q-92 0 -168 36.5t-130.5 104t-84.5 163.5t-30 215zM366 517q0 -66 12 -131t38.5 -116.5t68.5 -83.5t101 -32q52 0 97 27t72 70v616q-22 15 -61 26.5t-84 11.5q-71 -2 -118 -35.5t-75 -88t-39.5 -123.5t-11.5 -141z" />
    <glyph glyph-name="e" unicode="e" horiz-adv-x="1102" 
d="M63 510q0 108 36.5 206.5t103.5 174.5t161.5 121t210.5 45q57 0 113.5 -10t108 -33.5t96 -61.5t76.5 -94q33 -56 51 -132q18 -72 17 -165v-10l-673 -12q0 -84 15.5 -155.5t49.5 -123t89 -81t135 -29.5q31 0 69 8t77.5 26t79.5 47.5t75 72.5l92 -87q-55 -79 -117 -128
t-124.5 -76t-123 -36.5t-112.5 -9.5q-113 0 -206 38t-160 109t-103.5 171t-36.5 225zM377 683h377q-2 63 -15 107t-35.5 71.5t-52.5 39.5t-66 12q-45 0 -80.5 -17t-61.5 -47t-42.5 -72.5t-23.5 -93.5z" />
    <glyph glyph-name="f" unicode="f" horiz-adv-x="755" 
d="M62 853v171h148v60q0 124 28 211.5t80.5 143t127 81.5t166.5 26q72 0 122 -16t81 -42t44.5 -58t13.5 -64q0 -28 -8.5 -53t-25.5 -44t-42 -30t-58 -11q-57 0 -88.5 33t-31.5 85q0 17 5 40q-10 11 -24 14t-22 3q-26 -1 -42 -13t-25 -30t-12.5 -40t-3.5 -44l1 -252h229v-158
l-228 -5l3 -528q0 -15 -0.5 -36.5t-1.5 -46.5t-2.5 -51t-3.5 -49l143 6v-156h-547v133q43 0 67.5 13t36.5 37t15 57.5t3 74.5v541z" />
    <glyph glyph-name="g" unicode="g" horiz-adv-x="1140" 
d="M58 -287q0 32 9.5 65t32 63.5t59.5 58t93 48.5q-42 12 -71 31t-47 42.5t-26 51t-8 56.5q0 26 10 57t33.5 62t61.5 57.5t95 43.5v2q-45 17 -82 45t-63.5 66t-41.5 85t-15 102q0 90 38.5 165t102.5 129t146 84t169 30q27 0 59 -3.5t65 -11t64 -19.5t57 -30q17 47 41 91.5
t56.5 79.5t73 56t89.5 21q69 0 105.5 -36t36.5 -96q0 -19 -6 -40.5t-20.5 -40t-39 -31t-61.5 -12.5q-15 0 -31.5 6.5t-30.5 17t-24 25t-13 30.5q-14 -3 -28 -18t-25.5 -35t-20 -41.5t-11.5 -37.5q60 -51 91 -118.5t31 -145.5q0 -89 -39 -163.5t-103.5 -128.5t-148.5 -84
t-174 -30q-28 0 -60.5 3.5t-63.5 3.5q-45 0 -75.5 -16.5t-30.5 -45.5q0 -19 14 -32t45 -21t81 -13.5t122 -9.5q118 -7 214.5 -25.5t165.5 -55.5t107 -96.5t38 -148.5q0 -58 -24 -107.5t-65.5 -89.5t-98 -70.5t-120.5 -51t-133.5 -31t-137.5 -10.5q-133 0 -222.5 22.5
t-144 60t-77.5 85.5t-23 100zM309 -240q0 -40 19 -72t55 -54.5t86.5 -34.5t113.5 -12q72 0 127.5 15t93 38.5t56.5 52.5t19 58q0 63 -72 95.5t-224 39.5q-23 1 -50 2t-54.5 3t-54.5 4.5t-49 6.5q-34 -26 -50 -66t-16 -76zM381 677q0 -54 11.5 -104t33.5 -88.5t55 -61.5
t75 -23q41 0 72.5 20t53 53t32.5 74.5t11 83.5q0 54 -10.5 105.5t-32 92t-54 65.5t-75.5 25q-41 0 -72.5 -20t-54 -53.5t-34 -77.5t-11.5 -91z" />
    <glyph glyph-name="h" unicode="h" horiz-adv-x="1271" 
d="M37 1330v155q71 0 125.5 6t93 15t62 19.5t34.5 20.5h111v-603q30 24 68.5 44.5t79 36t80 24.5t70.5 9q94 0 159.5 -26.5t107 -81.5t60.5 -141t19 -204v-275q0 -15 -0.5 -36t-1.5 -45t-2.5 -49.5t-3.5 -48.5l133 6v-156h-537v133q43 0 67.5 13t36.5 37t15 57.5t3 74.5
l-1 292q-1 135 -41 198t-125 63q-53 -1 -102.5 -22.5t-84.5 -52.5v-464q0 -15 -0.5 -36t-1.5 -45t-2.5 -49.5t-3.5 -48.5l133 6v-156h-537v133q43 0 67.5 13t36.5 37t15 57.5t3 74.5v842q0 37 1.5 85t6.5 94z" />
    <glyph glyph-name="i" unicode="i" horiz-adv-x="670" 
d="M69 828v155q71 0 125.5 6t93 15t62 19.5t34.5 20.5h111v-715q0 -15 -0.5 -36t-1.5 -45t-2.5 -49.5t-3.5 -48.5l133 6v-156h-537v133q43 0 67.5 13t36.5 37t15 57.5t3 74.5v340q0 37 1.5 85t6.5 94zM214 1393q0 35 12.5 66t34 54t49.5 36t60 13q33 0 61.5 -13t49.5 -36
t32.5 -54t11.5 -66t-11 -65t-30.5 -53t-48 -36t-62.5 -13q-35 0 -64.5 13t-50.5 36t-32.5 53t-11.5 65z" />
    <glyph glyph-name="j" unicode="j" horiz-adv-x="603" 
d="M-180 -387q0 28 9 53t26 44.5t42 31t57 11.5q54 0 86 -34t32 -88q0 -16 -3 -34q5 -4 16.5 -6.5t19.5 -2.5q28 0 45 15.5t26 39t11.5 50t2.5 48.5l-5 914q0 37 1.5 85t6.5 94l-144 -6v155q71 0 125.5 6t93 15t62 19.5t34.5 20.5h111v-1040q0 -142 -33 -247t-91 -174.5
t-137 -103.5t-171 -34q-57 0 -99 14.5t-69.5 38t-41 53.5t-13.5 62zM183 1393q0 35 12.5 66t34 54t49.5 36t60 13q33 0 61.5 -13t49.5 -36t32.5 -54t11.5 -66t-11 -65t-30.5 -53t-48 -36t-62.5 -13q-35 0 -64.5 13t-50.5 36t-32.5 53t-11.5 65z" />
    <glyph glyph-name="k" unicode="k" horiz-adv-x="1216" 
d="M38 1330v155q71 0 125.5 6t93 15t62 19.5t34.5 20.5h111v-934h100l146 170q26 30 43.5 49.5t36.5 36.5v2l-109 -2v156h462v-131q-54 -6 -98.5 -23t-80 -39.5t-63.5 -48.5t-50 -50l-131 -146v-2q16 -8 30.5 -18.5t30 -25t33.5 -35t40 -49.5l137 -179q12 -16 31 -40.5
t43 -47.5t53 -39.5t61 -16.5v-133h-235q-33 0 -60.5 12t-54 34.5t-54 56t-59.5 76.5q-27 36 -57 78t-57.5 82t-51.5 74.5t-39 55.5l-47 -2v-138q0 -15 -0.5 -36t-1.5 -45t-2.5 -49.5t-3.5 -48.5l133 6v-156h-537v133q43 0 67.5 13t36.5 37t15 57.5t3 74.5v842q0 37 1.5 85
t6.5 94z" />
    <glyph glyph-name="l" unicode="l" horiz-adv-x="639" 
d="M37 1330v155q71 0 125.5 6t93 15t62 19.5t34.5 20.5h111v-1217q0 -15 -0.5 -36t-1.5 -45t-2.5 -49.5t-3.5 -48.5l133 6v-156h-537v133q43 0 67.5 13t36.5 37t15 57.5t3 74.5v842q0 37 1.5 85t6.5 94z" />
    <glyph glyph-name="m" unicode="m" horiz-adv-x="1885" 
d="M71 828v155q71 0 125.5 6t93 15t62 19.5t34.5 20.5h101l9 -101h3q30 23 66 44t73.5 36.5t78 24.5t80.5 9q94 0 155.5 -33t98.5 -102q37 31 78 56t84.5 42.5t87 27t84.5 9.5q82 0 145 -22.5t105 -73t63.5 -131.5t21.5 -199v-302q0 -15 -0.5 -36t-1.5 -45t-2.5 -49.5
t-3.5 -48.5l133 6v-156h-517v133q35 0 55.5 13t31 37t13 57.5t2.5 74.5l-1 314q0 69 -12.5 115t-34 73t-52 38t-67.5 11q-52 -1 -94 -20t-77 -47q8 -42 12.5 -90t4.5 -105v-275q0 -15 -0.5 -36t-1.5 -45t-2.5 -49.5t-3.5 -48.5l133 6v-156h-527v133q39 0 61.5 13t33.5 37
t14 57.5t3 74.5l-1 320q0 67 -11 112t-30.5 72t-47 38t-62.5 11q-49 0 -93 -22.5t-77 -52.5v-464q0 -15 -0.5 -36t-1.5 -45t-2.5 -49.5t-3.5 -48.5l123 6v-156h-527v133q43 0 67.5 13t36.5 37t15 57.5t3 74.5v345q0 37 1.5 82.5t6.5 91.5z" />
    <glyph glyph-name="n" unicode="n" horiz-adv-x="1303" 
d="M69 828v155q71 0 125.5 6t93 15t62 19.5t34.5 20.5h101l9 -101h3q30 23 68.5 44t79 36.5t79 24.5t69.5 9q94 0 159.5 -26.5t107 -81.5t60.5 -141t19 -204v-275q0 -15 -0.5 -36t-1.5 -45t-2.5 -49.5t-3.5 -48.5l133 6v-156h-537v133q43 0 67.5 13t36.5 37t15 57.5t3 74.5
l-1 292q-1 135 -41 198t-125 63q-53 0 -102.5 -22t-84.5 -53v-464q0 -15 -0.5 -36t-1.5 -45t-2.5 -49.5t-3.5 -48.5l133 6v-156h-537v133q43 0 67.5 13t36.5 37t15 57.5t3 74.5v345q0 37 1.5 82.5t6.5 91.5z" />
    <glyph glyph-name="o" unicode="o" horiz-adv-x="1159" 
d="M63 489q0 127 41 232t111.5 179.5t164.5 115.5t199 41q110 0 204.5 -36t163.5 -104t108.5 -165.5t39.5 -220.5q0 -129 -37.5 -233.5t-105 -178t-161.5 -113t-206 -39.5q-111 0 -206.5 36.5t-165.5 104t-110 164t-40 217.5zM364 544q0 -79 12.5 -156.5t40 -138.5t71 -99
t105.5 -38q61 1 99.5 34t61 85.5t31 117.5t8.5 131q0 76 -10.5 153.5t-36 139.5t-67 101t-104.5 39q-60 -2 -100 -34.5t-65 -84.5t-35.5 -117.5t-10.5 -132.5z" />
    <glyph glyph-name="p" unicode="p" horiz-adv-x="1231" 
d="M50 828v155q71 0 125 6t92.5 15t62 19.5t34.5 20.5h101l10 -98h3q70 62 140 86.5t134 24.5q92 0 168 -36.5t130.5 -104t84.5 -163.5t30 -215q0 -124 -36.5 -228.5t-103 -180.5t-160 -119t-207.5 -43q-57 0 -100.5 11.5t-81.5 25.5v-197q0 -15 -0.5 -36t-1.5 -45
t-2.5 -49.5t-3.5 -48.5l133 6v-156h-537v133q43 0 67.5 13t36.5 37t15 57.5t3 74.5v867q0 37 1.5 82.5t6.5 91.5zM476 158q10 -8 26.5 -15t36 -12t41.5 -8t44 -3q71 0 117.5 32.5t74 86.5t38.5 124t11 144q0 72 -13 138t-40 116.5t-69.5 80.5t-101.5 30q-51 -2 -94.5 -26
t-70.5 -63v-625z" />
    <glyph glyph-name="q" unicode="q" horiz-adv-x="1174" 
d="M66 486q0 124 36.5 228.5t103.5 180.5t161.5 119t210.5 43q57 0 101 -7t78.5 -16t60.5 -16t47 -7q15 0 36.5 8.5t33.5 24.5h111v-1237q0 -15 -0.5 -36t-1.5 -45t-2.5 -49.5t-3.5 -48.5l133 6v-156h-537v133q42 0 66.5 13t36.5 37t15.5 57.5t3.5 74.5l2 289h-2
q-66 -64 -135 -89.5t-142 -25.5q-92 0 -168 36.5t-130.5 104t-84.5 163.5t-30 215zM366 517q1 -66 13.5 -131.5t38.5 -117t67.5 -84t100.5 -32.5q51 0 97 26.5t73 68.5v481q0 57 -15 92.5t-38.5 54.5t-51.5 25.5t-54 6.5q-68 0 -113 -34t-71 -89.5t-36.5 -125.5t-10.5 -141z
" />
    <glyph glyph-name="r" unicode="r" horiz-adv-x="984" 
d="M69 828v155q71 0 125.5 6t93 15t62 19.5t34.5 20.5h101l9 -176h3q20 27 48.5 60t66 61.5t82.5 48t98 19.5q36 0 68.5 -10t57 -30.5t39 -52.5t14.5 -77q0 -24 -8 -49.5t-25 -46.5t-44.5 -34.5t-66.5 -13.5q-21 0 -43 5.5t-40.5 19t-32 36.5t-16.5 59q-31 0 -62.5 -20.5
t-59 -51t-48.5 -65.5t-30 -63v-334q0 -15 -0.5 -36t-1.5 -45t-2.5 -49.5t-3.5 -48.5l133 6v-156h-537v133q43 0 67.5 13t36.5 37t15 57.5t3 74.5v345q0 37 1.5 82.5t6.5 91.5z" />
    <glyph glyph-name="s" unicode="s" horiz-adv-x="993" 
d="M79 727q0 59 22.5 118t69.5 106t120 76.5t174 29.5q28 0 60.5 -4t65.5 -12.5t64 -21.5t56 -31h2l-3 58h156v-362h-132q-9 53 -33.5 95.5t-61.5 72t-84.5 45.5t-102.5 16q-26 0 -50.5 -6t-43.5 -19t-30 -33.5t-11 -50.5q0 -36 19 -59.5t53 -40.5t79.5 -31.5t98.5 -32.5
q78 -27 144 -59t114 -74.5t75.5 -97t27.5 -126.5q0 -80 -31.5 -139.5t-83.5 -98.5t-119 -58.5t-139 -19.5q-44 0 -88 6t-84 16.5t-73.5 25.5t-57.5 33h-2l7 -62h-156l-8 352h132q4 -47 30 -88t68 -71t98.5 -47t121.5 -17q25 0 50.5 6t45.5 18.5t32.5 31.5t12.5 46
q0 29 -15.5 49.5t-45.5 38t-74.5 34.5t-102.5 40q-64 25 -129 51.5t-118 64.5t-86.5 93.5t-33.5 138.5z" />
    <glyph glyph-name="t" unicode="t" horiz-adv-x="846" 
d="M34 853v171q53 1 99 26.5t82.5 63.5t62 83t37.5 84h151l-1 -257h261v-158l-261 -5q-1 -145 -1.5 -240.5t-1 -153t-0.5 -82v-28.5q0 -36 4.5 -71.5t18 -64t38 -46t63.5 -17.5q13 0 32.5 4t44 16.5t52.5 37t57 65.5l99 -92q-56 -82 -112 -127t-107 -66t-93 -25t-70 -4
q-34 0 -70.5 5.5t-72 20.5t-67 42.5t-56 71.5t-38.5 106.5t-14 147.5l3 494z" />
    <glyph glyph-name="u" unicode="u" horiz-adv-x="1266" 
d="M31 828v155q71 0 125.5 6t93 15t62 19.5t34.5 20.5h112v-627q0 -135 34.5 -198t112.5 -63q25 0 52 7.5t53 21t49.5 31.5t41.5 38v401q0 37 1.5 85t6.5 94l-144 -6v155q71 0 125 6t92.5 15t62 19.5t34.5 20.5h112v-715q-1 -57 -2 -81t-2.5 -49.5t-3.5 -48.5l133 6v-156
h-389l-11 107h-2q-31 -27 -64.5 -52.5t-71 -45t-80 -31t-91.5 -11.5q-91 0 -155.5 26.5t-105.5 81.5t-60 140.5t-19 204.5v235q0 37 1.5 85t6.5 94z" />
    <glyph glyph-name="v" unicode="v" horiz-adv-x="1101" 
d="M12 868v156h480v-131q-38 -2 -53.5 -20.5t-15.5 -47.5q0 -20 5.5 -43t14.5 -49l172 -424h2l149 422q18 50 33.5 81.5t34.5 61.5v2l-127 -8v156h388v-131q-36 -6 -65.5 -33.5t-53 -64.5t-41 -76.5t-29.5 -70.5l-262 -654h-179l-324 710q-17 37 -26 61.5t-13.5 42t-7 32
t-6.5 32.5z" />
    <glyph glyph-name="w" unicode="w" horiz-adv-x="1660" 
d="M16 868v156h491v-131q-43 -3 -60.5 -26t-17.5 -59q-1 -17 2.5 -36t9.5 -39l69 -250q12 -45 23.5 -94.5t18.5 -100.5h2q5 22 10 45t11 49.5t14 58t19 69.5l150 514h222l164 -565q12 -43 25.5 -93t24.5 -92h2q6 42 20.5 90.5t26.5 88.5l79 259q9 28 16 50.5t14.5 41.5
t14.5 36t16 34v2l-118 -8v156h389v-131q-41 0 -72 -27t-53.5 -64t-37 -74t-21.5 -57l-233 -677h-217l-141 437q-6 16 -15 45.5t-18.5 64t-20 71.5t-19.5 70h-2q-6 -43 -19.5 -96.5t-28 -104.5t-27 -92t-18.5 -58l-113 -337h-203l-248 710q-14 39 -22 63t-13.5 41.5
t-8.5 31.5t-7 32z" />
    <glyph glyph-name="x" unicode="x" horiz-adv-x="1122" 
d="M42 868v156h454v-131q-27 -2 -39 -11t-12 -23q0 -16 12 -36t32 -43l95 -110h2l77 93q25 30 49.5 58.5t50.5 52.5v2l-99 -8v156h361v-131q-63 -26 -111.5 -66.5t-94.5 -96.5l-137 -168l238 -277q28 -32 53 -64t45 -69l70 4v-156h-483v131q36 2 52 11.5t16 25.5
q-2 28 -35 64l-121 128h-2l-95 -114q-5 -7 -16.5 -20.5t-25.5 -28.5t-27.5 -28t-22.5 -19v-2l93 8v-156h-339v131q42 17 78 51.5t78 82.5l178 204l-200 236q-13 15 -30.5 36t-35 44t-31.5 46t-20 41z" />
    <glyph glyph-name="y" unicode="y" horiz-adv-x="1128" 
d="M10 868v156h510v-131q-48 -6 -67 -28t-19 -52q0 -19 6 -39.5t15 -40.5l200 -459h2q9 26 22 68t29.5 95.5t36 116t41.5 129.5q6 19 15 44.5t20.5 52.5t24.5 52t27 42v2l-117 -8v156h364v-131q-64 -16 -105.5 -78.5t-73.5 -155.5l-257 -731q-43 -125 -82 -216.5t-82 -150.5
t-95 -87.5t-121 -28.5q-40 0 -74 12t-59 34t-39.5 53t-14.5 69q0 28 10 53.5t27.5 45t42 31t53.5 11.5q21 0 40 -8.5t33.5 -23.5t23 -36t8.5 -46q0 -13 -3 -28v-2q21 0 44 28.5t46.5 75t45 107t39.5 125.5l-325 649q-29 57 -47 99t-28.5 73.5t-15 56.5t-7.5 48z" />
    <glyph glyph-name="z" unicode="z" horiz-adv-x="1053" 
d="M72 0v148l470 621q17 22 34.5 42.5t32 36t25.5 26.5t14 15v2l-277 -4q-36 -1 -61.5 -21.5t-43.5 -55.5t-29.5 -81.5t-19.5 -99.5h-127l29 395h830v-130l-457 -619q-30 -41 -59.5 -71t-55.5 -54v-2l288 -7q48 0 81.5 20t55.5 55.5t35 83t21 102.5h127l-30 -402h-883z" />
    <glyph glyph-name="braceleft" unicode="{" horiz-adv-x="754" 
d="M-6 466v146h47q57 0 95 8.5t60.5 28.5t32 54.5t9.5 87.5q0 81 -10.5 166.5t-10.5 176.5q0 217 116 319.5t349 102.5h57v-144q-13 1 -24.5 1h-22.5q-52 0 -89.5 -9.5t-61.5 -37t-35.5 -76.5t-11.5 -127q0 -27 3.5 -60t7.5 -69.5t7.5 -74t3.5 -72.5q0 -75 -25.5 -135.5
t-71.5 -105t-109 -71.5t-138 -34v-4q74 -9 137 -37.5t109.5 -74t72.5 -107.5t26 -137q0 -39 -3.5 -84.5t-8 -90.5t-8 -84.5t-3.5 -66.5q0 -83 12.5 -135t39 -81t67.5 -39.5t98 -10.5q7 0 13.5 0.5t14.5 0.5v-145h-57q-233 0 -349 111t-116 327q0 45 3.5 97.5t7 105.5t7 103
t3.5 90q0 52 -9.5 88t-32 58t-60.5 31.5t-95 9.5h-47z" />
    <glyph glyph-name="bar" unicode="|" horiz-adv-x="531" 
d="M124 1556h283l-8 -2111h-269z" />
    <glyph glyph-name="braceright" unicode="}" horiz-adv-x="754" 
d="M15 -410q8 0 14.5 -0.5t13.5 -0.5q57 0 98 10.5t67.5 39.5t39 81t12.5 135q0 27 -3.5 66.5t-8 84.5t-8 90.5t-3.5 84.5q0 75 26 137t72.5 107.5t109.5 74t137 37.5v4q-75 7 -138 34t-109 71.5t-71.5 105t-25.5 135.5q0 35 3.5 72.5t7.5 74t7.5 69.5t3.5 60
q0 78 -11.5 127t-35.5 76.5t-61.5 37t-89.5 9.5h-22.5t-24.5 -1v144h57q233 0 349 -102.5t116 -319.5q0 -91 -10.5 -176.5t-10.5 -166.5q0 -53 9.5 -87.5t32 -54.5t60.5 -28.5t95 -8.5h47v-146h-47q-57 0 -95 -9.5t-60.5 -31.5t-32 -58t-9.5 -88q0 -40 3.5 -90t7 -103
t7 -105.5t3.5 -97.5q0 -216 -116 -327t-349 -111h-57v145z" />
    <glyph glyph-name="asciitilde" unicode="~" horiz-adv-x="1106" 
d="M99 466v242q32 26 61.5 46.5t60 34.5t64 21t74.5 7q55 0 96 -11.5t73 -28.5t58.5 -37.5t54 -37.5t59 -28.5t73.5 -11.5q68 0 127.5 26.5t108.5 71.5v-242q-42 -48 -102.5 -77.5t-141.5 -29.5q-51 0 -90.5 11.5t-71.5 28.5t-60 37t-57 37t-61.5 28.5t-73.5 11.5
q-42 0 -76 -8t-64 -21.5t-57 -31.5t-55 -38z" />
    <glyph glyph-name="uni00A0" unicode="&#xa0;" horiz-adv-x="539" 
 />
    <glyph glyph-name="cent" unicode="&#xa2;" horiz-adv-x="1157" 
d="M104 490q0 102 30.5 194.5t86.5 167t135 125.5t176 70l-1 235h181l-2 -229q80 -9 140 -35t100.5 -63.5t60.5 -83.5t20 -95q0 -31 -9.5 -59t-28 -49t-45.5 -33t-61 -12q-38 0 -63 13t-41 32.5t-22.5 43t-6.5 44.5q0 18 6 43.5t19 45.5q-11 20 -28.5 33t-37 21t-39 11
t-34.5 3q-52 0 -95 -23.5t-74.5 -70t-49 -114.5t-17.5 -157q0 -78 14.5 -150t47.5 -127t87 -88t133 -33q41 0 82.5 11.5t79.5 32t72.5 49.5t61.5 64l94 -91q-45 -62 -92 -105.5t-95 -72t-96 -43.5t-95 -21l-1 -254h-169l-1 254q-90 12 -167 52t-134 106t-89.5 156t-32.5 202
z" />
    <glyph glyph-name="sterling" unicode="&#xa3;" horiz-adv-x="1173" 
d="M105 81q0 30 13.5 58.5t37 53.5t56 45t70.5 34q7 13 13.5 31.5t11.5 38.5t8 39.5t3 35.5q0 52 -7 96.5t-18 86.5l-161 -3v171h115q-11 45 -17.5 94.5t-6.5 110.5q0 118 35.5 210t95 155t137.5 96t163 33q95 0 161 -25t107 -63t59.5 -82.5t18.5 -83.5q0 -31 -9 -59
t-26.5 -49t-43 -33t-58.5 -12q-36 0 -61.5 13t-41.5 32t-23.5 40.5t-7.5 39.5q0 27 7.5 55t27.5 52q-10 12 -31.5 22t-56.5 10q-55 0 -92 -25.5t-59.5 -65.5t-32 -89t-9.5 -96q0 -81 9 -150t21 -130h322v-158l-290 -6q3 -15 4.5 -32t1.5 -34q0 -75 -34 -145t-105 -119v-2
q49 20 89 26.5t75 6.5q57 0 101 -16t80 -35.5t66 -35.5t59 -16q23 0 45.5 28.5t26.5 89.5h134q-3 -76 -19.5 -140.5t-46 -112t-72.5 -74t-100 -26.5q-41 0 -79.5 13t-75.5 33t-73 43.5t-74 42.5t-77.5 33t-81.5 16q-9 -38 -26.5 -70.5t-40 -57.5t-49 -39t-53.5 -14
q-32 0 -54 9.5t-35.5 25.5t-19.5 36.5t-6 42.5z" />
    <glyph glyph-name="yen" unicode="&#xa5;" horiz-adv-x="1479" 
d="M65 1276v158h603v-135q-6 0 -11.5 0.5t-10.5 0.5q-57 0 -91.5 -20.5t-34.5 -61.5q0 -32 27 -77l157 -257q7 -12 21 -35.5t29.5 -52t30 -57t22.5 -50.5h3q19 46 96 198l106 209q8 16 21 41t28 52t30 52t29 41v2l-157 -8v158h452v-135q-36 -6 -65.5 -20t-56.5 -39.5
t-53.5 -64.5t-56.5 -95l-203 -383h140v-151h-204v-108h204v-152h-205q-1 -43 -2.5 -78.5t-4.5 -55.5l164 6v-158h-598v135q33 1 58.5 5.5t43.5 19t29 43.5t14 80l-223 -1v159h224v102h-224v158h100l-254 386q-15 24 -29.5 51t-25 53.5t-17 50t-6.5 40.5z" />
    <glyph glyph-name="dieresis" unicode="&#xa8;" horiz-adv-x="874" 
d="M123 1382q0 32 11 60.5t30 49.5t44 33.5t52 12.5q29 0 54 -12.5t43 -33.5t28 -49.5t10 -60.5t-11 -60t-29.5 -49t-43.5 -33t-52 -12q-28 0 -52.5 12t-43 33t-29.5 49t-11 60zM479 1382q0 32 11 60.5t30 49.5t44 33.5t52 12.5q29 0 54 -12.5t43 -33.5t28 -49.5t10 -60.5
t-11 -60t-29.5 -49t-43.5 -33t-52 -12q-28 0 -52.5 12t-43 33t-29.5 49t-11 60z" />
    <glyph glyph-name="copyright" unicode="&#xa9;" horiz-adv-x="1874" 
d="M95 697q0 117 29 225t83 202.5t130 172t170.5 133t204.5 86t232 30.5q123 0 233 -30.5t203 -86.5t167 -134t126 -172.5t79.5 -203t27.5 -225.5q0 -116 -29.5 -223.5t-84 -201t-130.5 -170t-169.5 -131t-201 -84.5t-224.5 -30q-188 0 -344 63t-267.5 175.5t-173 267
t-61.5 337.5zM240 697q0 -99 22 -191t64.5 -172.5t104 -147t140 -114t173 -74t203.5 -26.5q159 0 286.5 57.5t217 156.5t138 230.5t48.5 280.5q0 99 -22 191.5t-64.5 173.5t-103.5 148.5t-138 116t-169.5 75t-198.5 26.5q-105 0 -197.5 -26.5t-170.5 -75t-139.5 -115.5
t-104.5 -148.5t-66 -174t-23 -191.5zM464 693q0 59 13 120t39 118.5t65 107.5t91.5 87.5t118.5 59.5t145 22q69 0 128.5 -14.5t117.5 -56.5q-1 6 -1.5 16t-1 19.5t-0.5 17.5v11h156v-359h-136q-8 61 -29.5 104t-53 69.5t-69.5 38.5t-79 12q-54 0 -101.5 -26t-83 -73
t-55.5 -111.5t-20 -140.5q0 -71 21 -133.5t61 -109t98 -74t132 -27.5q72 0 142.5 38t130.5 112l97 -93q-51 -70 -109 -115.5t-116 -72.5t-112.5 -37.5t-97.5 -10.5q-107 0 -197 39t-155 106.5t-102 159t-37 196.5z" />
    <glyph glyph-name="guillemotleft" unicode="&#xab;" horiz-adv-x="1011" 
d="M41 525v48l547 569l97 -99l-387 -497v-2l380 -476l-96 -94zM491 530v47l349 409l96 -79l-205 -345v-3l202 -346l-95 -80z" />
    <glyph glyph-name="uni00AD" unicode="&#xad;" horiz-adv-x="964" 
d="M105 532v221h754v-214z" />
    <glyph glyph-name="registered" unicode="&#xae;" horiz-adv-x="1874" 
d="M95 697q0 117 29 225t83 202.5t130 172t170.5 133t204.5 86t232 30.5q123 0 233 -30.5t203 -86.5t167 -134t126 -172.5t79.5 -203t27.5 -225.5q0 -116 -29.5 -223.5t-84 -201t-130.5 -170t-169.5 -131t-201 -84.5t-224.5 -30q-188 0 -344 63t-267.5 175.5t-173 267
t-61.5 337.5zM240 697q0 -99 22 -191t64.5 -172.5t104 -147t140 -114t173 -74t203.5 -26.5q159 0 286.5 57.5t217 156.5t138 230.5t48.5 280.5q0 99 -22 191.5t-64.5 173.5t-103.5 148.5t-138 116t-169.5 75t-198.5 26.5q-105 0 -197.5 -26.5t-170.5 -75t-139.5 -115.5
t-104.5 -148.5t-66 -174t-23 -191.5zM534 241v90q24 1 42 4.5t30.5 15.5t19 35.5t6.5 65.5v518q0 40 2 74.5t4 51.5l-104 -4v107l387 1q88 0 160 -15t123.5 -48t79.5 -86.5t28 -131.5q0 -46 -12 -89t-39 -80t-71 -66t-107 -47v-1q26 -11 45 -34.5t37 -52.5l55 -88
q23 -35 40 -59t33 -39.5t33.5 -23t41.5 -8.5v-90h-215q-24 19 -51 51.5t-53 77.5q-46 77 -71 121t-38 67.5t-18 33t-11 17.5q-11 -1 -20.5 -1h-18.5h-18.5t-20.5 1v-141q0 -37 -0.5 -72t-1.5 -52l116 4v-107h-413zM833 731q17 -4 28.5 -5t28.5 -1q103 0 155.5 49.5
t52.5 140.5q0 60 -20 94t-48.5 51t-59.5 21.5t-52 4.5q-42 0 -63.5 -22.5t-21.5 -88.5v-244z" />
    <glyph glyph-name="acute" unicode="&#xb4;" horiz-adv-x="578" 
d="M90 1241l168 286q21 34 53.5 54.5t67.5 20.5q24 0 43.5 -9.5t34 -25t22.5 -35.5t8 -40q0 -32 -15 -63.5t-39 -54.5l-249 -216z" />
    <glyph glyph-name="cedilla" unicode="&#xb8;" horiz-adv-x="665" 
d="M92 -424q16 3 40.5 8t52 12.5t55 17.5t49.5 23.5t35.5 30.5t13.5 38q0 27 -17 38t-40 11t-45.5 -8t-36.5 -19l-76 32l63 260h156l-60 -161h2q13 7 31 13t37.5 10t38 6.5t33.5 2.5q31 -1 58.5 -9.5t47.5 -26t31.5 -44t11.5 -63.5q0 -48 -23.5 -85.5t-62 -66.5t-88 -50.5
t-101 -36.5t-101.5 -24.5t-89 -14.5z" />
    <glyph glyph-name="guillemotright" unicode="&#xbb;" horiz-adv-x="1011" 
d="M75 201l205 345v3l-202 346l95 80l347 -397v-47l-349 -409zM326 65l387 497v2l-380 476l96 94l541 -551v-48l-547 -569z" />
    <glyph glyph-name="circumflex" unicode="&#x2c6;" horiz-adv-x="879" 
d="M90 1264l350 339h21l328 -347l-88 -105l-261 214h-2l-262 -199z" />
    <glyph glyph-name="ring" unicode="&#x2da;" horiz-adv-x="734" 
d="M125 1389q0 51 20 94.5t53.5 76t77 50.5t90.5 18q43 0 86.5 -14t78 -42.5t56.5 -72t22 -102.5q0 -56 -21 -101.5t-55.5 -77t-77.5 -48.5t-86 -17q-44 0 -87.5 15.5t-78 45.5t-56.5 74t-22 101zM295 1406q0 -65 23.5 -96.5t59.5 -31.5q26 0 47 25t21 73q0 70 -24 99.5
t-57 29.5q-26 -1 -48 -24t-22 -75z" />
    <glyph glyph-name="tilde" unicode="&#x2dc;" horiz-adv-x="872" 
d="M70 1307q16 46 43 85t59 66.5t67.5 43t69.5 15.5q48 0 79 -12t57 -27t51.5 -27t62.5 -12q36 0 68.5 27.5t58.5 75.5l116 -59q-21 -64 -50 -109.5t-62 -74.5t-67 -42.5t-64 -13.5q-41 0 -73.5 12.5t-61 27t-55.5 27t-57 12.5q-12 0 -27.5 -4t-32.5 -13.5t-34.5 -25.5
t-33.5 -40z" />
    <glyph glyph-name="uni0400" unicode="&#x400;" horiz-adv-x="1274" 
d="M103 0v135q34 2 61.5 7t46 22t28.5 52t10 97v785q0 28 0.5 55t1.5 51.5t2.5 44.5t3.5 33l-154 -6v158h1025l12 -397h-135q0 83 -23.5 135t-59.5 81t-80 39t-86 9l-74 -2q-32 -1 -57.5 -6.5t-43 -23.5t-27 -53t-9.5 -95v-307h241l-9 177h158v-498h-135q0 64 -16 101
t-43 55t-63.5 21.5t-78.5 2.5l-54 -1v-336q0 -28 -0.5 -54.5t-1.5 -50.5t-2.5 -43.5t-3.5 -32.5l275 1q45 0 90 15t80 49.5t57 91t22 139.5h135l-12 -451h-1081zM463 1902q0 20 8 40t22 35.5t34 25t43 9.5q35 0 68 -20.5t54 -54.5l168 -286l-94 -83l-249 216
q-24 23 -39 54.5t-15 63.5z" />
    <glyph glyph-name="afii10023" unicode="&#x401;" horiz-adv-x="1274" 
d="M102 0v135q34 2 61.5 7t46 22t28.5 52t10 97v785q0 28 0.5 55t1.5 51.5t2.5 44.5t3.5 33l-154 -6v158h1025l12 -397h-135q0 83 -23.5 135t-59.5 81t-80 39t-86 9l-74 -2q-32 -1 -57.5 -6.5t-43 -23.5t-27 -53t-9.5 -95v-307h241l-9 177h158v-498h-135q0 64 -16 101
t-43 55t-63.5 21.5t-78.5 2.5l-54 -1v-336q0 -28 -0.5 -54.5t-1.5 -50.5t-2.5 -43.5t-3.5 -32.5l275 1q45 0 90 15t80 49.5t57 91t22 139.5h135l-12 -451h-1081zM372 1786q0 32 11.5 60.5t30.5 50t44 34t52 12.5q28 0 53 -12.5t43 -34t28.5 -50t10.5 -60.5t-11 -60t-30 -49
t-44 -33t-52 -12t-52 12t-43.5 33t-29.5 49t-11 60zM729 1786q0 32 11.5 60.5t30.5 50t44 34t52 12.5q28 0 53 -12.5t43 -34t28.5 -50t10.5 -60.5t-11 -60t-30 -49t-44 -33t-52 -12t-52 12t-43.5 33t-29.5 49t-11 60z" />
    <glyph glyph-name="afii10051" unicode="&#x402;" horiz-adv-x="1685" 
d="M32 970l12 464h1241l12 -410h-135q0 69 -17.5 120.5t-50.5 85.5t-80 50.5t-105 15.5h-98v-545q37 23 81.5 43.5t91.5 36t95.5 24.5t94.5 9q91 0 160 -34.5t115 -92.5t69 -133t23 -156q0 -54 -10 -110.5t-31 -110t-52.5 -101t-73.5 -83.5t-95.5 -57t-118.5 -21
q-55 0 -95.5 14.5t-67.5 38t-40 54t-13 63.5q0 26 8.5 50.5t25 44t40.5 31t55 12.5q32 1 57.5 -11t42 -33t22 -49.5t-1.5 -62.5q4 -8 12.5 -13t21.5 -5q29 0 44.5 66t15.5 195q0 156 -57 235.5t-171 79.5q-31 0 -66 -6t-69 -16t-63.5 -23.5t-49.5 -28.5v-265q0 -28 -0.5 -55
t-1.5 -51.5t-2.5 -44.5t-3.5 -33v-152h-434v135q34 2 61.5 7t46 22t28.5 52t10 97v981h-95q-58 0 -105 -19.5t-80 -59.5t-50.5 -101t-17.5 -144h-135z" />
    <glyph glyph-name="afii10052" unicode="&#x403;" horiz-adv-x="1122" 
d="M102 0v135q34 2 61.5 7t46 22t28.5 52t10 97v785q0 28 0.5 55t1.5 51.5t2.5 44.5t3.5 33q-17 -1 -39 -2l-44 -2t-41 -1.5t-30 -0.5v158h1025l12 -397h-135q0 83 -23.5 135t-59.5 81t-80 39t-86 9l-74 -2q-32 -1 -57.5 -6.5t-43 -23.5t-27 -53t-9.5 -95v-785
q0 -28 -0.5 -55t-1.5 -51.5t-2.5 -44.5t-3.5 -33q16 1 42.5 2t54 1.5t51 1.5t34.5 1v-158h-616zM477 1677l235 242q24 25 54 39.5t61 14.5q19 0 37.5 -7.5t33.5 -21.5t24 -33t9 -42q0 -38 -23.5 -70t-58.5 -54l-299 -169z" />
    <glyph glyph-name="afii10053" unicode="&#x404;" horiz-adv-x="1445" 
d="M72 696q0 93 20 186.5t59.5 179t99.5 159.5t139.5 129t179 86t218.5 31q40 0 84.5 -6.5t90.5 -19.5t91 -31.5t86 -43.5h2l-7 87h158v-479h-134q-55 342 -344 344q-98 0 -172.5 -41t-126.5 -111t-81.5 -161t-37.5 -191h448q-3 42 -5 90.5t-4 86.5h158v-498h-135
q0 64 -16 100.5t-43 54t-63.5 21t-78.5 3.5h-262q7 -120 38 -219t85.5 -170t131 -110.5t173.5 -39.5q64 0 129 17t126 49.5t115.5 79.5t97.5 106l98 -90q-75 -104 -157 -168t-163 -99.5t-157 -48t-139 -12.5q-105 0 -198.5 25.5t-171.5 73t-139.5 113.5t-104.5 147
t-65.5 174.5t-22.5 195.5z" />
    <glyph glyph-name="afii10054" unicode="&#x405;" horiz-adv-x="1161" 
d="M90 1076q0 42 10.5 87.5t33 89t59.5 82.5t90.5 68.5t124 46.5t161.5 17q40 0 86 -6.5t92 -18.5t88.5 -30.5t76.5 -42.5h2l-7 84h158v-479h-134q-28 175 -119.5 260t-235.5 85q-44 0 -83.5 -13t-70 -36.5t-48.5 -56t-18 -70.5q0 -48 20 -86t61 -71t103 -64t147 -65
q51 -21 106 -46t107 -55.5t98.5 -68t81 -83.5t55 -101.5t20.5 -122.5q0 -91 -37.5 -167t-106.5 -130.5t-166 -85t-216 -30.5q-40 0 -85 6.5t-91 19t-91.5 31.5t-86.5 44h-2l7 -87h-158v479h134q14 -86 48 -150.5t83.5 -108t112.5 -65t135 -21.5q55 0 100.5 15t78 41.5
t50.5 61.5t18 75q0 54 -29.5 93t-77 68.5t-106 53t-116.5 46.5q-99 40 -184 86t-147 106t-97 137t-35 178z" />
    <glyph glyph-name="afii10055" unicode="&#x406;" horiz-adv-x="686" 
d="M103 0v135q34 2 61.5 6.5t46 22t28.5 52.5t10 97v785q0 28 0.5 55t1.5 51.5t2.5 44.5t3.5 33l-154 -6v158h588v-135q-35 -2 -62 -7t-45.5 -22t-28.5 -52t-10 -97v-785q0 -28 -0.5 -55t-1.5 -51.5t-2.5 -44.5t-3.5 -33l154 6v-158h-588z" />
    <glyph glyph-name="afii10056" unicode="&#x407;" horiz-adv-x="686" 
d="M78 1792q0 32 11 60.5t30 49.5t44 33.5t52 12.5q29 0 54 -12.5t43 -33.5t28 -49.5t10 -60.5t-11 -60t-29.5 -49t-43.5 -33t-52 -12q-28 0 -52.5 12t-43 33t-29.5 49t-11 60zM103 0v135q34 2 61.5 6.5t46 22t28.5 52.5t10 97v785q0 28 0.5 55t1.5 51.5t2.5 44.5t3.5 33
l-154 -6v158h588v-135q-35 -2 -62 -7t-45.5 -22t-28.5 -52t-10 -97v-785q0 -28 -0.5 -55t-1.5 -51.5t-2.5 -44.5t-3.5 -33l154 6v-158h-588zM434 1792q0 32 11 60.5t30 49.5t44 33.5t52 12.5q29 0 54 -12.5t43 -33.5t28 -49.5t10 -60.5t-11 -60t-29.5 -49t-43.5 -33t-52 -12
q-28 0 -52.5 12t-43 33t-29.5 49t-11 60z" />
    <glyph glyph-name="afii10057" unicode="&#x408;" horiz-adv-x="764" 
d="M2 186q0 34 9.5 65t29 54.5t47.5 37.5t66 14q36 0 61.5 -12t42.5 -31.5t25 -44.5t8 -50q0 -17 -5 -35.5t-13 -35.5q4 -10 12.5 -16.5t17.5 -10.5t18 -5.5t14 -1.5q44 0 67.5 38t23.5 125v821q0 28 0.5 55t1.5 51.5t2.5 44.5t3.5 33l-154 -6v158h588v-135q-35 -2 -62 -7
t-45.5 -22t-28.5 -52t-10 -97v-600q0 -148 -28 -253t-82 -172t-134 -98t-183 -31q-60 0 -113.5 16.5t-93.5 45.5t-63 69t-23 88z" />
    <glyph glyph-name="afii10058" unicode="&#x409;" horiz-adv-x="2152" 
d="M60 150q0 36 9.5 67.5t28 55.5t46.5 39t65 17q36 2 61.5 -9t43 -30t26 -43.5t9.5 -50.5q1 -18 -4 -38t-14 -38q5 -4 12 -5.5t19 -1.5q45 0 77.5 66t60 207.5t53 363t55.5 532.5l-279 -6v158h1181v-135q-35 -2 -62 -7t-45.5 -22t-28.5 -52t-10 -97v-287l73 3
q122 5 216.5 -10t164.5 -44.5t117.5 -71.5t77 -91.5t42 -104t12.5 -108.5q0 -100 -37.5 -176t-104 -127.5t-157.5 -77.5t-199 -26h-647v135q34 2 61.5 7t46 22t28.5 52t10 97v966l-165 -5q-35 -1 -59 -6.5t-40.5 -19t-25.5 -36.5t-13 -59q-29 -265 -57 -456t-58.5 -323
t-64 -212t-74 -123.5t-89.5 -57.5t-110 -14q-130 0 -191 47t-61 136zM1356 145q76 0 150 3q62 3 107 23.5t74 56.5t43 85.5t14 110.5q0 76 -19.5 127.5t-55 83t-84 44.5t-105.5 12l-116 -2v-363q0 -28 -0.5 -54.5t-1.5 -50.5t-2.5 -43.5t-3.5 -32.5z" />
    <glyph glyph-name="afii10059" unicode="&#x40a;" horiz-adv-x="2192" 
d="M102 0v135q34 2 61.5 7t46 22t28.5 52t10 97v785q0 28 0.5 55t1.5 51.5t2.5 44.5t3.5 33q-17 -1 -39 -2l-44 -2t-41 -1.5t-30 -0.5v158h588v-135q-35 -2 -62 -7t-45.5 -22t-28.5 -52t-10 -97v-287h564v264q0 28 0.5 55t1.5 51.5t2.5 44.5t3.5 33q-17 -1 -39 -2l-44 -2
t-41 -1.5t-30 -0.5v158h588v-135q-35 -2 -62 -7t-45.5 -22t-28.5 -52t-10 -97v-287l73 3q122 5 216.5 -10t164.5 -44.5t117.5 -71.5t77 -91.5t42 -104t12.5 -108.5q0 -100 -37.5 -176t-104 -127.5t-157.5 -77.5t-199 -26h-647v135q34 2 61.5 7t46 22t28.5 52t10 97v366
l-564 -7v-336q0 -28 -0.5 -55t-1.5 -51.5t-2.5 -44.5t-3.5 -33q16 1 38.5 2t44.5 1.5t41 1.5t30 1v-158h-588zM1396 145q76 0 150 3q62 3 107 23.5t74 56.5t43 85.5t14 110.5q0 76 -19.5 127.5t-55 83t-84 44.5t-105.5 12l-116 -2v-363q0 -28 -0.5 -54.5t-1.5 -50.5
t-2.5 -43.5t-3.5 -32.5z" />
    <glyph glyph-name="afii10060" unicode="&#x40b;" horiz-adv-x="1831" 
d="M32 970l12 464h1241l12 -410h-135q0 69 -17.5 120.5t-50.5 85.5t-80 50.5t-105 15.5h-98v-545q37 23 82.5 43.5t97 36t108 24.5t116.5 9q96 0 171 -25.5t127 -78.5t79.5 -136t27.5 -197v-91q0 -28 -0.5 -55t-1.5 -51.5t-2.5 -44.5t-3.5 -33q16 1 38.5 2t44.5 1.5t41 1.5
t30 1v-158h-588v135q34 2 61.5 7t46 22t28.5 52t10 97v117q-2 126 -60 185.5t-180 59.5q-40 0 -80.5 -6t-76.5 -16t-66 -23.5t-50 -28.5v-265q0 -28 -0.5 -55t-1.5 -51.5t-2.5 -44.5t-3.5 -33q16 1 40 2t48 1.5t44.5 1.5t31.5 1v-158h-598v135q34 2 61.5 7t46 22t28.5 52
t10 97v981h-95q-58 0 -105 -19.5t-80 -59.5t-50.5 -101t-17.5 -144h-135z" />
    <glyph glyph-name="afii10061" unicode="&#x40c;" horiz-adv-x="1399" 
d="M103 0v135q34 2 61.5 6.5t46 22t28.5 52.5t10 97v785q0 28 0.5 55t1.5 51.5t2.5 44.5t3.5 33l-154 -6v158h588v-135q-35 -2 -62 -7t-45.5 -22t-28.5 -52t-10 -97v-312h149l156 268q18 31 37 63t38 60t35.5 49.5t30.5 32.5v2l-130 -8v158h501v-135q-35 -2 -72.5 -9.5
t-78 -29t-82.5 -62.5t-84 -109l-196 -314v-3q42 -25 73 -54.5t55 -63.5l211 -297q31 -44 64 -83.5t67 -69.5t68.5 -48.5t69.5 -20.5v-135h-316q-13 1 -38 22.5t-54 52.5t-58 67t-50 66l-202 295q-14 19 -29 40t-31 40.5t-31 36t-29 26.5l-74 -1v-309q0 -28 -0.5 -55
t-1.5 -51.5t-2.5 -44.5t-3.5 -33l154 6v-158h-588zM620 1677l235 242q24 25 54 39.5t61 14.5q19 0 37.5 -7.5t33.5 -21.5t24 -33t9 -42q0 -38 -23.5 -70t-58.5 -54l-299 -169z" />
    <glyph glyph-name="uni040D" unicode="&#x40d;" horiz-adv-x="1618" 
d="M103 0v135q34 2 61.5 7t46 22t28.5 52t10 97v785q0 28 0.5 55t1.5 51.5t2.5 44.5t3.5 33q-17 -1 -39 -2l-44 -2t-41 -1.5t-30 -0.5v158h588v-135q-35 -2 -62 -7t-45.5 -22t-28.5 -52t-10 -97v-627l591 695q1 29 2.5 53.5t3.5 39.5q-17 -1 -39 -2l-44 -2t-41 -1.5
t-30 -0.5v158h588v-135q-35 -2 -62 -7t-45.5 -22t-28.5 -52t-10 -97v-785q0 -28 -0.5 -55t-1.5 -51.5t-2.5 -44.5t-3.5 -33q16 1 38.5 2t44.5 1.5t41 1.5t30 1v-158h-588v135q34 2 61.5 7t46 22t28.5 52t10 97v656l-590 -700q-1 -37 -3 -68t-4 -49q16 1 38.5 2t44.5 1.5
t41 1.5t30 1v-158h-588zM510 1870q0 22 9 41t24 32.5t33.5 21.5t37.5 8q31 0 61.5 -14.5t54.5 -39.5l235 -242l-73 -101l-299 169q-35 21 -59 54t-24 71z" />
    <glyph glyph-name="afii10062" unicode="&#x40e;" horiz-adv-x="1348" 
d="M25 1276v158h590v-135q-45 3 -78 -5.5t-50.5 -28t-17 -50.5t24.5 -74l160 -291q22 -41 38 -72.5t28 -58t19.5 -49.5t13.5 -45l192 471q21 57 51.5 105.5t56.5 80.5v2l-157 -8v158h453v-135q-36 -6 -67.5 -19t-60.5 -38.5t-55.5 -64.5t-51.5 -97l-318 -731
q-48 -111 -101.5 -185t-108 -117.5t-109 -61.5t-105.5 -18q-49 0 -90.5 14.5t-71.5 41.5t-47 64t-17 82q0 31 9 61.5t28 54.5t48.5 39t70.5 15q34 0 60.5 -10.5t44.5 -27.5t27 -39.5t9 -47.5q0 -23 -7.5 -46.5t-24.5 -44.5q5 -6 11.5 -10t18.5 -4q21 0 43 14t46 44t51.5 78
t61.5 116l-441 726q-14 23 -28 50.5t-25 54t-18 50t-7 40.5zM358 1767q0 25 6.5 48t20.5 41t35 29.5t51 11.5q36 1 59.5 -12.5t37 -32.5t19 -39t5.5 -32q0 -18 -4.5 -39t-15.5 -42q31 -20 75 -30.5t92 -10.5t92.5 10.5t74.5 30.5q-11 21 -15.5 42t-4.5 39q0 12 5.5 32t19 39
t37 32.5t59.5 12.5q30 0 51 -11.5t35 -29.5t20.5 -41t6.5 -48q0 -52 -31 -91t-83.5 -65.5t-121.5 -40t-145 -13.5t-145 13.5t-121.5 40t-83.5 65.5t-31 91z" />
    <glyph glyph-name="afii10145" unicode="&#x40f;" horiz-adv-x="1642" 
d="M122 0v135q34 2 61.5 7t46 22t28.5 52t10 97v785q0 28 0.5 55t1.5 51.5t2.5 44.5t3.5 33q-17 -1 -39 -2l-44 -2t-41 -1.5t-30 -0.5v158h588v-135q-35 -2 -62 -7t-45.5 -22t-28.5 -52t-10 -97v-966l392 5q33 2 59.5 7t45 22.5t28 52.5t9.5 96v760q0 28 0.5 55t1.5 51.5
t2.5 44.5t3.5 33q-17 -1 -39 -2l-44 -2t-41 -1.5t-30 -0.5v158h588v-135q-35 -2 -62 -7t-45.5 -22t-28.5 -52t-10 -97v-785q0 -28 -0.5 -55t-1.5 -51.5t-2.5 -44.5t-3.5 -33q16 1 38.5 2t44.5 1.5t41 1.5t30 1v-158h-609v-363h-148q1 80 -5 147t-21.5 115t-42 74.5
t-66.5 26.5h-526z" />
    <glyph glyph-name="afii10017" unicode="&#x410;" horiz-adv-x="1282" 
d="M8 0v141q43 0 72.5 19.5t51.5 51.5t39 74.5t34 88.5l400 1095h142l437 -1116q6 -15 14.5 -40t17.5 -53.5t16 -57t10 -51.5l118 6v-158h-552v135q55 0 77 21.5t22 58.5q0 21 -6 46.5t-16 54.5l-41 112l-445 -8l-33 -96l-12.5 -35t-17 -44.5t-19 -46t-16.5 -40.5l146 6
v-164h-439zM451 573h341l-93 257q-27 75 -48 148.5t-31 130.5h-2q-8 -35 -25 -104t-50 -166z" />
    <glyph glyph-name="afii10018" unicode="&#x411;" horiz-adv-x="1354" 
d="M102 0v135q34 2 61.5 7t46 22t28.5 52t10 97v785q0 28 0.5 55t1.5 51.5t2.5 44.5t3.5 33q-17 -1 -39 -2l-44 -2t-41 -1.5t-30 -0.5v158h1085l12 -397h-135q0 83 -23.5 135t-59.5 81t-80 39t-86 9l-134 -2q-32 0 -57.5 -5.5t-43 -24t-27 -53.5t-9.5 -95v-287l123 3
q134 4 232.5 -10t168.5 -41.5t114.5 -67.5t70 -88t35 -102.5t9.5 -111.5q0 -102 -37.5 -180t-104 -130.5t-157.5 -79t-199 -26.5h-697zM536 145q54 0 103 0.5t97 2.5q62 3 107 24.5t74 57.5t43 85t14 108q0 79 -22.5 131t-60 82.5t-85 42.5t-96.5 12h-88.5t-77.5 -2v-363
q0 -28 -0.5 -54.5t-1.5 -50.5t-2.5 -43.5t-3.5 -32.5z" />
    <glyph glyph-name="afii10019" unicode="&#x412;" horiz-adv-x="1274" 
d="M103 0v135q34 2 61.5 6.5t46 22t28.5 52.5t10 97v785q0 28 0.5 55t1.5 51.5t2.5 44.5t3.5 33l-154 -6v158l568 4q119 0 215.5 -21.5t165 -65t105.5 -109.5t37 -156q0 -52 -17 -96t-52.5 -85t-91 -74.5t-132.5 -54.5v-2q102 -16 176.5 -51.5t123.5 -84t73 -108t24 -123.5
q0 -100 -37.5 -176t-104 -127.5t-157.5 -77.5t-199 -26h-697zM537 145q54 0 103 0.5t97 2.5q62 3 107 23.5t74 55.5t43 82.5t14 104.5q0 70 -22.5 117.5t-60 76.5t-85 41t-96.5 12q-97 0 -166 -2v-333q0 -28 -0.5 -54.5t-1.5 -50.5t-2.5 -43.5t-3.5 -32.5zM545 804l107 3
q65 1 109 23t71 59.5t38.5 86.5t11.5 106q0 62 -19.5 103t-50 65t-69.5 34t-78 10q-25 -1 -47 -6t-38 -22.5t-25.5 -51t-9.5 -92.5v-318z" />
    <glyph glyph-name="afii10020" unicode="&#x413;" horiz-adv-x="1169" 
d="M102 0v135q34 2 61.5 7t46 22t28.5 52t10 97v785q0 28 0.5 55t1.5 51.5t2.5 44.5t3.5 33q-17 -1 -39 -2l-44 -2t-41 -1.5t-30 -0.5v158h1025l12 -397h-135q0 83 -23.5 135t-59.5 81t-80 39t-86 9l-74 -2q-32 -1 -57.5 -6.5t-43 -23.5t-27 -53t-9.5 -95v-785
q0 -28 -0.5 -55t-1.5 -51.5t-2.5 -44.5t-3.5 -33q16 1 42.5 2t54 1.5t51 1.5t34.5 1v-158h-616z" />
    <glyph glyph-name="afii10021" unicode="&#x414;" horiz-adv-x="1525" 
d="M55 152h77q75 0 136.5 65.5t105.5 191.5t67 310.5t21 423.5v139l-212 -6v158h1148v-135q-35 -2 -62 -7t-45.5 -22t-28.5 -52t-10 -97v-785q0 -28 -0.5 -55t-1.5 -51.5t-2.5 -44.5t-3.5 -33h5q17 1 38.5 2t42.5 1.5t39 1.5t29 1l62 2v-524h-148q1 80 -5 147t-21.5 115
t-42 75t-66.5 27h-839q-40 0 -66.5 -27t-42 -75t-21.5 -115t-5 -147h-148v516zM394 152h381q34 2 67 7t58 22t40.5 52t15.5 97v949l-200 -5q-34 -1 -60 -6.5t-43 -19t-26 -36.5t-9 -59q-2 -195 -20.5 -352t-49 -280.5t-70 -214.5t-84.5 -154z" />
    <glyph glyph-name="afii10022" unicode="&#x415;" horiz-adv-x="1274" 
d="M103 0v135q34 2 61.5 7t46 22t28.5 52t10 97v785q0 28 0.5 55t1.5 51.5t2.5 44.5t3.5 33l-154 -6v158h1025l12 -397h-135q0 83 -23.5 135t-59.5 81t-80 39t-86 9l-74 -2q-32 -1 -57.5 -6.5t-43 -23.5t-27 -53t-9.5 -95v-307h241l-9 177h158v-498h-135q0 64 -16 101
t-43 55t-63.5 21.5t-78.5 2.5l-54 -1v-336q0 -28 -0.5 -54.5t-1.5 -50.5t-2.5 -43.5t-3.5 -32.5l275 1q45 0 90 15t80 49.5t57 91t22 139.5h135l-12 -451h-1081z" />
    <glyph glyph-name="afii10024" unicode="&#x416;" horiz-adv-x="2150" 
d="M15 0v135q34 2 69 20.5t69 48.5t67 69.5t64 83.5l211 297q24 34 55.5 63.5t72.5 54.5v3l-246 314q-50 63 -93 103t-81 63.5t-73.5 32.5t-69.5 11v135h473v-158q-22 1 -59.5 3.5t-70.5 4.5v-2q27 -20 71 -74.5t103 -130.5l206 -268h144v289q0 28 0.5 55t1.5 51.5t2.5 44.5
t3.5 33q-17 -1 -39 -2l-44 -2t-41 -1.5t-30 -0.5v158h588v-135q-35 -2 -62 -7t-45.5 -22t-28.5 -52t-10 -97v-312h152l206 268q42 54 69 89t45.5 57t31 35t26.5 24v2q-33 -2 -70.5 -4.5t-59.5 -3.5v158h467v-135q-35 -2 -70 -11t-73.5 -32.5t-81.5 -63.5t-92 -103l-246 -314
v-3q41 -25 72.5 -54.5t55.5 -63.5l211 -297q31 -44 64 -83.5t67 -69.5t68.5 -48.5t69.5 -20.5v-135h-316q-12 1 -37.5 22t-54.5 52.5t-58 67.5t-50 66l-202 295q-14 19 -29.5 40t-31 40.5t-30.5 35.5t-29 26h-74v-309q0 -28 -0.5 -55t-1.5 -51.5t-2.5 -44.5t-3.5 -33
q16 1 38.5 2t44.5 1.5t41 1.5t30 1v-158h-588v135q34 2 61.5 7t46 22t28.5 52t10 97v333h-74q-14 -10 -29 -26.5t-30.5 -36t-31 -40.5t-29.5 -40l-202 -295q-21 -30 -50 -66t-58.5 -67.5t-54.5 -52.5t-37 -22h-316z" />
    <glyph glyph-name="afii10025" unicode="&#x417;" horiz-adv-x="1353" 
d="M65 295l98 90q43 -59 99 -106t119 -79.5t130.5 -49.5t135.5 -17q61 0 120 16t104.5 50t73.5 86.5t28 125.5q0 63 -20 110t-53 78t-75 46.5t-86 15.5h-259v146h183q70 0 118 21t78 57t43 83.5t13 100.5q0 127 -66 188t-190 61q-75 0 -132 -21.5t-100 -64.5t-73.5 -107.5
t-52.5 -150.5h-134v479h158l-7 -87h2q53 25 99.5 43.5t93.5 31.5t97 19.5t110 6.5q117 3 209.5 -20.5t156.5 -70t98 -113.5t34 -151q0 -121 -68 -213.5t-211 -140.5q91 -16 158 -50.5t111.5 -83t66 -108.5t21.5 -127q0 -103 -48.5 -182.5t-132 -133.5t-195.5 -81t-239 -25
q-74 0 -153 12.5t-158.5 48t-157 99.5t-147.5 168z" />
    <glyph glyph-name="afii10026" unicode="&#x418;" horiz-adv-x="1652" 
d="M102 0v135q34 2 61.5 7t46 22t28.5 52t10 97v785q0 28 0.5 55t1.5 51.5t2.5 44.5t3.5 33q-17 -1 -39 -2l-44 -2t-41 -1.5t-30 -0.5v158h588v-135q-35 -2 -62 -7t-45.5 -22t-28.5 -52t-10 -97v-627l591 695q1 29 2.5 53.5t3.5 39.5q-17 -1 -39 -2l-44 -2t-41 -1.5
t-30 -0.5v158h588v-135q-35 -2 -62 -7t-45.5 -22t-28.5 -52t-10 -97v-785q0 -28 -0.5 -55t-1.5 -51.5t-2.5 -44.5t-3.5 -33q16 1 38.5 2t44.5 1.5t41 1.5t30 1v-158h-588v135q34 2 61.5 7t46 22t28.5 52t10 97v656l-590 -700q-1 -37 -3 -68t-4 -49q16 1 38.5 2t44.5 1.5
t41 1.5t30 1v-158h-588z" />
    <glyph glyph-name="afii10027" unicode="&#x419;" horiz-adv-x="1652" 
d="M102 0v135q34 2 61.5 7t46 22t28.5 52t10 97v785q0 28 0.5 55t1.5 51.5t2.5 44.5t3.5 33q-17 -1 -39 -2l-44 -2t-41 -1.5t-30 -0.5v158h588v-135q-35 -2 -62 -7t-45.5 -22t-28.5 -52t-10 -97v-627l591 695q1 29 2.5 53.5t3.5 39.5q-17 -1 -39 -2l-44 -2t-41 -1.5
t-30 -0.5v158h588v-135q-35 -2 -62 -7t-45.5 -22t-28.5 -52t-10 -97v-785q0 -28 -0.5 -55t-1.5 -51.5t-2.5 -44.5t-3.5 -33q16 1 38.5 2t44.5 1.5t41 1.5t30 1v-158h-588v135q34 2 61.5 7t46 22t28.5 52t10 97v656l-590 -700q-1 -37 -3 -68t-4 -49q16 1 38.5 2t44.5 1.5
t41 1.5t30 1v-158h-588zM468 1767q0 25 6.5 48t20.5 41t35 29.5t51 11.5q36 1 59.5 -12.5t37 -32.5t19 -39t5.5 -32q0 -18 -4.5 -39t-15.5 -42q31 -20 75 -30.5t92 -10.5t92.5 10.5t74.5 30.5q-11 21 -15.5 42t-4.5 39q0 12 5.5 32t19 39t37 32.5t59.5 12.5q30 0 51 -11.5
t35 -29.5t20.5 -41t6.5 -48q0 -52 -31 -91t-83.5 -65.5t-121.5 -40t-145 -13.5t-145 13.5t-121.5 40t-83.5 65.5t-31 91z" />
    <glyph glyph-name="afii10028" unicode="&#x41a;" horiz-adv-x="1459" 
d="M102 0v135q34 2 61.5 7t46 22t28.5 52t10 97v785q0 28 0.5 55t1.5 51.5t2.5 44.5t3.5 33q-17 -1 -39 -2l-44 -2t-41 -1.5t-30 -0.5v158h588v-135q-35 -2 -62 -7t-45.5 -22t-28.5 -52t-10 -97v-312h149l156 268q18 31 37 63t38 60t35.5 49.5t30.5 32.5v2
q-33 -2 -70.5 -4.5t-59.5 -3.5v158h501v-135q-35 -2 -72.5 -9.5t-78 -29t-82.5 -62.5t-84 -109l-196 -314v-3q41 -25 72.5 -54.5t55.5 -63.5l211 -297q31 -44 64 -83.5t67 -69.5t68.5 -48.5t69.5 -20.5v-135h-316q-12 1 -37.5 22t-54.5 52.5t-58 67.5t-50 66l-202 295
q-14 19 -29.5 40t-31 40.5t-30.5 36t-29 26.5h-10t-19 -0.5t-23.5 -0.5h-21.5v-309q0 -28 -0.5 -55t-1.5 -51.5t-2.5 -44.5t-3.5 -33q16 1 38.5 2t44.5 1.5t41 1.5t30 1v-158h-588z" />
    <glyph glyph-name="afii10029" unicode="&#x41b;" horiz-adv-x="1612" 
d="M42 150q0 36 10 68t30.5 57t52 39.5t75.5 14.5q36 0 62.5 -10.5t43.5 -28.5t25 -42t8 -52q0 -35 -18 -56q5 -4 13.5 -5.5t17.5 -1.5q28 0 68 51t77.5 161t66 282.5t34.5 416.5l6 238l-235 -6v158h1131v-135q-35 -2 -62 -7t-45.5 -22t-28.5 -52t-10 -97v-785
q0 -28 -0.5 -55t-1.5 -51.5t-2.5 -44.5t-3.5 -33q16 1 38.5 2t44.5 1.5t41 1.5t30 1v-158h-588v135q34 2 61.5 7t46 22t28.5 52t10 97v966l-165 -5q-69 -2 -103 -27.5t-35 -93.5q-4 -221 -24.5 -394.5t-53.5 -305.5t-77 -224.5t-95.5 -150.5t-109.5 -84.5t-119 -26.5
q-55 0 -100 12t-77 35t-49.5 57.5t-17.5 78.5z" />
    <glyph glyph-name="afii10030" unicode="&#x41c;" horiz-adv-x="1880" 
d="M97 0v135q34 2 61 7t45.5 22t28.5 52t11 97l12 785q0 28 1 55t2 51.5t2.5 44.5t3.5 33l-155 -6v158h453l310 -793q14 -36 30.5 -81t32.5 -90t29.5 -85.5t21.5 -66.5h2q26 71 48.5 137.5t48.5 132.5l316 846h473v-135q-35 -2 -62.5 -7t-47 -22t-29 -52t-7.5 -97l31 -785
q1 -28 0.5 -55t-1.5 -51.5t-3 -44.5t-4 -33l154 6v-158h-569v135q34 2 62 7t47.5 22t29 52t7.5 97l-17 434q-1 18 -3 58.5t-4.5 90.5t-5 104.5t-4.5 101.5h-2l-419 -1122h-191l-275 674q-12 28 -30.5 76.5t-38.5 109.5t-39.5 131.5t-35.5 144.5h-2q3 -115 5 -216t1 -194
l-3 -370q0 -28 -0.5 -55t-2 -51.5t-3 -44.5t-3.5 -33l155 6v-158h-467z" />
    <glyph glyph-name="afii10031" unicode="&#x41d;" horiz-adv-x="1597" 
d="M103 0v135q34 2 61.5 6.5t46 22t28.5 52.5t10 97v785q0 28 0.5 55t1.5 51.5t2.5 44.5t3.5 33l-154 -6v158h588v-135q-35 -2 -62 -7t-45.5 -22t-28.5 -52t-10 -97v-321h564v298q0 28 0.5 55t1.5 51.5t2.5 44.5t3.5 33l-154 -6v158h588v-135q-35 -2 -62 -7t-45.5 -22
t-28.5 -52t-10 -97v-785q0 -28 -0.5 -55t-1.5 -51.5t-2.5 -44.5t-3.5 -33l154 6v-158h-588v135q34 2 61.5 6.5t46 22t28.5 52.5t10 97v332l-564 -7v-302q0 -28 -0.5 -55t-1.5 -51.5t-2.5 -44.5t-3.5 -33l154 6v-158h-588z" />
    <glyph glyph-name="afii10032" unicode="&#x41e;" horiz-adv-x="1626" 
d="M73 717q0 86 19.5 175t59 172t99 156.5t139.5 128.5t180.5 86.5t221.5 31.5q124 0 225.5 -32t180.5 -87t136.5 -128.5t95.5 -156.5t56 -172t18 -174t-19.5 -173.5t-59 -171.5t-99 -157t-139.5 -129t-180 -87t-221 -32q-130 0 -233 31t-182.5 84.5t-136 126t-92 156
t-52.5 173.5t-17 179zM395 741q0 -65 9 -136t29 -140.5t52 -132.5t77.5 -110.5t106.5 -76t138 -28.5q71 0 126 24.5t96.5 66.5t70.5 98t47 118.5t26 129t8 128.5q0 138 -24 254.5t-74 201t-126 132t-180 47.5q-73 0 -129.5 -24.5t-99 -67.5t-71.5 -99.5t-47.5 -120.5
t-26.5 -131.5t-8 -132.5z" />
    <glyph glyph-name="afii10033" unicode="&#x41f;" horiz-adv-x="1622" 
d="M102 0v135q34 2 61.5 7t46 22t28.5 52t10 97v785q0 28 0.5 55t1.5 51.5t2.5 44.5t3.5 33q-17 -1 -39 -2l-44 -2t-41 -1.5t-30 -0.5v158h1418v-135q-35 -2 -62 -7t-45.5 -22t-28.5 -52t-10 -97v-785q0 -28 -0.5 -55t-1.5 -51.5t-2.5 -44.5t-3.5 -33q16 1 38.5 2t44.5 1.5
t41 1.5t30 1v-158h-588v135q34 2 61.5 7t46 22t28.5 52t10 97v966l-392 -5q-33 -2 -59.5 -7t-45 -22.5t-28 -52.5t-9.5 -96v-760q0 -28 -0.5 -55t-1.5 -51.5t-2.5 -44.5t-3.5 -33q16 1 38.5 2t44.5 1.5t41 1.5t30 1v-158h-588z" />
    <glyph glyph-name="afii10034" unicode="&#x420;" horiz-adv-x="1241" 
d="M103 0v135q34 2 61.5 6.5t46 22t28.5 52.5t10 97v785q0 28 0.5 55t1.5 51.5t2.5 44.5t3.5 33l-154 -6v158l583 4q133 1 241.5 -25t185.5 -80.5t119 -139.5t42 -204q1 -86 -34 -167.5t-106.5 -147.5t-180.5 -108t-259 -47q-24 -1 -43.5 -1.5t-37 -0.5h-34t-34.5 1v-181
q0 -56 -2 -107.5t-6 -77.5l174 6v-158h-608zM545 671q22 -2 45 -4t47 -2q84 0 145 21.5t100 63.5t57.5 103t18.5 139q0 68 -13 117t-35 82.5t-50.5 54t-59 31t-61 14t-56.5 3.5q-33 0 -58.5 -5t-43 -22t-27 -49t-9.5 -86v-461z" />
    <glyph glyph-name="afii10035" unicode="&#x421;" 
d="M73 696q0 93 20 186.5t59.5 179t99.5 159.5t139.5 129t179 86t218.5 31q40 0 84.5 -6.5t90.5 -19.5t91 -31.5t86 -43.5h2l-7 87h158v-479h-134q-28 171 -113 257.5t-231 86.5q-107 0 -186.5 -49t-131.5 -130t-77.5 -185.5t-25.5 -215.5q0 -133 28.5 -244t83 -191.5
t134.5 -125t184 -44.5q64 0 129 17t126 49.5t115.5 79.5t97.5 106l98 -90q-75 -104 -157 -168t-163 -99.5t-157 -48t-139 -12.5q-159 0 -288.5 56.5t-221.5 155t-142 231.5t-50 286z" />
    <glyph glyph-name="afii10036" unicode="&#x422;" horiz-adv-x="1311" 
d="M33 970l12 464h1241l12 -464h-135q0 163 -67 245.5t-186 81.5l-98 -1v-960q0 -28 -0.5 -55t-1.5 -51.5t-2.5 -44.5t-3.5 -33l164 6v-158h-598v135q34 1 61.5 6.5t46 22.5t28.5 52t10 97v981h-95q-117 0 -184.5 -79t-68.5 -245h-135z" />
    <glyph glyph-name="afii10037" unicode="&#x423;" horiz-adv-x="1348" 
d="M25 1276v158h590v-135q-45 3 -78 -5.5t-50.5 -28t-17 -50.5t24.5 -74l160 -291q22 -41 38 -72.5t28 -58t19.5 -49.5t13.5 -45l192 471q21 57 51.5 105.5t56.5 80.5v2l-157 -8v158h453v-135q-36 -6 -67.5 -19t-60.5 -38.5t-55.5 -64.5t-51.5 -97l-318 -731
q-48 -111 -101.5 -185t-108 -117.5t-109 -61.5t-105.5 -18q-49 0 -90.5 14.5t-71.5 41.5t-47 64t-17 82q0 31 9 61.5t28 54.5t48.5 39t70.5 15q34 0 60.5 -10.5t44.5 -27.5t27 -39.5t9 -47.5q0 -23 -7.5 -46.5t-24.5 -44.5q5 -6 11.5 -10t18.5 -4q21 0 43 14t46 44t51.5 78
t61.5 116l-441 726q-14 23 -28 50.5t-25 54t-18 50t-7 40.5z" />
    <glyph glyph-name="afii10038" unicode="&#x424;" horiz-adv-x="1755" 
d="M72 703q0 117 40.5 221.5t122.5 186t206 135t291 68.5q1 35 3 63.5t4 45.5l-154 -6v158h568v-135q-30 -2 -55 -5.5t-43.5 -16t-30 -37.5t-15.5 -68q176 -18 303.5 -74.5t210 -137.5t122 -180.5t39.5 -203.5t-42 -199.5t-126 -171.5t-211.5 -127.5t-298.5 -67.5
q-1 -35 -3 -63.5t-4 -45.5l154 6v-158h-568v135q30 1 55 5t43 16t29.5 36t16.5 66q-179 13 -303.5 63t-203.5 124.5t-114.5 169t-35.5 198.5zM374 727q0 -185 88 -297.5t269 -144.5v894q-93 -15 -160 -53.5t-111 -97t-65 -134.5t-21 -167zM1007 281q193 22 283.5 118.5
t90.5 282.5q0 99 -22.5 182t-69 146t-116.5 105.5t-166 60.5v-895z" />
    <glyph glyph-name="afii10039" unicode="&#x425;" 
d="M28 1276v158h624v-135q-56 0 -85.5 -11t-38 -30t1.5 -44.5t33 -54.5l180 -232h2l156 216q21 29 37.5 50t30.5 36.5t26.5 28t25.5 24.5v2q-17 -1 -38.5 -2.5t-43.5 -2.5t-41 -2t-30 -1v158h466v-135q-36 -5 -70.5 -21t-69.5 -44t-72 -69.5t-78 -97.5l-197 -269l386 -491
q35 -44 62.5 -82.5t44.5 -72.5q16 1 27 2t20 1.5t17 1.5t19 1v-158h-612v135q56 0 82.5 11t31 30t-9 44.5t-36.5 54.5l-208 264h-2l-179 -248q-21 -29 -37 -50t-29 -36.5t-24 -28t-23 -24.5v-2q16 1 37 2.5t41.5 2.5t38.5 2t29 1v-158h-451v135q58 14 118.5 65.5
t135.5 153.5l238 318l-330 417q-35 44 -61.5 96t-41.5 97q-33 -2 -57 -3.5t-46 -2.5z" />
    <glyph glyph-name="afii10040" unicode="&#x426;" horiz-adv-x="1666" 
d="M122 0v135q34 2 61.5 7t46 22t28.5 52t10 97v785q0 28 0.5 55t1.5 51.5t2.5 44.5t3.5 33q-17 -1 -39 -2l-44 -2t-41 -1.5t-30 -0.5v158h588v-135q-35 -2 -62 -7t-45.5 -22t-28.5 -52t-10 -97v-966l392 5q33 2 59.5 7t45 22.5t28 52.5t9.5 96v760q0 28 0.5 55t1.5 51.5
t2.5 44.5t3.5 33q-17 -1 -39 -2l-44 -2t-41 -1.5t-30 -0.5v158h588v-135q-35 -2 -62 -7t-45.5 -22t-28.5 -52t-10 -97v-785q0 -28 -0.5 -55t-1.5 -51.5t-2.5 -44.5t-3.5 -33q16 1 38.5 2t44.5 1.5t41 1.5t30 1l61 2v-523h-148q1 80 -5 147t-21.5 115t-42 74.5t-66.5 26.5
h-1196z" />
    <glyph glyph-name="afii10041" unicode="&#x427;" horiz-adv-x="1595" 
d="M65 1276v158h588v-135q-35 -2 -62 -7t-45.5 -22t-28.5 -52t-10 -97v-167q2 -126 60 -185.5t180 -59.5q45 0 90 6t85 16t73.5 24t55.5 29v314q0 28 0.5 55t1.5 51.5t2.5 44.5t3.5 33q-17 -1 -39 -2l-44 -2t-41 -1.5t-30 -0.5v158h588v-135q-35 -2 -62 -7t-45.5 -22
t-28.5 -52t-10 -97v-785q0 -28 -0.5 -55t-1.5 -51.5t-2.5 -44.5t-3.5 -33q16 1 38.5 2t44.5 1.5t41 1.5t30 1v-158h-588v135q34 2 61.5 7t46 22t28.5 52t10 97v321q-40 -23 -93 -44t-111.5 -36.5t-118 -24.5t-112.5 -9q-96 0 -171 25.5t-127 78.5t-79.5 136t-27.5 197v141
q0 28 0.5 55t1.5 51.5t2.5 44.5t3.5 33q-17 -1 -39 -2l-44 -2t-41 -1.5t-30 -0.5z" />
    <glyph glyph-name="afii10042" unicode="&#x428;" horiz-adv-x="2252" 
d="M102 0v135q34 2 61.5 7t46 22t28.5 52t10 97v785q0 28 0.5 55t1.5 51.5t2.5 44.5t3.5 33q-17 -1 -39 -2l-44 -2t-41 -1.5t-30 -0.5v158h588v-135q-35 -2 -62 -7t-45.5 -22t-28.5 -52t-10 -97v-966l291 5q33 2 59.5 7t45 22t28.5 52t10 97v760q0 28 0.5 55t1.5 51.5
t2.5 44.5t3.5 33q-17 -1 -39 -2l-44 -2t-41 -1.5t-30 -0.5v158h588v-135q-35 -2 -62 -7t-45.5 -22t-28.5 -52t-10 -97v-785q0 -54 -2 -104t-6 -77l299 5q33 0 59.5 5t45 22.5t28.5 53t10 97.5v760q0 28 0.5 55t1.5 51.5t2.5 44.5t3.5 33q-17 -1 -39 -2l-44 -2t-41 -1.5
t-30 -0.5v158h588v-135q-35 -2 -62 -7t-45.5 -22t-28.5 -52t-10 -97v-785q0 -28 -0.5 -55t-1.5 -51.5t-2.5 -44.5t-3.5 -33q16 1 38.5 2t44.5 1.5t41 1.5t30 1v-158h-2048z" />
    <glyph glyph-name="afii10043" unicode="&#x429;" horiz-adv-x="2276" 
d="M102 0v135q34 2 61.5 7t46 22t28.5 52t10 97v785q0 28 0.5 55t1.5 51.5t2.5 44.5t3.5 33q-17 -1 -39 -2l-44 -2t-41 -1.5t-30 -0.5v158h588v-135q-35 -2 -62 -7t-45.5 -22t-28.5 -52t-10 -97v-966l291 5q33 2 59.5 7t45 22t28.5 52t10 97v760q0 28 0.5 55t1.5 51.5
t2.5 44.5t3.5 33q-17 -1 -39 -2l-44 -2t-41 -1.5t-30 -0.5v158h588v-135q-35 -2 -62 -7t-45.5 -22t-28.5 -52t-10 -97v-785q0 -54 -2 -104t-6 -77l299 5q33 0 59.5 5t45 22.5t28.5 53t10 97.5v760q0 28 0.5 55t1.5 51.5t2.5 44.5t3.5 33q-17 -1 -39 -2l-44 -2t-41 -1.5
t-30 -0.5v158h588v-135q-35 -2 -62 -7t-45.5 -22t-28.5 -52t-10 -97v-785q0 -28 -0.5 -55t-1.5 -51.5t-2.5 -44.5t-3.5 -33q16 1 38.5 2t44.5 1.5t41 1.5t30 1l61 2v-523h-148q1 80 -5 147t-21.5 115t-42 74.5t-66.5 26.5h-1826z" />
    <glyph glyph-name="afii10044" unicode="&#x42a;" horiz-adv-x="1599" 
d="M32 970l12 464h913v-135q-35 -2 -62 -7t-45.5 -22t-28.5 -52t-10 -97v-287l73 3q122 5 216.5 -10t164.5 -44.5t117.5 -71.5t77 -91.5t42 -104t12.5 -108.5q0 -100 -37.5 -176t-104 -127.5t-157.5 -77.5t-199 -26h-647v135q34 2 61.5 7t46 22t28.5 52t10 97v981h-95
q-58 0 -105 -19.5t-80 -59.5t-50.5 -101t-17.5 -144h-135zM803 145q76 0 150 3q62 3 107 23.5t74 56.5t43 85.5t14 110.5q0 76 -19.5 127.5t-55 83t-84 44.5t-105.5 12l-116 -2v-363q0 -28 -0.5 -54.5t-1.5 -50.5t-2.5 -43.5t-3.5 -32.5z" />
    <glyph glyph-name="afii10045" unicode="&#x42b;" horiz-adv-x="2017" 
d="M102 0v135q34 2 61.5 7t46 22t28.5 52t10 97v785q0 28 0.5 55t1.5 51.5t2.5 44.5t3.5 33q-17 -1 -39 -2l-44 -2t-41 -1.5t-30 -0.5v158h588v-135q-35 -2 -62 -7t-45.5 -22t-28.5 -52t-10 -97v-287l73 3q122 5 216.5 -10t164.5 -44.5t117.5 -71.5t77 -91.5t42 -104
t12.5 -108.5q0 -100 -37.5 -176t-104 -127.5t-157.5 -77.5t-199 -26h-647zM536 145q76 0 150 3q62 3 107 23.5t74 56.5t43 85.5t14 110.5q0 76 -19.5 127.5t-55 83t-84 44.5t-105.5 12l-116 -2v-363q0 -28 -0.5 -54.5t-1.5 -50.5t-2.5 -43.5t-3.5 -32.5zM1327 0v135
q34 2 61.5 7t46 22t28.5 52t10 97v785q0 28 0.5 55t1.5 51.5t2.5 44.5t3.5 33q-17 -1 -39 -2l-44 -2t-41 -1.5t-30 -0.5v158h588v-135q-35 -2 -62 -7t-45.5 -22t-28.5 -52t-10 -97v-785q0 -28 -0.5 -55t-1.5 -51.5t-2.5 -44.5t-3.5 -33q16 1 38.5 2t44.5 1.5t41 1.5t30 1
v-158h-588z" />
    <glyph glyph-name="afii10046" unicode="&#x42c;" horiz-adv-x="1332" 
d="M102 0v135q34 2 61.5 7t46 22t28.5 52t10 97v785q0 28 0.5 55t1.5 51.5t2.5 44.5t3.5 33q-17 -1 -39 -2l-44 -2t-41 -1.5t-30 -0.5v158h588v-135q-35 -2 -62 -7t-45.5 -22t-28.5 -52t-10 -97v-287l73 3q122 5 216.5 -10t164.5 -44.5t117.5 -71.5t77 -91.5t42 -104
t12.5 -108.5q0 -100 -37.5 -176t-104 -127.5t-157.5 -77.5t-199 -26h-647zM536 145q76 0 150 3q62 3 107 23.5t74 56.5t43 85.5t14 110.5q0 76 -19.5 127.5t-55 83t-84 44.5t-105.5 12l-116 -2v-363q0 -28 -0.5 -54.5t-1.5 -50.5t-2.5 -43.5t-3.5 -32.5z" />
    <glyph glyph-name="afii10047" unicode="&#x42d;" horiz-adv-x="1444" 
d="M55 295l98 90q43 -59 97.5 -106t115.5 -79.5t126 -49.5t129 -17q97 0 173.5 39.5t131 110.5t85.5 170.5t38 219.5h-324q-42 0 -78.5 -4t-63.5 -21.5t-43 -54t-16 -100.5h-125v448h148l-9 -127h510q-8 100 -37.5 191t-81.5 161t-126.5 111t-172.5 41q-288 -2 -344 -314
h-134v449h158l-7 -87h2q41 25 86 43.5t90.5 31.5t90.5 19.5t85 6.5q119 0 218.5 -31t179 -86t139.5 -129t99.5 -159.5t59.5 -179t20 -186.5q0 -102 -22.5 -195.5t-65.5 -174.5t-104.5 -147t-139.5 -113.5t-171.5 -73t-198.5 -25.5q-63 0 -139 12.5t-157 48t-163 99.5
t-157 168z" />
    <glyph glyph-name="afii10048" unicode="&#x42e;" horiz-adv-x="2292" 
d="M102 0v135q34 2 61.5 7t46 22t28.5 52t10 97v785q0 28 0.5 55t1.5 51.5t2.5 44.5t3.5 33q-17 -1 -39 -2l-44 -2t-41 -1.5t-30 -0.5v158h588v-135q-35 -2 -62 -7t-45.5 -22t-28.5 -52t-10 -97v-321h280q8 80 32.5 161t65 155t97.5 138t130 111.5t163 74.5t197 27
q124 0 225.5 -32t180.5 -87t136.5 -128.5t95.5 -156.5t56 -172t18 -174t-19.5 -173.5t-59 -171.5t-99 -157t-139.5 -129t-180 -87t-221 -32q-116 0 -209.5 27t-167 74t-128 111.5t-91 139.5t-57.5 157t-27 166l-279 -4v-302q0 -28 -0.5 -55t-1.5 -51.5t-2.5 -44.5t-3.5 -33
q16 1 38.5 2t44.5 1.5t41 1.5t30 1v-158h-588zM1142 741q0 -64 8.5 -135t27 -141t48 -133t72 -111t98.5 -76.5t128 -27.5q71 0 126 25t96.5 66.5t70.5 97.5t47 118.5t26 128.5t8 129q0 141 -25 258.5t-76 202t-129.5 131t-185.5 43.5q-64 -2 -114.5 -27.5t-88 -68.5
t-64 -99.5t-42.5 -120t-23.5 -130.5t-7.5 -130z" />
    <glyph glyph-name="afii10049" unicode="&#x42f;" horiz-adv-x="1508" 
d="M65 0v135q34 2 69.5 20t70 47.5t67 69.5t62.5 85l77 118q21 34 41.5 59t43 42.5t47 29.5t51.5 20q-180 54 -267.5 148.5t-91.5 236.5q-3 101 38 180.5t118 134.5t187 82.5t245 25.5h583v-158q-11 0 -30 0.5t-41 1.5t-44.5 2t-38.5 2q2 -13 3.5 -33t2.5 -44.5t1.5 -51.5
t0.5 -55v-785q0 -62 10 -97t28.5 -52t45.5 -22t62 -7v-135h-608v158q11 0 33.5 -1t48 -1.5t50.5 -1.5t42 -2q-2 13 -3.5 33t-2.5 44.5t-1.5 52t-0.5 55.5v221q-45 -1 -80.5 -5t-66.5 -18.5t-60 -43t-60 -77.5l-131 -206q-20 -31 -49 -67t-58.5 -67t-55 -52t-37.5 -22h-301z
M551 1017q0 -148 78.5 -230t242.5 -82q25 0 47.5 2t44.5 4v583h-138q-61 0 -111.5 -13t-87 -44.5t-56.5 -85t-20 -134.5z" />
    <glyph glyph-name="afii10065" unicode="&#x430;" horiz-adv-x="1057" 
d="M62 240q0 65 23 117t63.5 93t95.5 71t118.5 50t132.5 31t138 14v107q0 41 -7 75.5t-24 59.5t-45 39t-70 13q-42 -2 -78 -17t-62 -42q16 -17 20.5 -39t4.5 -37q0 -22 -8 -44.5t-25 -41t-43 -30.5t-62 -12q-30 1 -54 12.5t-40 30t-24.5 43.5t-8.5 54q0 60 33.5 110t92 85.5
t137.5 55t169 19.5t160.5 -23t119 -71t74 -122t25.5 -176q0 -52 -0.5 -91.5t-0.5 -76t-0.5 -76.5t-0.5 -92q0 -15 -0.5 -36t-1 -45t-2 -49.5t-3.5 -48.5l132 6v-156h-387q-4 29 -5.5 48.5t-2.5 45.5h-2q-70 -70 -146 -98.5t-157 -28.5q-66 0 -118 20.5t-87.5 57.5
t-54.5 86.5t-19 108.5zM354 274q1 -29 11 -49t25.5 -33t36 -19t42.5 -6q48 0 89 20t73 55l1 229q-58 -6 -109 -21t-88.5 -39.5t-59 -58.5t-21.5 -78z" />
    <glyph glyph-name="afii10066" unicode="&#x431;" horiz-adv-x="1159" 
d="M83 641q0 103 16.5 210.5t49 203.5t82 173.5t115.5 119.5t136.5 63t136 33.5t121.5 22t94 27.5q12 6 22 12t19 15t18.5 22t21.5 33l96 -32q-17 -78 -32.5 -130.5t-33.5 -86t-42 -53t-57 -32.5q-40 -12 -79 -15.5t-82 -7t-93 -11t-111 -27.5q-103 -33 -175 -145t-95 -304
l8 -1q29 67 73.5 115.5t98.5 79.5t114 46t121 15q99 0 185 -30t149 -88.5t99 -143.5t36 -194q0 -129 -37.5 -233.5t-104 -178t-159 -113t-201.5 -39.5q-110 0 -203.5 42.5t-161.5 126.5t-106.5 210.5t-38.5 294.5zM374 544q0 -78 13.5 -155.5t41 -139.5t68.5 -100t96 -37
q61 1 99.5 34t61 85.5t31 117.5t8.5 131q0 62 -10.5 127t-36 118t-67 86t-104.5 32q-52 -1 -90 -27.5t-62.5 -69t-36.5 -95.5t-12 -107z" />
    <glyph glyph-name="afii10067" unicode="&#x432;" horiz-adv-x="1186" 
d="M85 890l3 136h615q350 2 350 -244q0 -81 -41 -141t-138 -96v-2q129 -29 188 -95.5t59 -158.5q0 -71 -29.5 -125t-81.5 -90.5t-123.5 -55t-155.5 -18.5h-645v133q27 1 49.5 4.5t38.5 16t25 37t9 68.5v504q0 40 1.5 76t4.5 55q-13 -1 -31.5 -1.5l-37 -1t-35 -1t-25.5 -0.5z
M486 139h49h53t49.5 0.5t39.5 1.5q84 4 122.5 46t38.5 107q0 46 -15 77t-40 49.5t-57 26.5t-65 8h-87.5t-75.5 -2v-191q0 -38 -4.5 -68t-7.5 -55zM498 579l95 3q61 3 99 16.5t59 36.5t28 54.5t7 69.5q0 42 -12 69t-36.5 42.5t-61 21.5t-85.5 5q-20 0 -37 -3t-29.5 -13
t-19.5 -30t-7 -54v-218z" />
    <glyph glyph-name="afii10068" unicode="&#x433;" horiz-adv-x="1016" 
d="M85 868v156h858l8 -373h-133q0 65 -11.5 106.5t-34 65.5t-56.5 33t-80 9h-136v-536q0 -15 -0.5 -36t-1.5 -45t-2.5 -49.5t-3.5 -48.5l173 6v-156h-577v133q43 0 67.5 13t36.5 37t15 57.5t3 74.5v380q0 15 0.5 36t1.5 45t2.5 49.5t3.5 48.5q-17 -1 -35.5 -2t-36.5 -2
t-34 -1.5t-27 -0.5z" />
    <glyph glyph-name="afii10069" unicode="&#x434;" horiz-adv-x="1369" 
d="M45 160h104q48 0 84 29t62 82q16 32 29.5 77t26 97.5t22.5 111t18 116t13 111.5t8 100l-194 -16v156h1014v-133q-43 0 -67.5 -13.5t-36.5 -37.5t-15 -57.5t-3 -73.5v-380q0 -15 -0.5 -36t-1.5 -45t-2.5 -49t-3.5 -48l212 9v-534h-134q1 80 -7 148.5t-26 118.5t-47 78.5
t-69 28.5h-703q-40 0 -69 -28.5t-47 -78.5t-26 -118.5t-7 -148.5h-134v534zM386 160h322q43 0 67.5 13t36.5 37t15 57.5t3 74.5v354q0 15 0.5 34.5t1.5 42t2.5 46t3.5 45.5h-172q-50 0 -75.5 -17.5t-32.5 -68.5l-26 -198q-17 -124 -54.5 -232t-91.5 -188z" />
    <glyph glyph-name="afii10070" unicode="&#x435;" horiz-adv-x="1110" 
d="M64 510q0 108 36.5 206.5t103.5 174.5t161.5 121t210.5 45q57 0 113.5 -10t108 -33.5t96 -61.5t76.5 -94t50.5 -132t17.5 -175l-673 -12q0 -84 15.5 -155.5t49.5 -123t89 -81t135 -29.5q31 0 69 8t77.5 26t79.5 47.5t75 72.5l92 -87q-55 -79 -117 -128t-124.5 -76
t-123 -36.5t-112.5 -9.5q-113 0 -206 38t-160 109t-103.5 171t-36.5 225zM378 683h377q-2 63 -15 107t-35.5 71.5t-52.5 39.5t-66 12q-45 0 -80.5 -17t-61.5 -47t-42.5 -72.5t-23.5 -93.5z" />
    <glyph glyph-name="afii10072" unicode="&#x436;" horiz-adv-x="1801" 
d="M37 0v133q31 0 60 16.5t53.5 39.5t43.5 47.5t31 40.5l137 179q22 28 39.5 49t33.5 36t30.5 25t30.5 18v2l-131 146q-22 24 -50 50t-63.5 48.5t-79.5 39.5t-99 23v131h466v-156l-109 2v-2q19 -17 36.5 -36.5t43.5 -49.5l146 -170h106v83q0 15 0.5 36t1.5 45t2.5 49.5
t3.5 48.5l-103 -6v156h464v-133q-36 0 -56.5 -13.5t-30.5 -37.5t-12.5 -57.5t-2.5 -73.5v-97h120l146 170q26 30 43.5 49.5t36.5 36.5v2l-109 -2v156h462v-131q-55 -6 -99 -23t-79.5 -39.5t-63.5 -48.5t-50 -50l-131 -146v-2q16 -8 30.5 -18t30.5 -25t33.5 -36t39.5 -49
l137 -179q12 -16 31 -40.5t43.5 -47.5t53 -39.5t60.5 -16.5v-133h-230q-33 0 -60.5 12t-54 34.5t-54 56t-59.5 76.5q-27 36 -57 78t-57.5 82t-51.5 74.5t-39 55.5l-72 -2v-138q0 -15 -0.5 -36t-1.5 -45t-2.5 -49.5t-3.5 -48.5l109 6v-156h-470v133q36 0 56.5 13t30.5 37
t12.5 57.5t2.5 74.5v152l-62 2q-15 -21 -39 -55.5t-51.5 -74.5t-57.5 -82t-57 -78q-32 -43 -59.5 -76.5t-54 -56t-54 -34.5t-60.5 -12h-230z" />
    <glyph glyph-name="afii10073" unicode="&#x437;" horiz-adv-x="1077" 
d="M85 245q0 31 9.5 59.5t27.5 50t44.5 34t61.5 13.5q37 1 63 -11.5t41.5 -32.5t22.5 -44t7 -45q0 -18 -6 -43.5t-19 -45.5q22 -39 72 -60t111 -21q97 0 152.5 51.5t55.5 145.5q0 48 -14 80t-37.5 51.5t-53.5 28t-62 8.5h-164v128h119q50 0 83 13.5t53 37t28 54t8 64.5
q0 45 -12 77t-32.5 52t-47.5 29t-57 9t-64.5 -10.5t-68 -37.5t-63 -74.5t-48.5 -121.5h-132v362h156l-3 -58h2q60 35 123 52t142 19q174 3 271 -65t97 -198q0 -80 -41 -141t-132 -99v-7q122 -30 178 -96t56 -153q0 -78 -40 -140.5t-108 -106t-159.5 -66t-194.5 -21.5
q-107 1 -186.5 25t-132.5 63t-79.5 88.5t-26.5 102.5z" />
    <glyph glyph-name="afii10074" unicode="&#x438;" horiz-adv-x="1347" 
d="M80 868v156h537v-133q-43 0 -67.5 -13.5t-36.5 -37.5t-15 -57.5t-3 -73.5v-263l377 359q1 18 2 35.5t3 33.5q-17 -1 -35.5 -2t-36.5 -2t-34 -1.5t-27 -0.5v156h537v-133q-43 0 -67.5 -13.5t-36.5 -37.5t-15 -57.5t-3 -73.5v-380q0 -15 -0.5 -36t-1.5 -45t-2.5 -49.5
t-3.5 -48.5q16 1 35 2t37 1.5t34 1.5t27 1v-156h-537v133q43 0 67.5 13t36.5 37t15 57.5t3 74.5v292l-376 -362q-1 -24 -2.5 -48t-3.5 -47q16 1 35 2t37 1.5t34 1.5t27 1v-156h-537v133q43 0 67.5 13t36.5 37t15 57.5t3 74.5v380q0 15 0.5 36t1.5 45t2.5 49.5t3.5 48.5
q-17 -1 -35.5 -2t-36.5 -2t-34 -1.5t-27 -0.5z" />
    <glyph glyph-name="afii10075" unicode="&#x439;" horiz-adv-x="1347" 
d="M80 868v156h537v-133q-43 0 -67.5 -13.5t-36.5 -37.5t-15 -57.5t-3 -73.5v-263l377 359q1 18 2 35.5t3 33.5q-17 -1 -35.5 -2t-36.5 -2t-34 -1.5t-27 -0.5v156h537v-133q-43 0 -67.5 -13.5t-36.5 -37.5t-15 -57.5t-3 -73.5v-380q0 -15 -0.5 -36t-1.5 -45t-2.5 -49.5
t-3.5 -48.5q16 1 35 2t37 1.5t34 1.5t27 1v-156h-537v133q43 0 67.5 13t36.5 37t15 57.5t3 74.5v292l-376 -362q-1 -24 -2.5 -48t-3.5 -47q16 1 35 2t37 1.5t34 1.5t27 1v-156h-537v133q43 0 67.5 13t36.5 37t15 57.5t3 74.5v380q0 15 0.5 36t1.5 45t2.5 49.5t3.5 48.5
q-17 -1 -35.5 -2t-36.5 -2t-34 -1.5t-27 -0.5zM362 1406q0 56 29 91.5t87 34.5q37 0 60 -14.5t36.5 -34t18 -40t4.5 -32.5q-1 -18 -6.5 -38.5t-16.5 -41.5q27 -24 53 -33t61 -9t61.5 9t52.5 33q-11 21 -16.5 41.5t-6.5 38.5q0 12 4.5 32.5t18 40t36.5 34t60 14.5
q58 1 87 -34.5t29 -91.5q0 -52 -24 -92.5t-67.5 -68.5t-103 -43t-131.5 -15t-131.5 15t-103 43t-67.5 68.5t-24 92.5z" />
    <glyph glyph-name="afii10076" unicode="&#x43a;" horiz-adv-x="1216" 
d="M49 868v156h537v-133q-43 0 -67.5 -13.5t-36.5 -37.5t-15 -57.5t-3 -73.5v-97h100l146 170q26 30 43.5 49.5t36.5 36.5v2l-109 -2v156h462v-131q-55 -6 -99 -23t-79.5 -39.5t-63.5 -48.5t-50 -50l-131 -146v-2q16 -8 30.5 -18t30.5 -25t33.5 -36t39.5 -49l137 -179
q12 -16 31 -40.5t43.5 -47.5t53 -39.5t60.5 -16.5v-133h-235q-33 0 -60.5 12t-54 34.5t-54 56t-59.5 76.5q-27 36 -57 78t-57.5 82t-51.5 74.5t-39 55.5l-47 -2v-138q0 -15 -0.5 -36t-1.5 -45t-2.5 -49.5t-3.5 -48.5q16 1 35 2t37 1.5t34 1.5t27 1v-156h-537v133
q43 0 67.5 13t36.5 37t15 57.5t3 74.5v380q0 15 0.5 36t1.5 45t2.5 49.5t3.5 48.5q-17 -1 -35.5 -2t-36.5 -2t-34 -1.5t-27 -0.5z" />
    <glyph glyph-name="afii10077" unicode="&#x43b;" horiz-adv-x="1376" 
d="M10 156q0 67 39 103t102 36q33 0 56.5 -10t38 -25.5t21 -35.5t6.5 -39q0 -26 -6.5 -40t-15.5 -24q8 -7 22 -7q24 0 53.5 30.5t58 105.5t51.5 200t35 314l7 120l-196 -16v156h1006v-133q-43 0 -67.5 -13.5t-36.5 -37.5t-15 -57.5t-3 -73.5v-380q0 -15 -0.5 -36t-1.5 -45
t-2.5 -49.5t-3.5 -48.5l133 6v-156h-527v133q43 0 67.5 13t36.5 37t15 57.5t3 74.5v380q0 15 0.5 34.5t1.5 42t2.5 46t3.5 45.5h-164q-50 0 -71.5 -17.5t-24.5 -67.5q-24 -410 -125.5 -608t-281.5 -198q-47 0 -87 13.5t-69 37.5t-45 58t-16 75z" />
    <glyph glyph-name="afii10078" unicode="&#x43c;" horiz-adv-x="1638" 
d="M58 0v133q33 1 57 7t40.5 18.5t26.5 33.5t14 53l70 535q4 29 6.5 52.5t7.5 41.5l-162 -6v156h400l235 -562q16 -38 36 -85t37 -87q12 33 23.5 66t24.5 68l218 600h405v-115q-65 -3 -95 -28.5t-20 -82.5l93 -528q5 -29 6.5 -60t-0.5 -60l112 6v-156h-487v133q32 0 56 5
t39 17.5t20 34t-1 54.5l-88 481l-273 -725h-163l-224 537q-20 49 -36 90.5t-32 89.5q0 -27 -1 -52t-3 -50.5t-5.5 -53t-8.5 -59.5l-42 -263q-4 -25 -8 -45.5t-10 -42.5l134 4v-155h-402z" />
    <glyph glyph-name="afii10079" unicode="&#x43d;" horiz-adv-x="1364" 
d="M85 868v156h527v-133q-43 0 -67.5 -13.5t-36.5 -37.5t-15 -57.5t-3 -73.5v-106h384v92q0 15 0.5 36t1.5 45t2.5 49.5t3.5 48.5l-133 -6v156h527v-133q-43 0 -67.5 -13.5t-36.5 -37.5t-15 -57.5t-3 -73.5v-380q0 -15 -0.5 -36t-1.5 -45t-2.5 -49.5t-3.5 -48.5l133 6v-156
h-527v133q43 0 67.5 13t36.5 37t15 57.5t3 74.5v126h-384v-112q0 -15 -0.5 -36t-1.5 -45t-2.5 -49.5t-3.5 -48.5l133 6v-156h-527v133q43 0 67.5 13t36.5 37t15 57.5t3 74.5v380q0 15 0.5 36t1.5 45t2.5 49.5t3.5 48.5z" />
    <glyph glyph-name="afii10080" unicode="&#x43e;" horiz-adv-x="1198" 
d="M64 489q0 127 41 232t111.5 179.5t164.5 115.5t199 41q110 0 204.5 -36t163.5 -104t108.5 -165.5t39.5 -220.5q0 -129 -37.5 -233.5t-105 -178t-161.5 -113t-206 -39.5q-111 0 -206.5 36.5t-165.5 104t-110 164t-40 217.5zM365 544q0 -79 12.5 -156.5t40 -138.5t71 -99
t105.5 -38q61 1 99.5 34t61 85.5t31 117.5t8.5 131q0 76 -10.5 153.5t-36 139.5t-67 101t-104.5 39q-60 -2 -100 -34.5t-65 -84.5t-35.5 -117.5t-10.5 -132.5z" />
    <glyph glyph-name="afii10081" unicode="&#x43f;" horiz-adv-x="1354" 
d="M85 868v156h1181v-133q-43 0 -67.5 -13.5t-36.5 -37.5t-15 -57.5t-3 -73.5v-380q0 -15 -0.5 -36t-1.5 -45t-2.5 -49.5t-3.5 -48.5l133 6v-156h-527v133q43 0 67.5 13t36.5 37t15 57.5t3 74.5v381q0 15 0.5 34.5t1.5 42t2.5 46t3.5 45.5h-260q-43 0 -67.5 -11t-36.5 -31.5
t-15 -49t-3 -62.5v-381q0 -15 -0.5 -36t-1.5 -45t-2.5 -49.5t-3.5 -48.5l133 6v-156h-527v133q43 0 67.5 13t36.5 37t15 57.5t3 74.5v380q0 15 0.5 36t1.5 45t2.5 49.5t3.5 48.5z" />
    <glyph glyph-name="afii10082" unicode="&#x440;" horiz-adv-x="1223" 
d="M51 828v155q71 0 125 6t92.5 15t62 19.5t34.5 20.5h101l10 -98h3q70 62 140 86.5t134 24.5q92 0 168 -36.5t130.5 -104t84.5 -163.5t30 -215q0 -124 -36.5 -228.5t-103 -180.5t-160 -119t-207.5 -43q-57 0 -100.5 11.5t-81.5 25.5v-197q0 -15 -0.5 -36t-1.5 -45
t-2.5 -49.5t-3.5 -48.5l133 6v-156h-537v133q43 0 67.5 13t36.5 37t15 57.5t3 74.5v867q0 37 1.5 82.5t6.5 91.5zM477 158q10 -8 26.5 -15t36 -12t41.5 -8t44 -3q71 0 117.5 32.5t74 86.5t38.5 124t11 144q0 72 -13 138t-40 116.5t-69.5 80.5t-101.5 30q-51 -2 -94.5 -26
t-70.5 -63v-625z" />
    <glyph glyph-name="afii10083" unicode="&#x441;" horiz-adv-x="1090" 
d="M64 490q0 115 39 218.5t109 180.5t168 122.5t217 45.5q97 0 171 -24t123.5 -63t74.5 -89.5t25 -104.5q0 -31 -9.5 -59t-28 -49t-45.5 -33t-61 -12q-38 0 -63 13t-41 32.5t-22.5 43t-6.5 44.5q0 18 6 43.5t19 45.5q-11 20 -28.5 33t-37 21t-39 11t-34.5 3q-52 0 -95 -23.5
t-74.5 -70t-49 -114.5t-17.5 -157q0 -78 14.5 -150t47.5 -127t87 -88t133 -33q41 0 82.5 11.5t79.5 32t72.5 49.5t61.5 64l94 -91q-56 -77 -115 -125.5t-119 -76t-119 -37.5t-115 -10q-104 0 -195.5 35t-160 102t-108.5 164t-40 222z" />
    <glyph glyph-name="afii10084" unicode="&#x442;" horiz-adv-x="1202" 
d="M35 651l8 373h1116l8 -373h-133q0 61 -11.5 101.5t-34 65.5t-56.5 35.5t-80 10.5h-106v-535q0 -15 -0.5 -36t-1.5 -45t-2.5 -49.5t-3.5 -48.5l133 6v-156h-537v133q43 0 67.5 13t36.5 37t15 57.5t3 74.5v380q0 13 0.5 32.5t1 42t2 47t3.5 47.5h-113q-46 0 -80 -10.5
t-56.5 -35.5t-34 -65.5t-11.5 -101.5h-133z" />
    <glyph glyph-name="afii10085" unicode="&#x443;" horiz-adv-x="1081" 
d="M10 868v156h510v-131q-48 -6 -67 -28t-19 -52q0 -19 6 -39.5t15 -40.5l200 -459h2q9 26 22 68t29.5 95.5t36 116t41.5 129.5q6 19 15 44.5t20.5 52.5t24.5 52t27 42v2l-117 -8v156h364v-131q-64 -16 -105.5 -78.5t-73.5 -155.5l-257 -731q-43 -125 -82 -216.5t-82 -150.5
t-95 -87.5t-121 -28.5q-40 0 -74 12t-59 34t-39.5 53t-14.5 69q0 28 10 53.5t27.5 45t42 31t53.5 11.5q21 0 40 -8.5t33.5 -23.5t23 -36t8.5 -46q0 -13 -3 -28v-2q21 0 44 28.5t46.5 75t45 107t39.5 125.5l-325 649q-29 57 -47 99t-28.5 73.5t-15 56.5t-7.5 48z" />
    <glyph glyph-name="afii10086" unicode="&#x444;" horiz-adv-x="1635" 
d="M63 493q0 128 36 231.5t102 176.5t159.5 112.5t208.5 39.5q54 0 103 -25v129q0 37 1.5 85t6.5 94l-144 -6v155q71 0 125.5 6t93 15t62 19.5t34.5 20.5h111v-512q60 19 144 19q96 0 180.5 -36t147.5 -104t100 -165.5t37 -220.5q0 -128 -36 -231.5t-102 -176.5
t-159.5 -112.5t-208.5 -39.5q-54 0 -103 25v-186q0 -15 -0.5 -36t-1.5 -45t-2.5 -49.5t-3.5 -48.5l133 6v-156h-537v133q43 0 67.5 13t36.5 37t15 57.5t3 74.5v194q-60 -19 -144 -19q-96 0 -180.5 36t-147.5 104t-100 165.5t-37 220.5zM365 544q0 -50 5 -102t16 -100.5
t28.5 -90.5t41.5 -73.5t55.5 -49.5t71.5 -17q30 1 51 6.5t38 15.5v724q-24 25 -51.5 38.5t-59.5 12.5q-60 -1 -98 -34t-60 -84.5t-30 -116t-8 -129.5zM962 163q24 -25 51.5 -38.5t59.5 -12.5q60 1 98 33.5t60 84.5t30 116.5t8 129.5q0 50 -5 102t-16 100.5t-28.5 90.5
t-41.5 73.5t-56 49.5t-71 17q-30 -1 -51 -6.5t-38 -15.5v-724z" />
    <glyph glyph-name="afii10087" unicode="&#x445;" horiz-adv-x="1085" 
d="M43 868v156h454v-131q-27 -2 -39 -11t-12 -23q0 -16 12 -36t32 -43l95 -110h2l77 93q25 30 49.5 58.5t50.5 52.5v2l-99 -8v156h361v-131q-63 -26 -111.5 -66.5t-94.5 -96.5l-137 -168l238 -277q28 -32 53 -64t45 -69l70 4v-156h-483v131q36 2 52 11.5t16 25.5
q-2 28 -35 64l-121 128h-2l-95 -114q-5 -7 -16.5 -20.5t-25.5 -28.5t-27.5 -28t-22.5 -19v-2l93 8v-156h-339v131q42 17 78 51.5t78 82.5l178 204l-200 236q-13 15 -30.5 36t-35 44t-31.5 46t-20 41z" />
    <glyph glyph-name="afii10088" unicode="&#x446;" horiz-adv-x="1401" 
d="M85 868v156h527v-133q-43 0 -67.5 -13.5t-36.5 -37.5t-15 -57.5t-3 -73.5v-381q0 -15 -0.5 -34.5t-1.5 -42t-2.5 -46t-3.5 -45.5h260q43 0 67.5 11t36.5 31.5t15 48.5t3 63v381q0 15 0.5 36t1.5 45t2.5 49.5t3.5 48.5l-133 -6v156h527v-133q-43 0 -67.5 -13.5
t-36.5 -37.5t-15 -57.5t-3 -73.5v-380q0 -15 -0.5 -36t-1.5 -45t-2.5 -49.5t-3.5 -48.5l210 9v-533h-134q1 103 -9.5 174t-32 115.5t-53 64.5t-71.5 20h-958v133q43 0 67.5 13t36.5 37t15 57.5t3 74.5v380q0 15 0.5 36t1.5 45t2.5 49.5t3.5 48.5z" />
    <glyph glyph-name="afii10089" unicode="&#x447;" horiz-adv-x="1264" 
d="M40 868v156h513v-133q-24 -2 -42.5 -6.5t-31 -17t-18.5 -34.5t-6 -58q0 -53 9 -97t30 -76t54.5 -50t81.5 -18q42 0 77 5t67 14v142q0 15 0.5 36t1.5 45t2.5 49.5t3.5 48.5l-83 -6v156h477v-133q-43 0 -67.5 -13.5t-36.5 -37.5t-15 -57.5t-3 -73.5v-380q0 -15 -0.5 -36
t-1.5 -45t-2.5 -49.5t-3.5 -48.5l133 6v-156h-527v133q43 0 67.5 13t36.5 37t15 57.5t3 74.5v77q-55 -23 -114.5 -35t-127.5 -12q-85 0 -153 27.5t-115.5 74.5t-73 110t-25.5 134q0 53 1.5 94.5t6.5 88.5z" />
    <glyph glyph-name="afii10090" unicode="&#x448;" horiz-adv-x="1852" 
d="M85 868v156h517v-133q-39 0 -61.5 -13.5t-34 -37.5t-14 -57.5t-2.5 -73.5v-380q0 -15 -0.5 -34.5t-1.5 -42t-2.5 -46t-3.5 -45.5h182q43 0 67.5 11t36.5 31.5t15 48.5t3 63v380q0 15 0.5 36t1.5 45t2.5 49.5t3.5 48.5l-103 -6v156h487v-133q-39 0 -61.5 -13.5t-34 -37.5
t-14 -57.5t-2.5 -73.5v-380q0 -29 -1.5 -75.5t-6.5 -92.5h182q43 0 67.5 11t36.5 31.5t15 48.5t3 63v380q0 15 0.5 36t1.5 45t2.5 49.5t3.5 48.5l-103 -6v156h497v-133q-43 0 -67.5 -13.5t-36.5 -37.5t-15 -57.5t-3 -73.5v-380q0 -15 -0.5 -36t-1.5 -45t-2.5 -49.5
t-3.5 -48.5l133 6v-156h-1679v133q43 0 67.5 13t36.5 37t15 57.5t3 74.5v380q0 15 0.5 36t1.5 45t2.5 49.5t3.5 48.5z" />
    <glyph glyph-name="afii10091" unicode="&#x449;" horiz-adv-x="1899" 
d="M85 868v156h517v-133q-39 0 -61.5 -13.5t-34 -37.5t-14 -57.5t-2.5 -73.5v-380q0 -15 -0.5 -34.5t-1.5 -42t-2.5 -46t-3.5 -45.5h182q43 0 67.5 11t36.5 31.5t15 48.5t3 63v380q0 15 0.5 36t1.5 45t2.5 49.5t3.5 48.5l-103 -6v156h487v-133q-39 0 -61.5 -13.5t-34 -37.5
t-14 -57.5t-2.5 -73.5v-380q0 -29 -1.5 -75.5t-6.5 -92.5h182q43 0 67.5 11t36.5 31.5t15 48.5t3 63v380q0 15 0.5 36t1.5 45t2.5 49.5t3.5 48.5l-103 -6v156h497v-133q-43 0 -67.5 -13.5t-36.5 -37.5t-15 -57.5t-3 -73.5v-380q0 -15 -0.5 -36t-1.5 -45t-2.5 -49.5
t-3.5 -48.5l210 9v-533h-134q1 103 -9.5 174t-32 115.5t-53 64.5t-71.5 20h-1456v133q43 0 67.5 13t36.5 37t15 57.5t3 74.5v380q0 15 0.5 36t1.5 45t2.5 49.5t3.5 48.5z" />
    <glyph glyph-name="afii10092" unicode="&#x44a;" horiz-adv-x="1359" 
d="M35 651l8 373h795v-133q-43 0 -67.5 -13.5t-36.5 -37.5t-15 -57.5t-3 -73.5l2 -90l93 3q138 4 227.5 -17.5t142 -62.5t73 -97.5t20.5 -120.5q0 -84 -28.5 -145t-77.5 -101t-115 -59t-139 -19h-600v133q27 1 49.5 4.5t38.5 16t25 37t9 68.5v436q0 14 0.5 34t1 42.5t2 46.5
t3.5 46h-93q-46 0 -80 -10.5t-56.5 -35.5t-34 -65.5t-11.5 -101.5h-133zM704 139h79t72 2q61 4 100 48t41 125q1 46 -11 80t-33.5 56.5t-50.5 33.5t-62 11q-20 0 -36.5 -0.5t-30.5 -0.5h-27.5t-28.5 -1v-231q0 -38 -4.5 -68t-7.5 -55z" />
    <glyph glyph-name="afii10093" unicode="&#x44b;" horiz-adv-x="1735" 
d="M85 868v156h527v-133q-43 0 -67.5 -13.5t-36.5 -37.5t-15 -57.5t-3 -73.5l2 -90l93 3q138 4 227.5 -17.5t142 -62.5t73 -97.5t20.5 -120.5q0 -84 -28.5 -145t-77.5 -101t-115 -59t-139 -19h-600v133q27 1 49.5 4.5t38.5 16t25 37t9 68.5v436q0 15 0.5 36t1.5 45t2.5 49.5
t3.5 48.5q-17 -1 -35.5 -2t-36.5 -2t-34 -1.5t-27 -0.5zM478 139h78.5t71.5 2q61 4 100 48t41 125q1 46 -11 80t-33.5 56.5t-50.5 33.5t-62 11q-20 0 -36 -0.5t-30 -0.5h-27.5t-28.5 -1v-231q0 -38 -4.5 -68t-7.5 -55zM1120 868v156h527v-133q-43 0 -67.5 -13.5t-36.5 -37.5
t-15 -57.5t-3 -73.5v-380q0 -15 -0.5 -36t-1.5 -45t-2.5 -49.5t-3.5 -48.5q16 1 35 2t37 1.5t34 1.5t27 1v-156h-527v133q43 0 67.5 13t36.5 37t15 57.5t3 74.5v380q0 15 0.5 36t1.5 45t2.5 49.5t3.5 48.5q-17 -1 -35.5 -2t-36.5 -2t-34 -1.5t-27 -0.5z" />
    <glyph glyph-name="afii10094" unicode="&#x44c;" horiz-adv-x="1153" 
d="M85 868v156h527v-133q-43 0 -67.5 -13.5t-36.5 -37.5t-15 -57.5t-3 -73.5v-90l95 3q145 4 239 -17.5t148 -62.5t75 -97.5t21 -120.5q0 -84 -28.5 -145t-77.5 -101t-115 -59t-139 -19h-620v133q27 1 49.5 4.5t38.5 16t25 37t9 68.5v436q0 15 0.5 36t1.5 45t2.5 49.5
t3.5 48.5q-17 -1 -35.5 -2t-36.5 -2t-34 -1.5t-27 -0.5zM478 139h81t75 2q73 4 114 48t42 125q1 92 -47.5 137t-124.5 44h-68.5t-59.5 -2v-231q0 -38 -4.5 -68t-7.5 -55z" />
    <glyph glyph-name="afii10095" unicode="&#x44d;" horiz-adv-x="1106" 
d="M65 248q0 30 9 57.5t27 49t43.5 34t58.5 12.5q39 0 66 -13t43 -32.5t23 -43t7 -44.5q0 -18 -6 -43.5t-19 -45.5q32 -45 76 -61t96 -14q134 3 203 96.5t75 262.5l-426 -5v143h420q-19 144 -86.5 208.5t-173.5 64.5q-102 0 -165.5 -51t-78.5 -139h-132v362h156l-5 -101h2
q66 55 142.5 82t156.5 27q90 0 173.5 -33.5t148.5 -99.5t104 -163t39 -224q0 -116 -38 -219t-111.5 -180t-180 -122.5t-243.5 -45.5q-101 0 -177 24t-126 63t-75.5 89.5t-25.5 104.5z" />
    <glyph glyph-name="afii10096" unicode="&#x44e;" horiz-adv-x="1771" 
d="M83 0v133q43 0 67.5 13t36.5 37t15 57.5t3 74.5v394q0 40 -3 73.5t-15 57.5t-36.5 37.5t-67.5 13.5v133h537v-156q-11 0 -27 0.5t-34 1.5t-37 2t-35 2q2 -23 3.5 -48.5t2.5 -49.5t1.5 -45t0.5 -36v-92h189q17 104 63.5 188t114 143t152 91t177.5 32q110 0 204.5 -36
t163.5 -104t108.5 -165.5t39.5 -220.5q0 -129 -37.5 -233.5t-105 -178t-161.5 -113t-206 -39.5q-106 0 -198 33t-161 94.5t-111.5 149t-49.5 197.5h-182v-112q0 -15 -0.5 -36t-1.5 -45t-2.5 -49.5t-3.5 -48.5q16 1 35 2t37 1.5t34 1.5t27 1v-156h-537zM976 544
q0 -78 12.5 -155.5t40 -139.5t71 -100t105.5 -37q61 1 99.5 34t61 85.5t31 117.5t8.5 131q0 75 -10.5 153t-36 140.5t-67 101.5t-104.5 38q-60 -2 -100 -34.5t-65 -84.5t-35.5 -117.5t-10.5 -132.5z" />
    <glyph glyph-name="afii10097" unicode="&#x44f;" horiz-adv-x="1211" 
d="M45 0v133q31 0 60.5 16.5t54.5 39t43.5 47t29.5 41.5l65 101q29 44 84 62v8q-124 32 -181.5 103t-57.5 167q0 77 28.5 134.5t77.5 95.5t114.5 57t139.5 19h621v-133q-24 -1 -46 -4.5t-39.5 -16t-27.5 -37t-10 -68.5v-436q0 -15 -0.5 -36t-1.5 -45t-2.5 -49.5t-3.5 -48.5
l133 6v-156h-497v133q33 0 51.5 13t27.5 37t11 57.5t2 74.5v91l-95 -2h-4q-12 -17 -28 -43.5t-34.5 -57.5t-39 -63.5t-42.5 -60.5q-32 -43 -59.5 -76.5t-54 -56t-54 -34.5t-60.5 -12h-205zM416 710q-1 -42 11.5 -76t35 -57.5t53.5 -36t67 -11.5l138 2v231q0 73 6 123h-88
t-82 -2q-62 -4 -100.5 -48t-40.5 -125z" />
    <glyph glyph-name="uni0450" unicode="&#x450;" horiz-adv-x="1110" 
d="M64 510q0 108 36.5 206.5t103.5 174.5t161.5 121t210.5 45q57 0 113.5 -10t108 -33.5t96 -61.5t76.5 -94t50.5 -132t17.5 -175l-673 -12q0 -84 15.5 -155.5t49.5 -123t89 -81t135 -29.5q31 0 69 8t77.5 26t79.5 47.5t75 72.5l92 -87q-55 -79 -117 -128t-124.5 -76
t-123 -36.5t-112.5 -9.5q-113 0 -206 38t-160 109t-103.5 171t-36.5 225zM378 683h377q-2 63 -15 107t-35.5 71.5t-52.5 39.5t-66 12q-45 0 -80.5 -17t-61.5 -47t-42.5 -72.5t-23.5 -93.5zM406 1492q0 20 8 40t22 35.5t34 25t43 9.5q35 0 68 -20.5t54 -54.5l168 -286
l-94 -83l-249 216q-24 23 -39 54.5t-15 63.5z" />
    <glyph glyph-name="afii10071" unicode="&#x451;" horiz-adv-x="1110" 
d="M63 510q0 108 36.5 206.5t103.5 174.5t161.5 121t210.5 45q57 0 113.5 -10t108 -33.5t96 -61.5t76.5 -94t50.5 -132t17.5 -175l-673 -12q0 -84 15.5 -155.5t49.5 -123t89 -81t135 -29.5q31 0 69 8t77.5 26t79.5 47.5t75 72.5l92 -87q-55 -79 -117 -128t-124.5 -76
t-123 -36.5t-112.5 -9.5q-113 0 -206 38t-160 109t-103.5 171t-36.5 225zM308 1382q0 32 11 60.5t30 49.5t44 33.5t52 12.5q29 0 54 -12.5t43 -33.5t28 -49.5t10 -60.5t-11 -60t-29.5 -49t-43.5 -33t-52 -12q-28 0 -52.5 12t-43 33t-29.5 49t-11 60zM377 683h377
q-2 63 -15 107t-35.5 71.5t-52.5 39.5t-66 12q-45 0 -80.5 -17t-61.5 -47t-42.5 -72.5t-23.5 -93.5zM664 1382q0 32 11 60.5t30 49.5t44 33.5t52 12.5q29 0 54 -12.5t43 -33.5t28 -49.5t10 -60.5t-11 -60t-29.5 -49t-43.5 -33t-52 -12q-28 0 -52.5 12t-43 33t-29.5 49
t-11 60z" />
    <glyph glyph-name="afii10099" unicode="&#x452;" horiz-adv-x="1247" 
d="M10 1066v156h164q1 28 2.5 57t4.5 57q-17 -1 -37 -2t-40.5 -2t-38 -1.5t-28.5 -0.5v155q71 0 125.5 6t93 15t62 19.5t34.5 20.5h111v-324h379v-152h-379v-227q30 24 68.5 44.5t79 36t80 24.5t70.5 9q94 0 160 -26.5t107 -81.5t59.5 -141t17.5 -204v-467q-1 -142 -34 -247
t-90.5 -174.5t-136.5 -103.5t-171 -34q-57 0 -99 14.5t-69.5 38t-41 53.5t-13.5 62q0 27 8.5 52t25 44.5t40.5 31t55 12.5q32 1 57.5 -11t42 -33t22 -49.5t-1.5 -62.5q5 -4 16.5 -6.5t19.5 -2.5q24 0 40 11t25 31.5t12.5 48.5t3.5 62v733q0 134 -40.5 197.5t-125.5 63.5
q-26 0 -52 -6t-50.5 -16t-46 -24t-38.5 -29v-364q0 -15 -0.5 -36t-1.5 -45t-2.5 -49.5t-3.5 -48.5l133 6v-156h-537v133q43 0 67.5 13t36.5 37t15 57.5t3 74.5v751h-163z" />
    <glyph glyph-name="afii10100" unicode="&#x453;" horiz-adv-x="896" 
d="M85 868v156h858l8 -373h-133q0 65 -11.5 106.5t-34 65.5t-56.5 33t-80 9h-136v-536q0 -15 -0.5 -36t-1.5 -45t-2.5 -49.5t-3.5 -48.5l173 6v-156h-577v133q43 0 67.5 13t36.5 37t15 57.5t3 74.5v380q0 15 0.5 36t1.5 45t2.5 49.5t3.5 48.5q-17 -1 -35.5 -2t-36.5 -2
t-34 -1.5t-27 -0.5zM450 1241l168 286q21 34 53.5 54.5t67.5 20.5q24 0 43.5 -9.5t34 -25t22.5 -35.5t8 -40q0 -32 -15 -63.5t-39 -54.5l-249 -216z" />
    <glyph glyph-name="afii10101" unicode="&#x454;" horiz-adv-x="1060" 
d="M63 490q0 115 36 218.5t105.5 180.5t170.5 122.5t230 45.5q90 0 159.5 -21.5t117 -57.5t72.5 -82.5t25 -96.5q0 -63 -32 -104.5t-94 -43.5q-33 -1 -56 10t-37 28.5t-20 39t-6 40.5q0 16 5.5 38.5t16.5 40.5q-33 34 -70 49.5t-81 15.5q-111 0 -177.5 -86t-73.5 -246h383
v-141l-376 -5q9 -58 29 -109t53 -89.5t80 -61.5t110 -25q43 -2 85.5 9t82.5 31.5t75.5 50t64.5 66.5l94 -91q-56 -77 -115.5 -125.5t-119 -76t-118.5 -37.5t-115 -10q-104 0 -195.5 35t-160 102t-108.5 164t-40 222z" />
    <glyph glyph-name="afii10102" unicode="&#x455;" horiz-adv-x="948" 
d="M80 727q0 59 22.5 118t69.5 106t120 76.5t174 29.5q28 0 60.5 -4t65.5 -12.5t64 -21.5t56 -31h2l-3 58h156v-362h-132q-9 53 -33.5 95.5t-61.5 72t-84.5 45.5t-102.5 16q-26 0 -50.5 -6t-43.5 -19t-30 -33.5t-11 -50.5q0 -36 19 -59.5t53 -40.5t79.5 -31.5t98.5 -32.5
q78 -27 144 -59t114 -74.5t75.5 -97t27.5 -126.5q0 -80 -31.5 -139.5t-83.5 -98.5t-119 -58.5t-139 -19.5q-44 0 -88 6t-84 16.5t-73.5 25.5t-57.5 33h-2l7 -62h-156l-8 352h132q4 -47 30 -88t68 -71t98.5 -47t121.5 -17q25 0 50.5 6t45.5 18.5t32.5 31.5t12.5 46
q0 29 -15.5 49.5t-45.5 38t-74.5 34.5t-102.5 40q-64 25 -129 51.5t-118 64.5t-86.5 93.5t-33.5 138.5z" />
    <glyph glyph-name="afii10103" unicode="&#x456;" horiz-adv-x="575" 
d="M70 828v155q71 0 125.5 6t93 15t62 19.5t34.5 20.5h111v-715q0 -15 -0.5 -36t-1.5 -45t-2.5 -49.5t-3.5 -48.5l133 6v-156h-537v133q43 0 67.5 13t36.5 37t15 57.5t3 74.5v340q0 37 1.5 85t6.5 94zM215 1393q0 35 12.5 66t34 54t49.5 36t60 13q33 0 61.5 -13t49.5 -36
t32.5 -54t11.5 -66t-11 -65t-30.5 -53t-48 -36t-62.5 -13q-35 0 -64.5 13t-50.5 36t-32.5 53t-11.5 65z" />
    <glyph glyph-name="afii10104" unicode="&#x457;" horiz-adv-x="575" 
d="M44 1382q0 32 10 60.5t27.5 49.5t41.5 33.5t51 12.5q29 0 53 -12.5t40.5 -33.5t25.5 -49.5t9 -60.5t-10 -60t-27 -49t-41 -33t-51 -12q-28 0 -51.5 12t-41 33t-27 49t-9.5 60zM70 828v155q71 0 125.5 6t93 15t62 19.5t34.5 20.5h111v-715q0 -15 -0.5 -36t-1.5 -45
t-2.5 -49.5t-3.5 -48.5l133 6v-156h-537v133q43 0 67.5 13t36.5 37t15 57.5t3 74.5v340q0 37 1.5 85t6.5 94zM380 1382q0 32 10 60.5t27.5 49.5t41.5 33.5t51 12.5q29 0 53 -12.5t40.5 -33.5t25.5 -49.5t9 -60.5t-10 -60t-27 -49t-41 -33t-51 -12q-28 0 -51.5 12t-41 33
t-27 49t-9.5 60z" />
    <glyph glyph-name="afii10105" unicode="&#x458;" horiz-adv-x="526" 
d="M-180 -387q0 28 9 53t26 44.5t42 31t57 11.5q54 0 86 -34t32 -88q0 -16 -3 -34q5 -4 16.5 -6.5t19.5 -2.5q28 0 45 15.5t26 39t11.5 50t2.5 48.5l-5 914q0 37 1.5 85t6.5 94l-144 -6v155q71 0 125.5 6t93 15t62 19.5t34.5 20.5h111v-1040q0 -142 -33 -247t-91 -174.5
t-137 -103.5t-171 -34q-57 0 -99 14.5t-69.5 38t-41 53.5t-13.5 62zM183 1393q0 35 12.5 66t34 54t49.5 36t60 13q33 0 61.5 -13t49.5 -36t32.5 -54t11.5 -66t-11 -65t-30.5 -53t-48 -36t-62.5 -13q-35 0 -64.5 13t-50.5 36t-32.5 53t-11.5 65z" />
    <glyph glyph-name="afii10106" unicode="&#x459;" horiz-adv-x="1839" 
d="M20 156q0 67 39 103t102 36q33 0 56.5 -10t38 -25.5t21 -35.5t6.5 -39q0 -26 -6.5 -40t-15.5 -24q8 -7 22 -7q24 0 53.5 30.5t58 105.5t51.5 200t35 314l7 120l-191 -16v156h1001v-133q-43 0 -67.5 -13.5t-36.5 -37.5t-15 -57.5t-3 -73.5v-90l95 3q144 4 237 -17.5
t148 -62.5t76.5 -97.5t21.5 -120.5q0 -84 -29 -145t-79.5 -101t-117 -59t-139.5 -19h-615v133q27 1 49.5 4.5t38.5 16t25 37t9 68.5v436q0 15 0.5 34.5t1.5 42t2.5 46t3.5 45.5h-164q-50 0 -71.5 -17.5t-24.5 -67.5q-24 -410 -125.5 -608t-281.5 -198q-47 0 -87 13.5
t-69 37.5t-45 58t-16 75zM1164 139h86t80 2q64 4 104.5 48t41.5 125q1 46 -12 80t-35 56.5t-52 33.5t-63 11q-41 -1 -74.5 -0.5t-63.5 -1.5v-231q0 -38 -4.5 -68t-7.5 -55z" />
    <glyph glyph-name="afii10107" unicode="&#x45a;" horiz-adv-x="1798" 
d="M85 868v156h527v-133q-43 0 -67.5 -13.5t-36.5 -37.5t-15 -57.5t-3 -73.5v-86h365v72q0 15 0.5 36t1.5 45t2.5 49.5t3.5 48.5l-123 -6v156h517v-133q-43 0 -67.5 -13.5t-36.5 -37.5t-15 -57.5t-3 -73.5v-90l95 3q145 4 239 -17.5t148 -62.5t75 -97.5t21 -120.5
q0 -84 -28.5 -145t-77.5 -101t-115 -59t-139 -19h-620v133q27 1 49.5 4.5t38.5 16t25 37t9 68.5v202h-365v-132q0 -15 -0.5 -36t-1.5 -45t-2.5 -49.5t-3.5 -48.5l113 6v-156h-507v133q43 0 67.5 13t36.5 37t15 57.5t3 74.5v380q0 15 0.5 36t1.5 45t2.5 49.5t3.5 48.5z
M1123 139h91t85 2q77 4 118.5 48t42.5 125q1 46 -12 80t-36 56.5t-56 33.5t-73 11q-41 -1 -79.5 -0.5t-68.5 -1.5v-231q0 -38 -4.5 -68t-7.5 -55z" />
    <glyph glyph-name="afii10108" unicode="&#x45b;" horiz-adv-x="1271" 
d="M10 1066v156h164q1 28 2.5 57t4.5 57q-17 -1 -37 -2t-40.5 -2t-38 -1.5t-28.5 -0.5v155q71 0 125.5 6t93 15t62 19.5t34.5 20.5h111v-324h379v-152h-379v-227q30 24 68.5 44.5t79 36t80 24.5t70.5 9q94 0 159.5 -26.5t107 -81.5t60.5 -141t19 -204v-175q0 -15 -0.5 -36
t-1.5 -45t-2.5 -49.5t-3.5 -48.5q16 1 35 2t37 1.5t34 1.5t27 1v-156h-537v133q43 0 67.5 13t36.5 37t15 57.5t2 74.5v192q-1 134 -41 197.5t-125 63.5q-26 0 -52 -6t-50.5 -16t-46 -24t-38.5 -29v-364q0 -15 -0.5 -36t-1.5 -45t-2.5 -49.5t-3.5 -48.5q16 1 35 2t37 1.5
t34 1.5t27 1v-156h-537v133q43 0 67.5 13t36.5 37t15 57.5t3 74.5v751h-163z" />
    <glyph glyph-name="afii10109" unicode="&#x45c;" horiz-adv-x="1100" 
d="M49 868v156h537v-133q-43 0 -67.5 -13.5t-36.5 -37.5t-15 -57.5t-3 -73.5v-97h100l146 170q26 30 43.5 49.5t36.5 36.5v2l-109 -2v156h462v-131q-55 -6 -99 -23t-79.5 -39.5t-63.5 -48.5t-50 -50l-131 -146v-2q16 -8 30.5 -18t30.5 -25t33.5 -36t39.5 -49l137 -179
q12 -16 31 -40.5t43.5 -47.5t53 -39.5t60.5 -16.5v-133h-235q-33 0 -60.5 12t-54 34.5t-54 56t-59.5 76.5q-27 36 -57 78t-57.5 82t-51.5 74.5t-39 55.5l-47 -2v-138q0 -15 -0.5 -36t-1.5 -45t-2.5 -49.5t-3.5 -48.5q16 1 35 2t37 1.5t34 1.5t27 1v-156h-537v133
q43 0 67.5 13t36.5 37t15 57.5t3 74.5v380q0 15 0.5 36t1.5 45t2.5 49.5t3.5 48.5q-17 -1 -35.5 -2t-36.5 -2t-34 -1.5t-27 -0.5zM490 1241l168 286q21 34 53.5 54.5t67.5 20.5q24 0 43.5 -9.5t34 -25t22.5 -35.5t8 -40q0 -32 -15 -63.5t-39 -54.5l-249 -216z" />
    <glyph glyph-name="uni045D" unicode="&#x45d;" horiz-adv-x="1284" 
d="M81 868v156h537v-133q-43 0 -67.5 -13.5t-36.5 -37.5t-15 -57.5t-3 -73.5v-263l377 359q1 18 2 35.5t3 33.5q-17 -1 -35.5 -2t-36.5 -2t-34 -1.5t-27 -0.5v156h537v-133q-43 0 -67.5 -13.5t-36.5 -37.5t-15 -57.5t-3 -73.5v-380q0 -15 -0.5 -36t-1.5 -45t-2.5 -49.5
t-3.5 -48.5q16 1 35 2t37 1.5t34 1.5t27 1v-156h-537v133q43 0 67.5 13t36.5 37t15 57.5t3 74.5v292l-376 -362q-1 -24 -2.5 -48t-3.5 -47q16 1 35 2t37 1.5t34 1.5t27 1v-156h-537v133q43 0 67.5 13t36.5 37t15 57.5t3 74.5v380q0 15 0.5 36t1.5 45t2.5 49.5t3.5 48.5
q-17 -1 -35.5 -2t-36.5 -2t-34 -1.5t-27 -0.5zM382 1492q0 20 8 40t22 35.5t34 25t43 9.5q35 0 68 -20.5t54 -54.5l168 -286l-94 -83l-249 216q-24 23 -39 54.5t-15 63.5z" />
    <glyph glyph-name="afii10110" unicode="&#x45e;" horiz-adv-x="1128" 
d="M10 868v156h510v-131q-39 -5 -58.5 -20.5t-25 -38t0.5 -49t18 -52.5l200 -459h2q9 26 22 68.5t29.5 95.5t36 115.5t41.5 129.5q6 19 15 44.5t20.5 52.5t24.5 52t27 42v2l-117 -8v156h364v-131q-63 -16 -105 -78.5t-74 -155.5l-257 -731q-43 -125 -81.5 -216.5t-82 -150.5
t-95.5 -87.5t-121 -28.5q-40 0 -74 12t-59 34t-39.5 53t-14.5 69q0 27 9.5 52.5t27 45t41 31t51.5 12.5q24 1 46 -9t37 -29t22 -45.5t1 -58.5v-2q21 0 44 28.5t46.5 75t45 107t39.5 125.5l-325 649q-29 57 -47 99t-28.5 74t-15 56.5t-7.5 47.5zM292 1406q0 56 29 91.5
t87 34.5q37 0 60 -14.5t36.5 -34t18 -40t4.5 -32.5q-1 -18 -6.5 -38.5t-16.5 -41.5q27 -24 53 -33t61 -9t61.5 9t52.5 33q-11 21 -16.5 41.5t-6.5 38.5q0 12 4.5 32.5t18 40t36.5 34t60 14.5q58 1 87 -34.5t29 -91.5q0 -52 -24 -92.5t-67.5 -68.5t-103 -43t-131.5 -15
t-131.5 15t-103 43t-67.5 68.5t-24 92.5z" />
    <glyph glyph-name="afii10193" unicode="&#x45f;" horiz-adv-x="1354" 
d="M85 868v156h527v-133q-43 0 -67.5 -13.5t-36.5 -37.5t-15 -57.5t-3 -73.5v-381q0 -15 -0.5 -34.5t-1.5 -42t-2.5 -46t-3.5 -45.5h260q43 0 67.5 11t36.5 31.5t15 48.5t3 63v381q0 15 0.5 36t1.5 45t2.5 49.5t3.5 48.5l-133 -6v156h527v-133q-43 0 -67.5 -13.5
t-36.5 -37.5t-15 -57.5t-3 -73.5v-380q0 -15 -0.5 -36t-1.5 -45t-2.5 -49.5t-3.5 -48.5l133 6v-156h-523v-374h-134q1 103 -9.5 174t-32 115.5t-53 64.5t-71.5 20h-358v133q43 0 67.5 13t36.5 37t15 57.5t3 74.5v380q0 15 0.5 36t1.5 45t2.5 49.5t3.5 48.5z" />
    <glyph glyph-name="afii10050" unicode="&#x490;" horiz-adv-x="1169" 
d="M102 0v135q34 2 61.5 7t46 22t28.5 52t10 97v785q0 28 0.5 55t1.5 51.5t2.5 44.5t3.5 33q-17 -1 -39 -2l-44 -2t-41 -1.5t-30 -0.5v158h653q42 0 86 9.5t80 38t59.5 80t23.5 134.5h135l-12 -397h-446q-32 0 -57.5 -5.5t-43 -24t-27 -53.5t-9.5 -95v-785q0 -28 -0.5 -55
t-1.5 -51.5t-2.5 -44.5t-3.5 -33q16 1 42.5 2t54 1.5t51 1.5t34.5 1v-158h-616z" />
    <glyph glyph-name="afii10098" unicode="&#x491;" horiz-adv-x="991" 
d="M80 868v156h551q92 0 137 54t45 166h133l-8 -353h-321q-43 0 -67.5 -13.5t-36.5 -37.5t-15 -57.5t-3 -73.5v-380q0 -15 -0.5 -36t-1.5 -45t-2.5 -49.5t-3.5 -48.5l133 6v-156h-537v133q43 0 67.5 13t36.5 37t15 57.5t3 74.5v380q0 15 0.5 36t1.5 45t2.5 49.5t3.5 48.5
q-17 -1 -35.5 -2t-36.5 -2t-34 -1.5t-27 -0.5z" />
    <glyph glyph-name="uni04B0" unicode="&#x4b0;" horiz-adv-x="1365" 
d="M7 1276v158h603v-135q-45 3 -78.5 -5.5t-51 -28.5t-16.5 -51t25 -73l157 -257q7 -12 20.5 -36t29.5 -52.5t30.5 -57.5t22.5 -51h3q10 23 34 72.5t62 127.5l106 209q8 16 21 41t28 52t30.5 52t28.5 41v2q-17 -1 -39.5 -2.5t-45 -2.5t-42 -2t-30.5 -1v158h452v-135
q-36 -6 -65.5 -20t-56.5 -39.5t-53.5 -65t-56.5 -94.5l-265 -509h258v-181h-260v-54q0 -28 -0.5 -55t-1.5 -51.5t-2.5 -44.5t-3.5 -33q16 1 40 2t48 1.5t44.5 1.5t31.5 1v-158h-598v135q34 2 61.5 7t46 22t28.5 52t10 97v72h-266v186h216l-328 516q-15 24 -29 51t-25 53.5
t-17.5 50t-6.5 40.5q-33 -2 -55 -3.5t-44 -2.5z" />
    <glyph glyph-name="uni04B1" unicode="&#x4b1;" horiz-adv-x="1101" 
d="M12 868v156h480v-131q-32 -2 -48 -15.5t-20 -35.5t2 -50t17 -59l172 -424h2l149 422q18 50 33.5 81.5t34.5 61.5v2l-127 -8v156h388v-131q-36 -6 -65.5 -33.5t-53 -64.5t-41 -76.5t-29.5 -70.5l-205 -512v-8h243v-162h-243v-159q0 -15 -0.5 -36t-1.5 -45t-2.5 -49.5
t-3.5 -48.5l133 6v-156h-537v133q43 0 67.5 13t36.5 37t15 57.5t3 74.5v168h-256v167h249l-263 576q-17 38 -25.5 62t-13.5 41.5t-7.5 32t-6.5 32.5z" />
    <glyph glyph-name="uni2000" unicode="&#x2000;" horiz-adv-x="1006" 
 />
    <glyph glyph-name="uni2001" unicode="&#x2001;" horiz-adv-x="2012" 
 />
    <glyph glyph-name="uni2002" unicode="&#x2002;" horiz-adv-x="1006" 
 />
    <glyph glyph-name="uni2003" unicode="&#x2003;" horiz-adv-x="2012" 
 />
    <glyph glyph-name="uni2004" unicode="&#x2004;" horiz-adv-x="670" 
 />
    <glyph glyph-name="uni2005" unicode="&#x2005;" horiz-adv-x="503" 
 />
    <glyph glyph-name="uni2006" unicode="&#x2006;" horiz-adv-x="335" 
 />
    <glyph glyph-name="uni2007" unicode="&#x2007;" horiz-adv-x="335" 
 />
    <glyph glyph-name="uni2008" unicode="&#x2008;" horiz-adv-x="251" 
 />
    <glyph glyph-name="uni2009" unicode="&#x2009;" horiz-adv-x="402" 
 />
    <glyph glyph-name="uni200A" unicode="&#x200a;" horiz-adv-x="111" 
 />
    <glyph glyph-name="uni2010" unicode="&#x2010;" horiz-adv-x="964" 
d="M105 532v221h754v-214z" />
    <glyph glyph-name="uni2011" unicode="&#x2011;" horiz-adv-x="964" 
d="M105 532v221h754v-214z" />
    <glyph glyph-name="figuredash" unicode="&#x2012;" horiz-adv-x="964" 
d="M105 532v221h754v-214z" />
    <glyph glyph-name="endash" unicode="&#x2013;" horiz-adv-x="1153" 
d="M106 532v221h941v-214z" />
    <glyph glyph-name="emdash" unicode="&#x2014;" horiz-adv-x="1358" 
d="M106 532v221h1146v-214z" />
    <glyph glyph-name="quoteleft" unicode="&#x2018;" horiz-adv-x="457" 
d="M69 1108q0 100 45.5 214.5t142.5 232.5l79 -57q-16 -21 -36.5 -57t-38.5 -80t-30 -92.5t-12 -93.5q15 5 24 6t20 1q27 0 52.5 -8t45 -24.5t31.5 -42t12 -61.5q0 -31 -11 -59t-31 -49t-48 -33.5t-63 -12.5q-46 0 -80 16.5t-56.5 46t-34 69t-11.5 84.5z" />
    <glyph glyph-name="quoteright" unicode="&#x2019;" horiz-adv-x="431" 
d="M43 1403q0 31 11 59t31 49t48 33.5t63 12.5q46 0 80 -16.5t56.5 -46t34 -69t11.5 -84.5q0 -100 -45.5 -214.5t-142.5 -232.5l-79 57q16 21 36.5 57t38.5 80t30 92.5t12 93.5q-15 -5 -24 -6t-20 -1q-27 0 -52.5 8t-45 24.5t-31.5 42t-12 61.5z" />
    <glyph glyph-name="quotesinglbase" unicode="&#x201a;" horiz-adv-x="512" 
d="M90 127q0 31 11 59t31 49t48 33.5t63 12.5q46 0 80 -16.5t56.5 -46t34 -69t11.5 -84.5q0 -100 -45.5 -214.5t-142.5 -232.5l-79 57q16 21 36.5 57t38.5 80t30 92.5t12 93.5q-15 -5 -24 -6t-20 -1q-27 0 -52.5 8t-45 24.5t-31.5 42t-12 61.5z" />
    <glyph glyph-name="quotedblleft" unicode="&#x201c;" horiz-adv-x="867" 
d="M69 1108q0 100 45.5 214.5t142.5 232.5l79 -57q-16 -21 -36.5 -57t-38.5 -80t-30 -92.5t-12 -93.5q15 5 24 6t20 1q27 0 52.5 -8t45 -24.5t31.5 -42t12 -61.5q0 -31 -11 -59t-31 -49t-48 -33.5t-63 -12.5q-46 0 -80 16.5t-56.5 46t-34 69t-11.5 84.5zM479 1108
q0 100 45.5 214.5t142.5 232.5l79 -57q-16 -21 -36.5 -57t-38.5 -80t-30 -92.5t-12 -93.5q15 5 24 6t20 1q27 0 52.5 -8t45 -24.5t31.5 -42t12 -61.5q0 -31 -11 -59t-31 -49t-48 -33.5t-63 -12.5q-46 0 -80 16.5t-56.5 46t-34 69t-11.5 84.5z" />
    <glyph glyph-name="quotedblright" unicode="&#x201d;" horiz-adv-x="841" 
d="M43 1403q0 31 11 59t31 49t48 33.5t63 12.5q46 0 80 -16.5t56.5 -46t34 -69t11.5 -84.5q0 -100 -45.5 -214.5t-142.5 -232.5l-79 57q16 21 36.5 57t38.5 80t30 92.5t12 93.5q-15 -5 -24 -6t-20 -1q-27 0 -52.5 8t-45 24.5t-31.5 42t-12 61.5zM453 1403q0 31 11 59t31 49
t48 33.5t63 12.5q46 0 80 -16.5t56.5 -46t34 -69t11.5 -84.5q0 -100 -45.5 -214.5t-142.5 -232.5l-79 57q16 21 36.5 57t38.5 80t30 92.5t12 93.5q-15 -5 -24 -6t-20 -1q-27 0 -52.5 8t-45 24.5t-31.5 42t-12 61.5z" />
    <glyph glyph-name="quotedblbase" unicode="&#x201e;" horiz-adv-x="922" 
d="M90 127q0 31 11 59t31 49t48 33.5t63 12.5q46 0 80 -16.5t56.5 -46t34 -69t11.5 -84.5q0 -100 -45.5 -214.5t-142.5 -232.5l-79 57q16 21 36.5 57t38.5 80t30 92.5t12 93.5q-15 -5 -24 -6t-20 -1q-27 0 -52.5 8t-45 24.5t-31.5 42t-12 61.5zM500 127q0 31 11 59t31 49
t48 33.5t63 12.5q46 0 80 -16.5t56.5 -46t34 -69t11.5 -84.5q0 -100 -45.5 -214.5t-142.5 -232.5l-79 57q16 21 36.5 57t38.5 80t30 92.5t12 93.5q-15 -5 -24 -6t-20 -1q-27 0 -52.5 8t-45 24.5t-31.5 42t-12 61.5z" />
    <glyph glyph-name="bullet" unicode="&#x2022;" horiz-adv-x="782" 
d="M64 743q0 67 25.5 126t69.5 102.5t103.5 68.5t127.5 25q67 0 126.5 -25t104.5 -68.5t71 -102.5t26 -126q0 -68 -26 -126.5t-71 -101.5t-104.5 -68t-126.5 -25q-68 0 -127.5 25t-103.5 68t-69.5 101.5t-25.5 126.5z" />
    <glyph glyph-name="ellipsis" unicode="&#x2026;" horiz-adv-x="1584" 
d="M90 126q0 33 12 62.5t32.5 51.5t47.5 34.5t57 12.5q32 0 59 -12.5t47 -34.5t31 -51.5t11 -62.5t-10.5 -62t-29 -50.5t-45.5 -34t-60 -12.5q-34 0 -62 12.5t-48 34t-31 50.5t-11 62zM643 126q0 33 12 62.5t32.5 51.5t47.5 34.5t57 12.5q32 0 59 -12.5t47 -34.5t31 -51.5
t11 -62.5t-10.5 -62t-29 -50.5t-45.5 -34t-60 -12.5q-34 0 -62 12.5t-48 34t-31 50.5t-11 62zM1196 126q0 33 12 62.5t32.5 51.5t47.5 34.5t57 12.5q32 0 59 -12.5t47 -34.5t31 -51.5t11 -62.5t-10.5 -62t-29 -50.5t-45.5 -34t-60 -12.5q-34 0 -62 12.5t-48 34t-31 50.5
t-11 62z" />
    <glyph glyph-name="uni202F" unicode="&#x202f;" horiz-adv-x="402" 
 />
    <glyph glyph-name="guilsinglleft" unicode="&#x2039;" horiz-adv-x="774" 
d="M38 537l556 -570l113 113l-374 482v2l374 456l-117 113l-552 -552v-44z" />
    <glyph glyph-name="guilsinglright" unicode="&#x203a;" horiz-adv-x="774" 
d="M67 80l374 482v2l-374 456l117 113l552 -552v-44l-556 -570z" />
    <glyph glyph-name="uni205F" unicode="&#x205f;" horiz-adv-x="503" 
 />
    <glyph glyph-name="Euro" unicode="&#x20ac;" horiz-adv-x="1656" 
d="M85 474l38 160l149 -1q-2 15 -2 30v30v31t1 30h-186l38 160l173 -1q27 111 82.5 211.5t140.5 176.5t199 121t258 45q81 0 170.5 -23.5t171.5 -77.5h2v87h161l-50 -449h-134q-2 151 -75.5 232.5t-218.5 81.5q-86 0 -154.5 -32t-121 -87t-88 -129t-54.5 -157l687 -2
l-97 -153l-609 -3q-1 -14 -1.5 -26.5t-0.5 -26.5q0 -17 1 -35t5 -35l578 -1l-101 -153l-451 -2q45 -171 152 -257t264 -86q64 0 129 17t126 49.5t115.5 79.5t97.5 106l98 -90q-75 -104 -157 -168t-163 -99.5t-157 -48t-139 -12.5q-128 0 -236.5 37.5t-193.5 105t-144.5 161
t-89.5 204.5z" />
    <glyph glyph-name="trademark" unicode="&#x2122;" horiz-adv-x="2273" 
d="M133 1131l7 303h789l6 -303h-79q0 100 -40 146.5t-109 46.5h-68v-518q0 -33 -1.5 -63t-3.5 -46l97 4v-113h-389v99q20 1 36 4t27 13.5t17 31t6 56.5v530h-66q-69 0 -109 -45.5t-40 -145.5h-80zM978 588v98q20 1 35.5 4t26 13.5t16 31t5.5 56.5l10 428q1 32 2.5 62.5
t3.5 45.5l-92 -3v110h313l201 -470q24 -56 37.5 -99.5t28.5 -87.5h1q5 18 13 44t17 52t17 48.5t13 33.5l184 479h323v-97q-20 -1 -36.5 -3.5t-27.5 -12t-17 -27.5t-6 -51l16 -456q0 -29 -1.5 -53t-3.5 -38l91 4v-112h-369v98q19 1 35 4t27.5 12t17.5 27.5t6 50.5l-10 248
q0 11 -0.5 34.5t-1.5 53.5t-2.5 62t-2.5 60h-1l-242 -662h-160l-176 398q-8 16 -18.5 45.5t-22.5 65t-23.5 74.5t-20.5 75h-1q1 -54 2 -102.5t1 -127.5l2 -199q0 -33 -3.5 -63t-5.5 -46l92 4v-112h-293z" />
    <glyph glyph-name="uni25FC" unicode="&#x25fc;" horiz-adv-x="1025" 
d="M0 0v1025h1025v-1025h-1025z" />
    </font>
</defs>
</svg>
